<svg xmlns="http://www.w3.org/2000/svg" viewBox="0 0 50.634 46.541">
  <defs>
    <style>
      .cls-1 {
        fill: #e2b21c;
      }
    </style>
  </defs>
  <g id="Ebene_2" data-name="Ebene 2">
    <g id="Ebene_1-2" data-name="Ebene 1">
      <g>
        <path class="cls-1" d="M49.1,18.682a4.076,4.076,0,0,0-1.683-.182c-2.109.114-9.713,3.879-11.16,5.345,0,0,7.741-4.911,10.29-3.435,2.331,1.35.1,8.054-1.99,11.295-3.932,6.1-8.161,11.289-14,12.443a9.378,9.378,0,0,1-3.523.127c-4.941-.972-7.579-6.467-6.937-10.944.436-3.04,2.038-5.725,4.108-6.3-2.678.344-4.232,4.017-4.7,6.712-.8,4.593,2.024,12.482,8.881,12.788,7.486.332,13.8-5.136,19.152-14.246,2.065-3.517,4.906-12.222,1.568-13.6"/>
        <path class="cls-1" d="M21.109,30.954a10.06,10.06,0,0,0,1.472,8.223,6.733,6.733,0,0,0,7.111,2.961c4.094-.7,8.031-4.121,11.876-9.859,2.562-3.822,4.176-9.756,1.721-10.362-1.939-.48-7.624,1.815-7.651,2.33,0,0,4.5-2.345,6.117-.729,1.068,1.064-.333,5.4-1.969,7.7-3.463,4.87-6.324,8.292-11.294,8.809-5.113.534-7.895-4.6-7.205-8.306.863-4.638,3.642-4.849,3.6-4.845-1.985.178-3.209,2.122-3.778,4.079"/>
        <path class="cls-1" d="M22.6,29.079c-1.63,3.966.471,8.845,4.855,8.85,4.011,0,7.586-3.381,10.433-7.239,1.194-1.617,3-5.37,1.857-6.608-1.163-1.235-5.861.269-6.234.746,0,0,3.041-1.191,4.169-.055.947.953-.342,3.628-1.261,4.868-2.3,3.095-5.018,5.658-8.251,6.3-3.487.688-6-2.777-5.554-5.67a4.7,4.7,0,0,1,3.5-3.82A4.4,4.4,0,0,0,22.6,29.079"/>
        <path class="cls-1" d="M23.438,28.961A3.536,3.536,0,0,0,26,33.658c3.405.869,8.877-3.405,9.737-7.288a1.332,1.332,0,0,0-.9-1.493,6.4,6.4,0,0,0-3.958.486s2.366-.369,2.913.27c1.385,1.616-3.878,7.779-7.934,6.629a2.962,2.962,0,0,1-1.121-4.7A7.638,7.638,0,0,1,27.579,25.9a5.525,5.525,0,0,0-4.141,3.06"/>
        <path class="cls-1" d="M25.85,28.952c1.233,3.9,7.082-.15,5.156-2.155-1.962-2.041-5.754.26-5.156,2.155"/>
        <path class="cls-1" d="M14.116.33a4.057,4.057,0,0,1,1.106,1.281c1.105,1.8,2.33,10.2,1.946,12.22,0,0-.359-9.16-3.023-10.418-2.435-1.151-6.681,4.5-8.162,8.057C3.2,18.174,1.334,24.6,3.7,30.063a9.393,9.393,0,0,0,1.9,2.972c3.608,3.512,9.628,2.559,12.947-.513C20.8,30.435,22.1,27.591,21.4,25.558c1.238,2.4-.9,5.766-2.85,7.685-3.323,3.27-11.42,5.43-15.569-.039C-1.546,27.234-.636,18.93,3.818,9.35c1.721-3.7,7.268-10.984,10.3-9.02"/>
        <path class="cls-1" d="M19.927,30.334a10.058,10.058,0,0,1-7.6,3.462,6.733,6.733,0,0,1-6.478-4.167C4.1,25.861,4.673,20.679,7.209,14.254c1.688-4.28,5.653-8.981,7.547-7.3,1.5,1.323,2.839,7.3,2.431,7.619,0,0-.627-5.033-2.876-5.448-1.483-.273-4.255,3.344-5.216,6-2.038,5.618-3.228,9.917-.829,14.3,2.468,4.51,8.27,3.883,10.93,1.207,3.325-3.346,1.919-5.753,1.94-5.716.981,1.735.078,3.847-1.209,5.427"/>
        <path class="cls-1" d="M20.623,28.044c-2.337,3.595-7.545,4.639-10.041,1.035-2.284-3.3-1.53-8.163.026-12.7.652-1.9,2.715-5.519,4.381-5.284,1.678.255,3.111,4.976,2.93,5.553,0,0-.749-3.179-2.325-3.461-1.321-.238-2.79,2.343-3.287,3.8-1.242,3.649-1.8,7.346-.493,10.368,1.417,3.261,5.7,3.358,7.823,1.347a4.7,4.7,0,0,0,1.154-5.05,4.405,4.405,0,0,1-.168,4.386"/>
        <path class="cls-1" d="M20.243,27.285a3.536,3.536,0,0,1-5.319.564c-2.649-2.307-2.243-9.238.463-12.153a1.331,1.331,0,0,1,1.742-.105,6.4,6.4,0,0,1,1.849,3.532S17.937,16.967,17.1,16.88c-2.117-.221-4.2,7.612-.944,10.3a2.961,2.961,0,0,0,4.5-1.75,7.636,7.636,0,0,0-.252-3.287,5.522,5.522,0,0,1-.164,5.146"/>
        <path class="cls-1" d="M18.88,25.3c-3.914,1.2-3.9-5.913-1.157-5.467,2.8.454,3.056,4.882,1.157,5.467"/>
      </g>
    </g>
  </g>
</svg>
