<svg xmlns="http://www.w3.org/2000/svg" xmlns:xlink="http://www.w3.org/1999/xlink" viewBox="0 0 136.877 79.817">
  <defs>
    <style>
      .cls-1, .cls-6 {
        fill: none;
      }

      .cls-2 {
        fill: #fff;
      }

      .cls-3 {
        fill: #e2b12d;
      }

      .cls-4 {
        clip-path: url(#clip-path);
      }

      .cls-5 {
        clip-path: url(#clip-path-2);
      }

      .cls-6 {
        stroke: #000;
        stroke-miterlimit: 3.864;
        stroke-width: 0.746px;
      }
    </style>
    <clipPath id="clip-path" transform="translate(-0.012 0)">
      <rect class="cls-1" x="0.012" width="136.878" height="79.817"/>
    </clipPath>
    <clipPath id="clip-path-2" transform="translate(-0.012 0)">
      <rect class="cls-1" width="136.89" height="79.817"/>
    </clipPath>
  </defs>
  <g id="Ebene_2" data-name="Ebene 2">
    <g id="Ebene_1-2" data-name="Ebene 1">
      <g>
        <g>
          <path class="cls-2" d="M100.531,23.77A23.761,23.761,0,1,1,76.77.008,23.762,23.762,0,0,1,100.531,23.77" transform="translate(-0.012 0)"/>
          <path class="cls-3" d="M100.2,27.806A23.773,23.773,0,0,1,57.615,37.844c3.748.623,9.949,2.609,11.556,5.052l.625.95,2.431-.54c2.1-9.018,14.5-15.587,27.895-15.5Z" transform="translate(-0.012 0)"/>
          <path class="cls-3" d="M55.481,34.352a21.069,21.069,0,0,1-2.176-6.944c3.457.338,10.932,2.491,12.721,5.21l.626.95,2.431-.54c2.1-8.994,15.211-15.8,30.578-15.673a23.756,23.756,0,0,1,.876,6.413c0,.335-.008.668-.02,1-14.776-.159-26.039,6.941-30.471,14.673-3.364-2.683-11.122-4.576-14.565-5.087" transform="translate(-0.012 0)"/>
          <path class="cls-3" d="M93.844,7.235A23.812,23.812,0,0,1,98.62,14.4c-16.1.114-27.371,7.173-31.719,14.76-3.62-2.888-10.991-4.578-13.895-4.889l-.006-.5a23.773,23.773,0,0,1,.872-6.4c3.764.778,9.067,2.629,10.536,4.862l.625.95,2.431-.54C69.532,13.77,81.8,7.316,93.844,7.235" transform="translate(-0.012 0)"/>
        </g>
        <g class="cls-4">
          <path class="cls-3" d="M76.768,0A23.663,23.663,0,0,1,90.46,4.337C78.554,5.415,69.3,11.763,65.282,18.77c-2.711-2.163-7.13-3.595-10.391-4.308A23.773,23.773,0,0,1,76.768,0" transform="translate(-0.012 0)"/>
        </g>
        <polygon points="7.974 72.682 12.36 61.979 16.745 72.682 18.186 72.682 24.765 57.625 21.655 57.625 17.433 67.379 13.309 57.625 11.377 57.625 7.319 67.412 3.097 57.625 0 57.625 0 57.656 6.533 72.682 7.974 72.682"/>
        <path d="M26.432,52.747h2V50.03h-2Zm0,19.64h2V57.625h-2Z" transform="translate(-0.012 0)"/>
        <g class="cls-5">
          <path d="M32.465,72.387H34.1V61.979a5.642,5.642,0,0,1,4.942-3.11c2.554,0,3.764,1.768,3.764,5.3v8.216h1.636v-9c0-3.863-1.9-6.023-5.236-6.023A6.342,6.342,0,0,0,34.1,59.982V57.625H32.465Z" transform="translate(-0.012 0)"/>
          <path d="M53.2,73.107c3.37,0,5.007.813,5.007,2.57,0,1.822-1.734,2.8-5.139,2.8-3.142,0-4.844-.976-4.844-2.538,0-1.918,1.637-2.83,4.976-2.83M49.21,62.9a3.869,3.869,0,0,1,3.862-3.862A3.829,3.829,0,1,1,49.21,62.9m2.029,4.876c-1.7.459-2.618,1.375-2.618,2.456,0,1.015.72,1.768,2.03,2.062-2.554.359-3.962,1.762-3.962,3.616,0,2.472,2.161,3.912,6.318,3.912,4.55,0,6.776-1.375,6.776-4.238,0-2.766-1.932-3.552-5.99-3.945-2.39-.229-3.7-.327-3.7-1.44,0-1.407,1.472-1.473,3.666-2.095,3.175-.917,4.745-2.553,4.745-5.237a4.923,4.923,0,0,0-1.767-3.829h3.143V57.625h-5.5a7.6,7.6,0,0,0-4.157.753,5.2,5.2,0,0,0-2.652,4.484c0,2.258,1.244,3.961,3.666,4.909" transform="translate(-0.012 0)"/>
        </g>
        <polygon points="66.382 72.682 67.822 72.682 72.208 61.979 76.594 72.682 78.035 72.682 84.613 57.625 81.505 57.625 77.282 67.379 73.157 57.625 71.227 57.625 67.168 67.413 62.945 57.625 59.835 57.625 66.382 72.682"/>
        <path d="M94.008,69.408a6.449,6.449,0,0,1-4.026,1.9c-1.8,0-2.881-.949-2.881-2.455,0-2.291,2.456-3.993,6.907-4.058Zm.033,1.538c.065,1.211.457,1.735,1.407,1.735a4.061,4.061,0,0,0,2.389-1.342v-1.5c-.785.687-1.21,1.145-1.669,1.145-.36,0-.524-.3-.524-.948V62.306c0-3.437-1.341-5.008-4.811-5.008a8.282,8.282,0,0,0-4.648,1.636v1.6a7.6,7.6,0,0,1,4.517-1.8c2.324,0,3.306.982,3.306,3.175v1.571c-5.63.229-8.575,2.226-8.575,5.433a3.761,3.761,0,0,0,4.091,3.8,7.115,7.115,0,0,0,4.517-1.768" transform="translate(-0.012 0)"/>
        <polygon points="104.431 72.682 105.543 72.682 111.827 57.625 110.126 57.625 105.02 69.933 99.651 57.625 97.819 57.625 104.431 72.682"/>
        <g>
          <path d="M125.927,70.75v-1.8a9.031,9.031,0,0,1-5.662,2.16c-3.208,0-5.564-2.519-5.564-6.48v-.165h11.522V64.4c0-4.32-2.619-7.071-6.383-7.071-4.091,0-6.873,2.947-6.873,7.431,0,4.812,2.911,7.954,7.331,7.954a9.555,9.555,0,0,0,5.629-1.964M114.9,63.059a4.858,4.858,0,0,1,4.812-4.32,4.619,4.619,0,0,1,4.582,4.32Z" transform="translate(-0.012 0)"/>
          <path d="M130.569,55.212h1.61a2.474,2.474,0,0,0,.8-.1.865.865,0,0,0,.439-.34.929.929,0,0,0,.151-.509.839.839,0,0,0-.294-.66,1.352,1.352,0,0,0-.919-.259h-1.791Zm-.747,3.161V52.715h2.508a3.326,3.326,0,0,1,1.15.154,1.25,1.25,0,0,1,.629.537,1.607,1.607,0,0,1,.236.853,1.419,1.419,0,0,1-.391,1.015,1.971,1.971,0,0,1-1.2.525,1.943,1.943,0,0,1,.451.282,3.835,3.835,0,0,1,.621.752l.985,1.54h-.942l-.75-1.177c-.217-.34-.4-.6-.539-.78a1.711,1.711,0,0,0-.382-.378,1.1,1.1,0,0,0-.34-.15,2.323,2.323,0,0,0-.417-.028h-.869v2.513Z" transform="translate(-0.012 0)"/>
        </g>
        <g class="cls-4">
          <path class="cls-6" d="M127.674,55.557a4.422,4.422,0,1,1,4.422,4.422A4.422,4.422,0,0,1,127.674,55.557Z" transform="translate(-0.012 0)"/>
        </g>
      </g>
    </g>
  </g>
</svg>
