<?xml version="1.0" encoding="utf-8"?>
<!-- Generator: Adobe Illustrator 25.0.1, SVG Export Plug-In . SVG Version: 6.00 Build 0)  -->
<svg version="1.1" id="Ebene_1" focusable="false" xmlns="http://www.w3.org/2000/svg" xmlns:xlink="http://www.w3.org/1999/xlink"
	 x="0px" y="0px" viewBox="0 0 512 512" style="enable-background:new 0 0 512 512;" xml:space="preserve">
<style type="text/css">
	.st0{fill:#B83280;}
</style>
<path class="st0" d="M8,256c0,137,111,248,248,248s248-111,248-248S393,8,256,8S8,119,8,256z M456,256c0,110.5-89.5,200-200,200
	S56,366.5,56,256S145.5,56,256,56S456,145.5,456,256z M384,236v40c0,6.6-5.4,12-12,12H256v67c0,10.7-12.9,16-20.5,8.5l-99-99
	c-4.7-4.7-4.7-12.3,0-17l99-99c7.6-7.6,20.5-2.2,20.5,8.5v67h116C378.6,224,384,229.4,384,236z"/>
</svg>
