<svg xmlns="http://www.w3.org/2000/svg" viewBox="0 0 125.279 41.494">
  <defs>
    <style>
      .cls-1 {
        fill: #44484d;
      }

      .cls-2 {
        fill: none;
        stroke: #858740;
        stroke-miterlimit: 4.719;
        stroke-width: 0.294px;
      }
    </style>
  </defs>
  <g id="Ebene_2" data-name="Ebene 2">
    <g id="Ebene_1-2" data-name="Ebene 1">
      <g>
        <path class="cls-1" d="M23.083,13.521a2.576,2.576,0,0,1-.869,2,7.688,7.688,0,0,1-.884.8,8.9,8.9,0,0,1-1.122.738,5.075,5.075,0,0,1-1.629.664,3.433,3.433,0,0,1-2.919-.96,4.015,4.015,0,0,1-1.21-2.529,7.761,7.761,0,0,1,.18-1.975,10.078,10.078,0,0,1,.287-1.35A7.006,7.006,0,0,1,15.956,9.3q.233-.206.455-.4c.149-.127.3-.258.444-.394a5.519,5.519,0,0,1,.795-.56,2.836,2.836,0,0,1,1.023-.471c.346-.038.526.02.543.171a1.119,1.119,0,0,1-.226.511,5.951,5.951,0,0,0-3.048,2.419,4.922,4.922,0,0,0-.736,3.2,3.791,3.791,0,0,0,1.069,2.4,2.965,2.965,0,0,0,2.529.785A5.173,5.173,0,0,0,21,15.9q1.542-1.1,1.436-2.076-.087-.795-3.462-.426a.274.274,0,0,0-.105.043c-.044.027-.09.054-.138.085s-.095.06-.143.087a.339.339,0,0,1-.11.044.738.738,0,0,1-.261-.042.74.74,0,0,0-.285-.04l-.038-.341a2.214,2.214,0,0,1,.16-.529q.7.014,2.038-.069.66-.046,1.15-.069t.824-.007a.944.944,0,0,1,.67.279A1.065,1.065,0,0,1,23.083,13.521Z"/>
        <path class="cls-1" d="M29.464,15.38a2.494,2.494,0,0,1-1.241,1.044,5.417,5.417,0,0,1-1.839.611,2.034,2.034,0,0,1-1.836-.758,2.961,2.961,0,0,1-.757-1.657,3.3,3.3,0,0,1,.484-1.895,2.192,2.192,0,0,1,1.661-1.308,1.711,1.711,0,0,1,1.071.33q.618.381.653.709.061.556-.681,1.137-.166.12-.478.307t-.77.444a4.449,4.449,0,0,0-.7.433q.114,1.5,1.82,1.311a5.9,5.9,0,0,0,1.992-.615,1.259,1.259,0,0,1,.232-.1Zm-2.74-2.719a.551.551,0,0,0-.158-.386.863.863,0,0,0-.542-.048,1.384,1.384,0,0,0-.651.25.779.779,0,0,0-.366.744q.043.4.512.352a1.855,1.855,0,0,0,.791-.253A.693.693,0,0,0,26.724,12.661Z"/>
        <path class="cls-1" d="M40.743,14.644a1.972,1.972,0,0,1-.726.489,3.262,3.262,0,0,1-.974.337,1.261,1.261,0,0,1-1.164-.461,5.484,5.484,0,0,1-.563-1.052c-.168-.373-.325-.553-.467-.537-.127.015-.311.239-.553.675q-.258.45-.448.759a4.791,4.791,0,0,1-.314.462,1.788,1.788,0,0,1-1.123.725.69.69,0,0,1-.736-.405c-.05-.149-.1-.3-.15-.445s-.1-.3-.153-.456c-.094-.3-.249-.446-.469-.423q-.252.028-.847,1.014t-.939,1.011a.424.424,0,0,1-.128,0,1.994,1.994,0,0,1-.638-.928q-.181-.722-.316-1.474t-.22-1.55q-.168-1.53.513-1.733a4.3,4.3,0,0,1,.388,1.673l.09.821q.186,1.694.615,1.647t.964-1.014q.521-.978.848-1.013c.261-.03.505.371.733,1.2q.366,1.239.809,1.191.467-.051.958-1.064.02-.042.213-.5t.569-1.347q.416-.993.68-1.022.418-.046.565.949.1.693.217,1.153a2.906,2.906,0,0,0,.241.69,1.811,1.811,0,0,0,1.956.809A2.1,2.1,0,0,0,40.743,14.644Z"/>
        <path class="cls-1" d="M46.617,13.5a2.5,2.5,0,0,1-1.241,1.045,5.4,5.4,0,0,1-1.839.61A2.028,2.028,0,0,1,41.7,14.4a2.966,2.966,0,0,1-.758-1.657,3.29,3.29,0,0,1,.485-1.894,2.186,2.186,0,0,1,1.66-1.308,1.718,1.718,0,0,1,1.072.329q.617.381.654.71.06.556-.682,1.136c-.11.081-.27.183-.478.308s-.465.273-.77.443a4.189,4.189,0,0,0-.694.434q.113,1.5,1.819,1.31A5.886,5.886,0,0,0,46,13.6a1.194,1.194,0,0,1,.232-.1Zm-2.741-2.719a.539.539,0,0,0-.157-.385.856.856,0,0,0-.542-.049,1.413,1.413,0,0,0-.652.25.779.779,0,0,0-.365.744c.03.269.2.387.511.353a1.847,1.847,0,0,0,.791-.254A.688.688,0,0,0,43.876,10.782Z"/>
        <path class="cls-1" d="M48.213,6a.227.227,0,0,1-.016.143.151.151,0,0,0-.021.1.237.237,0,0,0-.09.055.289.289,0,0,1-.152.061q-.19.021-.591-.37a1.583,1.583,0,0,1-.4-.494.488.488,0,0,1,.147-.3c.121-.133.212-.2.27-.209q.279-.03.588.46A1.6,1.6,0,0,1,48.213,6Zm.475,3.747c.015.144.024.323.027.541s0,.472-.013.762-.015.544-.013.757a5.117,5.117,0,0,0,.027.534c.006.059.016.133.03.221s.031.19.053.307a4.844,4.844,0,0,1,.092.488.892.892,0,0,1-.445.97c-.238-.085-.447-.424-.622-1.018a5.034,5.034,0,0,1-.188-.9,9.17,9.17,0,0,1,.1-1.571q.174-1.466.5-1.5a.384.384,0,0,1,.277.136A.476.476,0,0,1,48.688,9.744Z"/>
        <path class="cls-1" d="M56.307,12.734c-.036.141-.234.291-.591.45a2.85,2.85,0,0,1-.566.2q-.633.069-1.382-1.294-.215-.425-.412-.838t-.4-.839l-.253.027a6.425,6.425,0,0,0-.664,1.072,8.365,8.365,0,0,1-.683,1.11,1.467,1.467,0,0,1-.906.611,2.624,2.624,0,0,1-.405-1.132c.018.084.015.021-.008-.185s-.061-.563-.117-1.068a13.468,13.468,0,0,0-.312-1.916,2.706,2.706,0,0,0-.162-.539.545.545,0,0,1,.09-.3c.068-.123.139-.189.215-.2q.645-.069.8,1.384c.009.084.018.188.027.31s.019.269.029.438.021.3.034.419.022.21.03.278q.106.974.46.935.494-.054,1.331-1.516a16.613,16.613,0,0,0,.825-1.458q.38-.042.617,1.083a16.535,16.535,0,0,0,.535,2.079,1.389,1.389,0,0,0,1.491.988A.885.885,0,0,0,56.307,12.734Z"/>
        <path class="cls-1" d="M61.4,12.4c.033.3-.2.589-.712.858a2.541,2.541,0,0,1-.871.338l-.519.056A2.606,2.606,0,0,1,57.6,13.13q-.937-.614-1.005-1.234a.69.69,0,0,1,.171-.542,9.082,9.082,0,0,0,.53.875,2.894,2.894,0,0,0,.908.464,2.835,2.835,0,0,0,.973.239c.674-.074,1-.207.979-.4q-.024-.226-1.294-1.3t-1.337-1.7a2.014,2.014,0,0,1,.283-1.156,1.4,1.4,0,0,1,1.071-.847,1.908,1.908,0,0,1,.727.1c.353.106.549.265.589.473a.846.846,0,0,1-.262.112c-.12.034-.272.07-.455.107a1.987,1.987,0,0,0-.766.25.7.7,0,0,0-.292.723q.05.456,1.5,1.652T61.4,12.4Z"/>
        <path class="cls-1" d="M69.961,11.508a2.127,2.127,0,0,1-.735.528,1.56,1.56,0,0,1-1.208-.4,4.944,4.944,0,0,1-.764-.9q-.35-.5-.438-.489c-.118.013-.273.227-.467.64a8.756,8.756,0,0,1-.667,1.147,1.665,1.665,0,0,1-1.113.711q-1.1.12-1.714-1.3A6.1,6.1,0,0,1,62.407,9.7a4.05,4.05,0,0,1,.13-1.626,1.448,1.448,0,0,1,1.249-1.211,4.242,4.242,0,0,1,.908,0q.728.1.768.467.014.126-.192.354-.18.223-.306.237a1.462,1.462,0,0,1-.455-.18,1.378,1.378,0,0,0-.442-.182q-.517.057-.734,1a4.239,4.239,0,0,0-.1,1.406,3.165,3.165,0,0,0,.334,1.178,1.112,1.112,0,0,0,1.165.717q.859-.093,1.22-1.246a6.751,6.751,0,0,0,.227-2.123L66.12,7.272l.392-.043a5.1,5.1,0,0,1,.413.677c.146.28.308.617.489,1.016a6.772,6.772,0,0,0,.892,1.6A2.8,2.8,0,0,0,69.961,11.508Z"/>
        <path class="cls-1" d="M80.926,10.243a1.928,1.928,0,0,1-.727.488,3.121,3.121,0,0,1-.973.337,1.255,1.255,0,0,1-1.163-.461,5.309,5.309,0,0,1-.563-1.05Q77.247,9,77.031,9.02c-.127.013-.31.238-.552.674q-.258.45-.449.759a4.8,4.8,0,0,1-.313.463,1.784,1.784,0,0,1-1.123.724.689.689,0,0,1-.736-.406c-.05-.148-.1-.3-.151-.444s-.1-.3-.152-.456q-.139-.457-.469-.422-.252.028-.848,1.014T71.3,11.937a.5.5,0,0,1-.129,0,1.977,1.977,0,0,1-.638-.927c-.122-.482-.226-.974-.315-1.476S70.056,8.517,70,7.986q-.168-1.529.514-1.732A4.31,4.31,0,0,1,70.9,7.926l.089.821c.124,1.13.328,1.679.616,1.647s.607-.37.963-1.014.629-.989.848-1.014q.393-.042.733,1.2c.245.828.513,1.224.808,1.192q.468-.051.958-1.065c.015-.027.086-.194.214-.5s.318-.757.568-1.347q.417-.992.682-1.022.417-.046.564.95c.068.46.139.845.216,1.153a2.934,2.934,0,0,0,.242.689,1.813,1.813,0,0,0,1.957.809A2.107,2.107,0,0,0,80.926,10.243Z"/>
        <path class="cls-1" d="M93.03,9.225a.318.318,0,0,1-.089.24.35.35,0,0,1-.225.165q-.594.064-1.24-.823c-.144-.216-.29-.429-.442-.643s-.3-.428-.441-.643l-.24.027a10.22,10.22,0,0,1-1.1,1.872q-.934,1.28-1.7,1.364a1.52,1.52,0,0,1-1.591-.977,4.033,4.033,0,0,1-.446-1.5,2.916,2.916,0,0,1,.685-1.8,2.531,2.531,0,0,1,1.651-1.28,1.519,1.519,0,0,1,.88.325c.376.24.574.458.595.651a.451.451,0,0,1-.084.284c-.065.105-.131.161-.2.169q-.012,0-.45-.373a1.056,1.056,0,0,0-.791-.335q-.91.1-1.239,1.3A3.71,3.71,0,0,0,86.4,8.723q.153,1.389,1.4,1.253,1.15-.126,1.776-2.242a6.741,6.741,0,0,0,.414-2.526c-.01-.085-.039-.237-.089-.458s-.116-.518-.2-.893-.145-.648-.186-.824-.06-.253-.058-.236a7.668,7.668,0,0,1,.01-1.549A5.268,5.268,0,0,1,89.587.5a1.985,1.985,0,0,1,.182-.5.409.409,0,0,1,.123.07,1.307,1.307,0,0,1,.162.142A1.385,1.385,0,0,1,90.2.388a1.125,1.125,0,0,1,.1.168,2.777,2.777,0,0,1,.121.472c.033.185.062.394.089.63q.035.33.086,1.142.031.407.06.722t.055.558A7.475,7.475,0,0,0,93.03,9.225Z"/>
        <path class="cls-1" d="M101.057,8.1a2.143,2.143,0,0,1-.736.529,1.567,1.567,0,0,1-1.209-.4,5.1,5.1,0,0,1-.763-.9c-.233-.332-.379-.5-.438-.489-.118.013-.273.227-.467.64a8.692,8.692,0,0,1-.668,1.147,1.66,1.66,0,0,1-1.112.71q-1.1.12-1.715-1.3A6.1,6.1,0,0,1,93.5,6.294a4.052,4.052,0,0,1,.129-1.626,1.448,1.448,0,0,1,1.249-1.211,4.31,4.31,0,0,1,.908,0q.728.1.767.466c.01.085-.054.2-.192.353-.119.15-.221.23-.305.239a1.477,1.477,0,0,1-.454-.181,1.379,1.379,0,0,0-.443-.182q-.519.057-.734,1a4.237,4.237,0,0,0-.1,1.405,3.184,3.184,0,0,0,.334,1.179,1.113,1.113,0,0,0,1.165.717c.574-.062.981-.479,1.22-1.246a6.744,6.744,0,0,0,.229-2.123l-.058-1.222.393-.043a5.293,5.293,0,0,1,.413.677q.217.417.488,1.015a6.812,6.812,0,0,0,.891,1.6A2.792,2.792,0,0,0,101.057,8.1Z"/>
        <path class="cls-1" d="M106.17,7.491q.05.454-.712.859a2.526,2.526,0,0,1-.871.338l-.519.056a2.607,2.607,0,0,1-1.694-.517q-.937-.615-1-1.234a.688.688,0,0,1,.171-.543,8.958,8.958,0,0,0,.53.876,2.915,2.915,0,0,0,.909.464,2.8,2.8,0,0,0,.972.238q1.011-.11.98-.4-.025-.226-1.294-1.3t-1.337-1.7a2.017,2.017,0,0,1,.282-1.156,1.405,1.405,0,0,1,1.071-.847,1.913,1.913,0,0,1,.728.1c.352.106.549.264.589.472a.888.888,0,0,1-.263.113c-.12.034-.272.07-.455.107a1.947,1.947,0,0,0-.766.25.706.706,0,0,0-.292.723q.051.455,1.5,1.652T106.17,7.491Z"/>
      </g>
      <g>
        <path class="cls-2" d="M2.949,38.636a3.765,3.765,0,0,1-.128.956c-.03.131-.071.3-.121.506s-.112.444-.182.715c-.4,0-.613-.115-.638-.339a3.251,3.251,0,0,1,.142-.576,1.848,1.848,0,0,0,.135-.642l-.03-.271a.037.037,0,0,1-.017-.025L2.1,38.948c-.062-.074-.306.311-.733,1.159Q.73,41.322.528,41.346A.53.53,0,0,1,.4,41.333a.49.49,0,0,0-.131-.014l-.058-.034a.291.291,0,0,1-.06-.171,6.9,6.9,0,0,1,.107-.885,11.835,11.835,0,0,1,.284-1.411L.7,38.023q.122-.506.473-.544a.694.694,0,0,1,.15,0,.252.252,0,0,0,.071.156.388.388,0,0,1,.1.193,4.767,4.767,0,0,1-.131.547c-.047.16-.084.3-.112.415s-.047.212-.058.286l.017.026.041-.005c.017,0,.057-.056.118-.163q.36-.585.407-.645a.874.874,0,0,1,.612-.395q.217-.024.388.3A1.172,1.172,0,0,1,2.949,38.636Z"/>
        <path class="cls-2" d="M13.747,27.882q-.165.631-.325,1.469t-.343,1.908a3.036,3.036,0,0,1-.172.552,1.851,1.851,0,0,0-.169.578q-.7,6.072-2.32,6.248-.634.07-1.135-.885-.186-.458-.372-.909c-.124-.3-.253-.6-.386-.906q-.435-.976-.947-.921-.446.05-.787,1.042c-.1.3-.187.6-.278.9s-.181.6-.275.9q-.371.984-.9,1.041-.689.075-2.113-6.077l-.307-2.807c.218-.334.416-.51.6-.529q.191-.023.805,3.353.649,3.561,1.047,3.941a10.2,10.2,0,0,0,1.05-1.509q.779-1.232,1.157-1.273.743-.081,1.313.893a16.376,16.376,0,0,1,.816,1.836q.394,1,.719.96.608-.068,1.084-2.318l.243-1.528q.122-.763.253-1.543.209-1.347.446-2.295a8.687,8.687,0,0,1,.514-1.538A1.02,1.02,0,0,1,13.747,27.882Z"/>
        <path class="cls-2" d="M24.8,30.85a6.712,6.712,0,0,1-1.057,4.307A5.063,5.063,0,0,1,19.9,37.8l-.958.1a3.348,3.348,0,0,1-3.012-1.446,5.659,5.659,0,0,1-1.34-3.006,7.531,7.531,0,0,1,.23-2.143,10.228,10.228,0,0,1,1.027-2.965,2.789,2.789,0,0,1,2.017-1.655,1.724,1.724,0,0,1,.821.142,1.528,1.528,0,0,1,.749.6l.044.4a.188.188,0,0,0-.083.05.308.308,0,0,1-.164.058c-.715-.212-1.086-.318-1.113-.315q-1.269.14-1.96,2.427a7.422,7.422,0,0,0-.439,2.861q.489,4.452,4.428,4.021A3.842,3.842,0,0,0,23.18,34.85a5.613,5.613,0,0,0,.718-3.41,5.513,5.513,0,0,0-.79-2.358A2.078,2.078,0,0,0,21.067,27.9a2.426,2.426,0,0,0-.506.124.685.685,0,0,1,.665-.66,2.822,2.822,0,0,1,2.49,1.161A4.276,4.276,0,0,1,24.8,30.85Z"/>
        <path class="cls-2" d="M32.772,25.689a6.89,6.89,0,0,0-.863-.028,24.261,24.261,0,0,0-3.107.927q-2.977,1-3.131,1.463a.518.518,0,0,0-.026.262,2.853,2.853,0,0,0,.075.367,3.292,3.292,0,0,1,.076.381.684.684,0,0,1-.121.519,9.222,9.222,0,0,0-.531-.857,3.916,3.916,0,0,1-.383-.627c-.053-.5.5-.979,1.671-1.453a7.936,7.936,0,0,1,2-.6.61.61,0,0,1,.179.015.7.7,0,0,0,.206.011c-.036,0,.035-.026.216-.092s.471-.165.874-.3a9.342,9.342,0,0,1,1.953-.5,2.2,2.2,0,0,1,.883.2Zm-.5,4.943q-.633.205-1.566.533t-2.209.781a5.686,5.686,0,0,0-.054.88c0,.346.021.74.061,1.182q.05.567.109,1.121t.11,1.121c-.045.178-.267.3-.67.374a4.326,4.326,0,0,1-.793-1.388A1.114,1.114,0,0,1,27.279,35a1.161,1.161,0,0,0,.011-.274l.338-.038q-.03-2.139-.046-2.288a.168.168,0,0,0-.149-.168,1.7,1.7,0,0,0-.268-.018,2.109,2.109,0,0,1-.989-.056c-.566-.1-.864-.279-.891-.531-.009-.081.076-.226.253-.437s.3-.32.386-.329c.145-.015.306.085.485.3a.684.684,0,0,0,.643.271q.351-.039.469-1.7.13-1.682.468-1.718t.4.434c0,.036,0,.143-.006.322s-.016.427-.027.747-.015.6-.012.827.012.42.028.564a.581.581,0,0,0,.405.2c.035,0,.189-.032.461-.084s.667-.13,1.183-.233.911-.181,1.182-.238.421-.087.448-.09C32.188,30.451,32.262,30.506,32.276,30.632Z"/>
        <path class="cls-2" d="M43.466,27.836a8.108,8.108,0,0,1-.452,3.476,5.463,5.463,0,0,1-2.183,3.121,4.01,4.01,0,0,0-.521.371,1.527,1.527,0,0,1-.448.268,4.944,4.944,0,0,0-.544.141c-.151.035-.275.064-.373.089a1.871,1.871,0,0,1-.2.042,3.283,3.283,0,0,1-2.881-1.377,10.867,10.867,0,0,1-1.756-3.181,11.154,11.154,0,0,1-.661-2.427c-.023-.206-.037-.425-.044-.657s-.008-.479,0-.744c.026-.749.135-1.134.324-1.155a.748.748,0,0,1,.428.171c.185.117.267.244.247.383a4.353,4.353,0,0,0-.04,1.384,10.281,10.281,0,0,0,1.619,4.438q1.532,2.371,3.19,2.19A3.49,3.49,0,0,0,42,31.806,7.4,7.4,0,0,0,42.52,28.3a4.723,4.723,0,0,0-.559-1.742,6.39,6.39,0,0,0-.806-1.126c-.279-.306-.418-.446-.415-.42a.769.769,0,0,1,.253-.559q.682-.008,1.562,1.3A5.026,5.026,0,0,1,43.466,27.836Zm-6.694-2.9a.37.37,0,0,1-.3.224c-.279.031-.432-.084-.461-.345a.437.437,0,0,1,.042-.237l.067-.144a.386.386,0,0,1,.316-.226q.419-.045.461.346a.4.4,0,0,1-.044.223Zm1.191-.472q-.39.043-.437-.375a.38.38,0,0,1,.165-.36c.042-.041.1-.09.169-.148s.151-.128.243-.21a.405.405,0,0,1,.208-.092.365.365,0,0,1,.45.374.375.375,0,0,1-.165.359,1.345,1.345,0,0,0-.332.269A.5.5,0,0,1,37.963,24.465Z"/>
        <path class="cls-2" d="M53.276,33.125a.437.437,0,0,1-.111.292.386.386,0,0,1-.246.184q-.081.008-3.036-1.662t-3.05-1.672c-.145.016-.211.323-.2.922q.025.858.037,1.328c.006.313,0,.506-.005.581a2.979,2.979,0,0,1-.459,1.675,2.8,2.8,0,0,1-.933-1.414,8.1,8.1,0,0,1-.593-2.174,9.066,9.066,0,0,1,.358-2.347A15.783,15.783,0,0,1,46.2,25.393q.87-1.79,1.827-1.893a2.937,2.937,0,0,1,2.187,1.016,3.41,3.41,0,0,1,1.235,1.927,2.132,2.132,0,0,1-.7,1.674,8.742,8.742,0,0,1-1.523,1.177q-.831.528-.821.609.039.365,2.423,1.551T53.276,33.125ZM45.945,30.76q-.155-1.4-.523-1.65-.064.8-.085,1.334a5.671,5.671,0,0,0,.007.818,3.3,3.3,0,0,0,.3,1.1,1.877,1.877,0,0,0,.241-.409A2.87,2.87,0,0,0,45.945,30.76ZM50.457,26.7a2.548,2.548,0,0,0-.734-1.463,1.832,1.832,0,0,0-1.575-.66q-.756.082-1.589,1.443a3.423,3.423,0,0,0-.714,1.84,2.166,2.166,0,0,0,.3.5c.108.161.2.3.27.415s.126.207.161.276l.58-.063a2.006,2.006,0,0,1,.306,0,2.224,2.224,0,0,0,.3,0,4.247,4.247,0,0,0,1.738-.586A1.717,1.717,0,0,0,50.457,26.7Z"/>
        <path class="cls-2" d="M59.165,22.307a9.892,9.892,0,0,1-.432,1.549,4.436,4.436,0,0,1-.579,1.443c-.2.022-.311-.089-.337-.332a5.559,5.559,0,0,1,.276-1.341.041.041,0,0,1-.016-.025v-.014a4.676,4.676,0,0,0-.584.774,5.2,5.2,0,0,0-.694,1.278c-.035.1-.186.211-.456.323L56,26l-.044-.037a.265.265,0,0,1-.075-.183q1.458-4.009,1.877-4.056c.315-.035.486.075.513.326a4.188,4.188,0,0,1-.478.872,2.728,2.728,0,0,0-.476,1.008c.136-.17.254-.321.353-.455a3.734,3.734,0,0,0,.24-.361c.021-.057.053-.135.1-.236s.1-.227.177-.381q.294-.55.537-.578C58.986,21.89,59.133,22.019,59.165,22.307Z"/>
      </g>
      <g>
        <path class="cls-1" d="M2.949,38.636a3.765,3.765,0,0,1-.128.956c-.03.131-.071.3-.121.506s-.112.444-.182.715c-.4,0-.613-.115-.638-.339a3.251,3.251,0,0,1,.142-.576,1.848,1.848,0,0,0,.135-.642l-.03-.271a.037.037,0,0,1-.017-.025L2.1,38.948c-.062-.074-.306.311-.733,1.159Q.73,41.322.528,41.346A.53.53,0,0,1,.4,41.333a.49.49,0,0,0-.131-.014l-.058-.034a.291.291,0,0,1-.06-.171,6.9,6.9,0,0,1,.107-.885,11.835,11.835,0,0,1,.284-1.411L.7,38.023q.122-.506.473-.544a.694.694,0,0,1,.15,0,.252.252,0,0,0,.071.156.388.388,0,0,1,.1.193,4.767,4.767,0,0,1-.131.547c-.047.16-.084.3-.112.415s-.047.212-.058.286l.017.026.041-.005c.017,0,.057-.056.118-.163q.36-.585.407-.645a.874.874,0,0,1,.612-.395q.217-.024.388.3A1.172,1.172,0,0,1,2.949,38.636Z"/>
        <path class="cls-1" d="M13.747,27.882q-.165.631-.325,1.469t-.343,1.908a3.036,3.036,0,0,1-.172.552,1.851,1.851,0,0,0-.169.578q-.7,6.072-2.32,6.248-.634.07-1.135-.885-.186-.458-.372-.909c-.124-.3-.253-.6-.386-.906q-.435-.976-.947-.921-.446.05-.787,1.042c-.1.3-.187.6-.278.9s-.181.6-.275.9q-.371.984-.9,1.041-.689.075-2.113-6.077l-.307-2.807c.218-.334.416-.51.6-.529q.191-.023.805,3.353.649,3.561,1.047,3.941a10.2,10.2,0,0,0,1.05-1.509q.779-1.232,1.157-1.273.743-.081,1.313.893a16.376,16.376,0,0,1,.816,1.836q.394,1,.719.96.608-.068,1.084-2.318l.243-1.528q.122-.763.253-1.543.209-1.347.446-2.295a8.687,8.687,0,0,1,.514-1.538A1.02,1.02,0,0,1,13.747,27.882Z"/>
        <path class="cls-1" d="M24.8,30.85a6.712,6.712,0,0,1-1.057,4.307A5.063,5.063,0,0,1,19.9,37.8l-.958.1a3.348,3.348,0,0,1-3.012-1.446,5.659,5.659,0,0,1-1.34-3.006,7.531,7.531,0,0,1,.23-2.143,10.228,10.228,0,0,1,1.027-2.965,2.789,2.789,0,0,1,2.017-1.655,1.724,1.724,0,0,1,.821.142,1.528,1.528,0,0,1,.749.6l.044.4a.188.188,0,0,0-.083.05.308.308,0,0,1-.164.058c-.715-.212-1.086-.318-1.113-.315q-1.269.14-1.96,2.427a7.422,7.422,0,0,0-.439,2.861q.489,4.452,4.428,4.021A3.842,3.842,0,0,0,23.18,34.85a5.613,5.613,0,0,0,.718-3.41,5.513,5.513,0,0,0-.79-2.358A2.078,2.078,0,0,0,21.067,27.9a2.426,2.426,0,0,0-.506.124.685.685,0,0,1,.665-.66,2.822,2.822,0,0,1,2.49,1.161A4.276,4.276,0,0,1,24.8,30.85Z"/>
        <path class="cls-1" d="M32.772,25.689a6.89,6.89,0,0,0-.863-.028,24.261,24.261,0,0,0-3.107.927q-2.977,1-3.131,1.463a.518.518,0,0,0-.026.262,2.853,2.853,0,0,0,.075.367,3.292,3.292,0,0,1,.076.381.684.684,0,0,1-.121.519,9.222,9.222,0,0,0-.531-.857,3.916,3.916,0,0,1-.383-.627c-.053-.5.5-.979,1.671-1.453a7.936,7.936,0,0,1,2-.6.61.61,0,0,1,.179.015.7.7,0,0,0,.206.011c-.036,0,.035-.026.216-.092s.471-.165.874-.3a9.342,9.342,0,0,1,1.953-.5,2.2,2.2,0,0,1,.883.2Zm-.5,4.943q-.633.205-1.566.533t-2.209.781a5.686,5.686,0,0,0-.054.88c0,.346.021.74.061,1.182q.05.567.109,1.121t.11,1.121c-.045.178-.267.3-.67.374a4.326,4.326,0,0,1-.793-1.388A1.114,1.114,0,0,1,27.279,35a1.161,1.161,0,0,0,.011-.274l.338-.038q-.03-2.139-.046-2.288a.168.168,0,0,0-.149-.168,1.7,1.7,0,0,0-.268-.018,2.109,2.109,0,0,1-.989-.056c-.566-.1-.864-.279-.891-.531-.009-.081.076-.226.253-.437s.3-.32.386-.329c.145-.015.306.085.485.3a.684.684,0,0,0,.643.271q.351-.039.469-1.7.13-1.682.468-1.718t.4.434c0,.036,0,.143-.006.322s-.016.427-.027.747-.015.6-.012.827.012.42.028.564a.581.581,0,0,0,.405.2c.035,0,.189-.032.461-.084s.667-.13,1.183-.233.911-.181,1.182-.238.421-.087.448-.09C32.188,30.451,32.262,30.506,32.276,30.632Z"/>
        <path class="cls-1" d="M43.466,27.836a8.108,8.108,0,0,1-.452,3.476,5.463,5.463,0,0,1-2.183,3.121,4.01,4.01,0,0,0-.521.371,1.527,1.527,0,0,1-.448.268,4.944,4.944,0,0,0-.544.141c-.151.035-.275.064-.373.089a1.871,1.871,0,0,1-.2.042,3.283,3.283,0,0,1-2.881-1.377,10.867,10.867,0,0,1-1.756-3.181,11.154,11.154,0,0,1-.661-2.427c-.023-.206-.037-.425-.044-.657s-.008-.479,0-.744c.026-.749.135-1.134.324-1.155a.748.748,0,0,1,.428.171c.185.117.267.244.247.383a4.353,4.353,0,0,0-.04,1.384,10.281,10.281,0,0,0,1.619,4.438q1.532,2.371,3.19,2.19A3.49,3.49,0,0,0,42,31.806,7.4,7.4,0,0,0,42.52,28.3a4.723,4.723,0,0,0-.559-1.742,6.39,6.39,0,0,0-.806-1.126c-.279-.306-.418-.446-.415-.42a.769.769,0,0,1,.253-.559q.682-.008,1.562,1.3A5.026,5.026,0,0,1,43.466,27.836Zm-6.694-2.9a.37.37,0,0,1-.3.224c-.279.031-.432-.084-.461-.345a.437.437,0,0,1,.042-.237l.067-.144a.386.386,0,0,1,.316-.226q.419-.045.461.346a.4.4,0,0,1-.044.223Zm1.191-.472q-.39.043-.437-.375a.38.38,0,0,1,.165-.36c.042-.041.1-.09.169-.148s.151-.128.243-.21a.405.405,0,0,1,.208-.092.365.365,0,0,1,.45.374.375.375,0,0,1-.165.359,1.345,1.345,0,0,0-.332.269A.5.5,0,0,1,37.963,24.465Z"/>
        <path class="cls-1" d="M53.276,33.125a.437.437,0,0,1-.111.292.386.386,0,0,1-.246.184q-.081.008-3.036-1.662t-3.05-1.672c-.145.016-.211.323-.2.922q.025.858.037,1.328c.006.313,0,.506-.005.581a2.979,2.979,0,0,1-.459,1.675,2.8,2.8,0,0,1-.933-1.414,8.1,8.1,0,0,1-.593-2.174,9.066,9.066,0,0,1,.358-2.347A15.783,15.783,0,0,1,46.2,25.393q.87-1.79,1.827-1.893a2.937,2.937,0,0,1,2.187,1.016,3.41,3.41,0,0,1,1.235,1.927,2.132,2.132,0,0,1-.7,1.674,8.742,8.742,0,0,1-1.523,1.177q-.831.528-.821.609.039.365,2.423,1.551T53.276,33.125ZM45.945,30.76q-.155-1.4-.523-1.65-.064.8-.085,1.334a5.671,5.671,0,0,0,.007.818,3.3,3.3,0,0,0,.3,1.1,1.877,1.877,0,0,0,.241-.409A2.87,2.87,0,0,0,45.945,30.76ZM50.457,26.7a2.548,2.548,0,0,0-.734-1.463,1.832,1.832,0,0,0-1.575-.66q-.756.082-1.589,1.443a3.423,3.423,0,0,0-.714,1.84,2.166,2.166,0,0,0,.3.5c.108.161.2.3.27.415s.126.207.161.276l.58-.063a2.006,2.006,0,0,1,.306,0,2.224,2.224,0,0,0,.3,0,4.247,4.247,0,0,0,1.738-.586A1.717,1.717,0,0,0,50.457,26.7Z"/>
        <path class="cls-1" d="M59.165,22.307a9.892,9.892,0,0,1-.432,1.549,4.436,4.436,0,0,1-.579,1.443c-.2.022-.311-.089-.337-.332a5.559,5.559,0,0,1,.276-1.341.041.041,0,0,1-.016-.025v-.014a4.676,4.676,0,0,0-.584.774,5.2,5.2,0,0,0-.694,1.278c-.035.1-.186.211-.456.323L56,26l-.044-.037a.265.265,0,0,1-.075-.183q1.458-4.009,1.877-4.056c.315-.035.486.075.513.326a4.188,4.188,0,0,1-.478.872,2.728,2.728,0,0,0-.476,1.008c.136-.17.254-.321.353-.455a3.734,3.734,0,0,0,.24-.361c.021-.057.053-.135.1-.236s.1-.227.177-.381q.294-.55.537-.578C58.986,21.89,59.133,22.019,59.165,22.307Z"/>
      </g>
      <g>
        <path class="cls-1" d="M70.571,30.812a2.485,2.485,0,0,1-1.241,1.044,5.431,5.431,0,0,1-1.839.611,2.027,2.027,0,0,1-1.836-.759,2.953,2.953,0,0,1-.756-1.656,3.272,3.272,0,0,1,.483-1.895,2.192,2.192,0,0,1,1.66-1.308,1.713,1.713,0,0,1,1.072.33q.618.381.654.709.061.556-.682,1.137c-.11.08-.27.183-.478.308s-.464.273-.77.442a4.15,4.15,0,0,0-.694.435q.112,1.5,1.819,1.31a5.9,5.9,0,0,0,1.992-.615,1.224,1.224,0,0,1,.233-.1Zm-2.74-2.719a.542.542,0,0,0-.158-.385.859.859,0,0,0-.542-.05,1.413,1.413,0,0,0-.65.25.779.779,0,0,0-.368.745q.047.4.513.353a1.851,1.851,0,0,0,.791-.254A.691.691,0,0,0,67.831,28.093Z"/>
        <path class="cls-1" d="M77.518,30.345c-.035.141-.233.291-.59.449a2.79,2.79,0,0,1-.567.2q-.632.069-1.382-1.295c-.142-.282-.28-.562-.412-.837s-.265-.555-.4-.839l-.253.028a6.374,6.374,0,0,0-.663,1.071,8.216,8.216,0,0,1-.685,1.11,1.463,1.463,0,0,1-.9.611,2.634,2.634,0,0,1-.4-1.133c.017.084.015.023-.008-.184s-.061-.562-.117-1.068a13.338,13.338,0,0,0-.313-1.917,2.6,2.6,0,0,0-.161-.538.549.549,0,0,1,.089-.3c.068-.123.14-.188.216-.2q.644-.07.8,1.384c.008.084.018.187.027.31s.019.269.028.438.021.3.034.419.023.21.03.278q.106.974.461.934.494-.054,1.331-1.515.863-1.463.825-1.458.379-.042.617,1.083a16.135,16.135,0,0,0,.535,2.078,1.386,1.386,0,0,0,1.49.988A.863.863,0,0,0,77.518,30.345Z"/>
        <path class="cls-1" d="M82.8,25.9a13.565,13.565,0,0,1-1.358.455q-.841.259-.912.548c-.005.035-.017.192-.038.471s-.052.69-.094,1.232a1.409,1.409,0,0,0,0,.173c0,.063.008.137.018.221l.027.253a1.207,1.207,0,0,1,.03.151c0,.042.009.081.012.114a1.585,1.585,0,0,1-.44,1.468l-.278.03c-.111-.073-.169-.139-.176-.2q-.019-.177.015-1.095t.105-2.6c-.225-.018-.448-.041-.673-.067s-.449-.049-.672-.067q-1.077-.138-1.124-.568a.366.366,0,0,1,.026-.169,1.19,1.19,0,0,1,.089-.189.556.556,0,0,1,.134-.162.315.315,0,0,1,.159-.075,1.794,1.794,0,0,1,.626.226,1.748,1.748,0,0,0,.916.194c.405-.045.592-.21.561-.5l-.3-2.73c-.006-.059-.026-.166-.06-.319s-.081-.352-.142-.593-.108-.461-.14-.636-.053-.314-.065-.416q-.144-1.314.324-1.365t.558.655a2.2,2.2,0,0,1,0,.383c0,.069.042.524.13,1.368s.221,2.077.4,3.7q.1.246.261.279l.228-.025c.26-.029.545-.055.854-.081S82.445,25.926,82.8,25.9Z"/>
        <path class="cls-1" d="M90.767,25.4a1.06,1.06,0,0,1-.216.369q-.279.376-.332.472-.142.45-.287.888c-.095.292-.192.588-.286.889q-.59,1.625-1.095,1.68-.291.032-.846-.828t-.783-.848q-.456.049-.839,1.217-.4,1.157-.841,1.206-.569.061-1.334-2.489-.284-.968-.447-1.634a8.386,8.386,0,0,1-.2-1.033.486.486,0,0,1,.113-.364.52.52,0,0,1,.374-.2q.392-.044.863,1.926t.723,1.929c.11-.012.315-.289.612-.834s.625-.836.979-.875q.393-.042.983.57t.756.583c.159-.018.316-.27.467-.755l.437-1.378c.2-.5.441-.765.719-.795a.508.508,0,0,1,.291.09C90.694,25.254,90.758,25.327,90.767,25.4Z"/>
        <path class="cls-1" d="M92.392,21.092a.224.224,0,0,1-.016.143.152.152,0,0,0-.021.1.237.237,0,0,0-.09.055.29.29,0,0,1-.154.062c-.126.013-.323-.11-.589-.37s-.393-.427-.4-.494a.482.482,0,0,1,.147-.3c.121-.132.212-.2.27-.209.186-.02.382.134.588.46A1.608,1.608,0,0,1,92.392,21.092Zm.474,3.748c.016.143.025.323.028.541s0,.471-.013.762-.016.544-.014.756.012.392.028.534c.006.06.016.133.03.221s.032.191.054.307c.048.226.08.388.09.489a.893.893,0,0,1-.443.97Q92.268,29.293,92,28.4a4.931,4.931,0,0,1-.188-.9,9.066,9.066,0,0,1,.1-1.571q.171-1.464.5-1.5a.392.392,0,0,1,.278.136A.471.471,0,0,1,92.866,24.84Z"/>
        <path class="cls-1" d="M100.465,27.41a6.084,6.084,0,0,0-.658.354q-.451.267-1.158.7a3.763,3.763,0,0,1-1.638.576,2.558,2.558,0,0,1-2.156-.646,3.145,3.145,0,0,1-.9-1.987,2.471,2.471,0,0,1,1.014-2.081,3.667,3.667,0,0,1,1.973-1.01,1.679,1.679,0,0,1,1.778,1.046.244.244,0,0,1-.211.177,3.538,3.538,0,0,0-1.567-.289,2.286,2.286,0,0,0-1.5.7,1.916,1.916,0,0,0-.48,1.574,2.06,2.06,0,0,0,.581,1.216,1.529,1.529,0,0,0,1.309.508c.041,0,.224-.011.547-.021l.382-.023c.093,0,.156-.01.19-.014a7.234,7.234,0,0,0,1.173-.384A6.005,6.005,0,0,1,100.465,27.41Z"/>
        <path class="cls-1" d="M106.727,27.825c-.157.213-.3.327-.436.342q-.683.073-1.176-.805a5.584,5.584,0,0,1-.567-1.678,3.855,3.855,0,0,1-.132-.971.249.249,0,0,0-.168-.02q-.191.021-1.108,1.682a5.2,5.2,0,0,1-1.367,1.89,1.461,1.461,0,0,1-.657-1.093c-.021-.116-.08-.46-.176-1.029s-.236-1.377-.418-2.423-.308-1.845-.4-2.393-.139-.857-.145-.924a5.222,5.222,0,0,1-.026-.638q0-.37.04-.861c.073-.964.263-1.461.566-1.494a.352.352,0,0,1,.263.13.46.46,0,0,1,.164.27c0-.042-.059.279-.163.965a8.023,8.023,0,0,0-.049,1.886q.063.582.525,3.038a12.864,12.864,0,0,0,.761,3.089l.176-.019q.789-1.327,1.636-2.643t1.75-2.653a.3.3,0,0,1,.124.2,5.776,5.776,0,0,1-.3.57,3.415,3.415,0,0,0-.4,1.118,8.261,8.261,0,0,0,.086,1.487,5.384,5.384,0,0,0,.486,1.751A2.535,2.535,0,0,0,106.727,27.825Z"/>
        <path class="cls-1" d="M109.66,26.812a.432.432,0,0,1-.359.334q-1.455.159-2.355-2.455a19.469,19.469,0,0,1-.858-4.216l-.067-.62c0-.109-.008-.19-.014-.241s-.008-.072-.007-.063-.01-.05-.032-.176-.039-.243-.052-.353q-.195-1.782.5-1.858c.075-.008.172.054.288.187a.663.663,0,0,1,.188.312c0,.033,0,.139,0,.319s0,.435-.011.768-.012.578-.014.756,0,.282,0,.307a23.193,23.193,0,0,0,.878,4.164q.846,2.813,1.679,2.72C109.475,26.718,109.552,26.756,109.66,26.812Z"/>
        <path class="cls-1" d="M115.7,25.87a2.493,2.493,0,0,1-1.242,1.044,5.417,5.417,0,0,1-1.839.611,2.026,2.026,0,0,1-1.835-.758,2.954,2.954,0,0,1-.757-1.657,3.28,3.28,0,0,1,.483-1.895,2.193,2.193,0,0,1,1.66-1.308,1.718,1.718,0,0,1,1.073.33q.617.381.653.709.061.556-.681,1.137c-.111.081-.271.183-.478.307s-.465.274-.77.443a4.128,4.128,0,0,0-.695.435q.112,1.5,1.819,1.31a5.878,5.878,0,0,0,1.992-.616,1.146,1.146,0,0,1,.233-.1Zm-2.741-2.719a.541.541,0,0,0-.157-.385.863.863,0,0,0-.543-.05,1.413,1.413,0,0,0-.65.25.776.776,0,0,0-.367.744c.03.269.2.388.512.353a1.864,1.864,0,0,0,.791-.252A.693.693,0,0,0,112.956,23.151Z"/>
        <path class="cls-1" d="M122.643,25.4c-.035.14-.233.29-.59.449a2.858,2.858,0,0,1-.567.2q-.632.069-1.382-1.295c-.142-.282-.279-.562-.412-.837s-.265-.555-.4-.839l-.253.028a6.381,6.381,0,0,0-.664,1.07,8.3,8.3,0,0,1-.684,1.111,1.466,1.466,0,0,1-.905.611,2.629,2.629,0,0,1-.405-1.133c.017.084.015.022-.008-.185s-.061-.562-.117-1.067a13.338,13.338,0,0,0-.313-1.917,2.6,2.6,0,0,0-.161-.538.547.547,0,0,1,.089-.3c.068-.122.14-.188.216-.2q.645-.07.8,1.384c.008.084.018.187.027.31s.019.268.028.438.021.3.035.419.022.211.03.278q.106.974.46.935.494-.055,1.331-1.516.863-1.463.825-1.458.379-.042.617,1.083a16.315,16.315,0,0,0,.535,2.078,1.388,1.388,0,0,0,1.491.988A.862.862,0,0,0,122.643,25.4Z"/>
        <path class="cls-1" d="M124.735,27.924a.744.744,0,0,1-.487.335.693.693,0,0,1-.529-.159.648.648,0,0,1-.266-.432.631.631,0,0,1,.136-.4.559.559,0,0,1,.42-.257.473.473,0,0,1,.273.047.832.832,0,0,1,.224.174.893.893,0,0,1,.162.251,1.048,1.048,0,0,1,.076.292A.446.446,0,0,1,124.735,27.924Zm.427-11.175a18.9,18.9,0,0,1-.007,4.26q-.12.9-.232,1.791t-.232,1.8c-.031.1-.221.234-.568.408l-.082-.746q-.006-.051.071-.749.072-.75.074-1.083.025-.578.016-1.652t-.056-2.68a10.784,10.784,0,0,1-.246-1.2q-.111-1,.395-1.054l.253-.028Q125.054,15.763,125.162,16.749Z"/>
      </g>
    </g>
  </g>
</svg>
