<svg xmlns="http://www.w3.org/2000/svg" viewBox="0 0 21.266 26.25">
  <defs>
    <style>
      .cls-1 {
        fill: #fff;
      }

      .cls-2, .cls-3, .cls-6 {
        fill: none;
      }

      .cls-2 {
        stroke: #fff;
      }

      .cls-3, .cls-6 {
        stroke: #3d5e57;
        stroke-miterlimit: 10;
      }

      .cls-3 {
        stroke-width: 0.268px;
      }

      .cls-4 {
        fill: #c6c8c8;
      }

      .cls-5 {
        fill: #3d5e57;
      }

      .cls-6 {
        stroke-width: 0.535px;
      }
    </style>
  </defs>
  <g id="Ebene_2" data-name="Ebene 2">
    <g id="Ebene_1-2" data-name="Ebene 1">
      <rect class="cls-1" x="7.515" y="1.917" width="6.236" height="7.803"/>
      <rect class="cls-2" x="7.515" y="1.917" width="6.236" height="7.803"/>
      <path class="cls-1" d="M9.361,1.348a1.344,1.344,0,0,0-1.215.77,1.343,1.343,0,0,0-2.283.738,1.343,1.343,0,0,0-1.889,1.23c0,.015,0,.031,0,.046A1.345,1.345,0,0,0,2.64,5.477a1.327,1.327,0,0,0,.143.6,1.01,1.01,0,0,0-.394,1.572,1.191,1.191,0,0,0-.546,1.834,4.129,4.129,0,0,0,2.586,1.665c1.45.315,2.126.894,2.126,1.885v2.3H8.8v-.9H8.763a3.078,3.078,0,0,1,.039-.491V11.463a1.17,1.17,0,0,1,1.208-1.208H14.4c.935,0,2.52-1.216,2.52-2.053a.858.858,0,0,0-.43-.816,1.023,1.023,0,0,0,.073-.376,1.012,1.012,0,0,0-.622-.933,1.327,1.327,0,0,0,.143-.6,1.345,1.345,0,0,0-1.336-1.345c0-.015,0-.031,0-.046A1.346,1.346,0,0,0,13.4,2.74a1.328,1.328,0,0,0-.543.116,1.343,1.343,0,0,0-2.284-.738,1.344,1.344,0,0,0-1.215-.77"/>
      <path class="cls-3" d="M9.361,1.348a1.344,1.344,0,0,0-1.215.77,1.343,1.343,0,0,0-2.283.738,1.343,1.343,0,0,0-1.889,1.23c0,.015,0,.031,0,.046A1.345,1.345,0,0,0,2.64,5.477a1.327,1.327,0,0,0,.143.6,1.01,1.01,0,0,0-.394,1.572,1.191,1.191,0,0,0-.546,1.834,4.129,4.129,0,0,0,2.586,1.665c1.45.315,2.126.894,2.126,1.885v2.3H8.8v-.9H8.763a3.078,3.078,0,0,1,.039-.491V11.463a1.17,1.17,0,0,1,1.208-1.208H14.4c.935,0,2.52-1.216,2.52-2.053a.858.858,0,0,0-.43-.816,1.023,1.023,0,0,0,.073-.376,1.012,1.012,0,0,0-.622-.933,1.327,1.327,0,0,0,.143-.6,1.345,1.345,0,0,0-1.336-1.345c0-.015,0-.031,0-.046A1.346,1.346,0,0,0,13.4,2.74a1.328,1.328,0,0,0-.543.116,1.343,1.343,0,0,0-2.284-.738,1.344,1.344,0,0,0-1.215-.77"/>
      <path class="cls-4" d="M8.8,13.939a3.078,3.078,0,0,0-.039.491H8.8v-.491"/>
      <path class="cls-5" d="M6.354,6.853a.986.986,0,1,0,.985.985.986.986,0,0,0-.985-.985m0,2.215a1.23,1.23,0,1,1,1.23-1.23,1.232,1.232,0,0,1-1.23,1.23"/>
      <path class="cls-5" d="M6.159,10.471h.39c.016-.237.091-.72.419-.811a1.936,1.936,0,0,0,.239-.1c.3-.168.691.121.87.277l.276-.276c-.155-.179-.444-.573-.278-.868a1.9,1.9,0,0,0,.1-.242c.092-.327.575-.4.811-.419V7.644c-.236-.017-.719-.092-.811-.419a1.9,1.9,0,0,0-.1-.242c-.166-.295.123-.689.278-.868L8.077,5.84c-.179.155-.574.444-.87.276a1.89,1.89,0,0,0-.238-.1c-.329-.09-.4-.575-.42-.811h-.39c-.017.236-.092.72-.42.81a2.059,2.059,0,0,0-.238.1c-.3.169-.691-.121-.871-.276l-.275.275c.155.179.445.575.276.871a1.877,1.877,0,0,0-.1.237c-.09.329-.575.4-.811.421v.39c.236.016.721.091.811.42a1.892,1.892,0,0,0,.1.24c.165.3-.124.689-.278.868l.275.276c.179-.156.574-.445.871-.277a1.973,1.973,0,0,0,.237.1c.329.089.4.574.421.811m.507.244H6.041a.122.122,0,0,1-.122-.122c0-.256-.078-.654-.247-.7l-.008,0a2.4,2.4,0,0,1-.272-.113l-.01,0c-.15-.089-.488.138-.669.318a.124.124,0,0,1-.172,0L4.1,9.652a.122.122,0,0,1,0-.173c.181-.181.407-.518.319-.668L4.41,8.8a2.119,2.119,0,0,1-.11-.268l0-.008c-.044-.168-.442-.247-.7-.247h0a.123.123,0,0,1-.122-.122V7.526A.122.122,0,0,1,3.6,7.4c.256,0,.654-.078.7-.247l0-.008a2.119,2.119,0,0,1,.113-.275l0-.008c.088-.15-.138-.487-.319-.668a.121.121,0,0,1,0-.172l.442-.442a.12.12,0,0,1,.086-.036.122.122,0,0,1,.086.036c.181.181.518.407.668.319l.008,0a2.207,2.207,0,0,1,.271-.112l.012,0c.169-.044.247-.442.247-.7a.122.122,0,0,1,.122-.122h.625a.122.122,0,0,1,.122.122c0,.256.079.654.247.7l.008,0a2.074,2.074,0,0,1,.272.112l.011.006c.15.088.487-.139.668-.319a.122.122,0,0,1,.173,0l.441.442a.121.121,0,0,1,0,.172c-.18.181-.406.518-.318.668L8.3,6.88a2.239,2.239,0,0,1,.109.263l0,.014c.044.168.442.247.7.247a.122.122,0,0,1,.122.122v.625a.122.122,0,0,1-.122.122c-.256,0-.654.079-.7.247l0,.014A2.239,2.239,0,0,1,8.3,8.8l-.007.014c-.088.15.138.487.319.668a.124.124,0,0,1,0,.173l-.442.441a.122.122,0,0,1-.173,0c-.181-.18-.518-.407-.668-.318l-.012.006a2.153,2.153,0,0,1-.266.11l-.013,0c-.168.044-.247.442-.247.7a.122.122,0,0,1-.122.122"/>
      <path class="cls-5" d="M9.873,3.126A1.195,1.195,0,1,0,11.067,4.32,1.2,1.2,0,0,0,9.873,3.126m0,2.633A1.439,1.439,0,1,1,11.312,4.32,1.441,1.441,0,0,1,9.873,5.759"/>
      <path class="cls-5" d="M9.873,3.887a.434.434,0,1,0,.433.433.433.433,0,0,0-.433-.433M9.873,5a.678.678,0,1,1,.678-.678A.679.679,0,0,1,9.873,5"/>
      <path class="cls-5" d="M9.873,3.126A.122.122,0,0,1,9.751,3V2.785a.122.122,0,0,1,.244,0V3a.122.122,0,0,1-.122.122"/>
      <path class="cls-5" d="M8.942,3.511a.12.12,0,0,1-.086-.036L8.7,3.321a.122.122,0,0,1,.173-.173l.154.154a.122.122,0,0,1,0,.173.12.12,0,0,1-.086.036"/>
      <path class="cls-5" d="M8.557,4.442H8.338a.122.122,0,0,1,0-.244h.219a.122.122,0,0,1,0,.244"/>
      <path class="cls-5" d="M8.788,5.528A.12.12,0,0,1,8.7,5.492a.122.122,0,0,1,0-.173l.154-.154a.122.122,0,0,1,.173,0,.124.124,0,0,1,0,.173l-.155.154a.12.12,0,0,1-.086.036"/>
      <path class="cls-5" d="M9.873,5.977a.122.122,0,0,1-.122-.122V5.636a.122.122,0,0,1,.244,0v.219a.122.122,0,0,1-.122.122"/>
      <path class="cls-5" d="M10.959,5.528a.12.12,0,0,1-.086-.036l-.155-.154a.122.122,0,0,1,.173-.173l.154.154a.122.122,0,0,1,0,.173.12.12,0,0,1-.086.036"/>
      <path class="cls-5" d="M11.408,4.442h-.219a.122.122,0,0,1,0-.244h.219a.122.122,0,0,1,0,.244"/>
      <path class="cls-5" d="M10.8,3.511a.12.12,0,0,1-.086-.036.122.122,0,0,1,0-.173l.154-.154a.122.122,0,1,1,.173.173l-.155.154a.121.121,0,0,1-.086.036"/>
      <path class="cls-5" d="M9.369,3.226a.122.122,0,0,1-.113-.075l-.084-.2a.123.123,0,0,1,.067-.16.122.122,0,0,1,.159.066l.084.2a.123.123,0,0,1-.066.16.131.131,0,0,1-.047.009"/>
      <path class="cls-5" d="M8.657,3.938a.131.131,0,0,1-.047-.009l-.2-.084A.122.122,0,1,1,8.5,3.619l.2.084a.122.122,0,0,1-.047.235"/>
      <path class="cls-5" d="M8.455,5.03A.122.122,0,0,1,8.408,4.8l.2-.084a.123.123,0,0,1,.16.067.122.122,0,0,1-.066.159l-.2.084a.131.131,0,0,1-.047.009"/>
      <path class="cls-5" d="M9.286,5.86a.131.131,0,0,1-.047-.009.123.123,0,0,1-.066-.16l.084-.2a.122.122,0,0,1,.159-.066.123.123,0,0,1,.067.16l-.084.2a.122.122,0,0,1-.113.075"/>
      <path class="cls-5" d="M10.461,5.86a.122.122,0,0,1-.113-.075l-.084-.2a.123.123,0,0,1,.067-.16.122.122,0,0,1,.159.066l.084.2a.123.123,0,0,1-.066.16.131.131,0,0,1-.047.009"/>
      <path class="cls-5" d="M11.292,5.03a.131.131,0,0,1-.047-.009l-.2-.084a.122.122,0,0,1,.094-.226l.2.084a.122.122,0,0,1-.047.235"/>
      <path class="cls-5" d="M11.09,3.938a.122.122,0,0,1-.047-.235l.2-.084a.122.122,0,1,1,.094.226l-.2.084a.131.131,0,0,1-.047.009"/>
      <path class="cls-5" d="M10.377,3.226a.131.131,0,0,1-.047-.009.123.123,0,0,1-.066-.16l.084-.2a.122.122,0,1,1,.225.094l-.083.2a.122.122,0,0,1-.113.076"/>
      <path class="cls-5" d="M10.6,7.611a.495.495,0,1,0,.494.494.494.494,0,0,0-.494-.494m0,1.233a.739.739,0,1,1,.739-.739.74.74,0,0,1-.739.739"/>
      <path class="cls-5" d="M13.4,4.808a.495.495,0,1,0,.494.494.494.494,0,0,0-.494-.494m0,1.233a.739.739,0,1,1,.739-.739.74.74,0,0,1-.739.739"/>
      <path class="cls-5" d="M15.413,6.821a.495.495,0,1,0,.494.494.494.494,0,0,0-.494-.494m0,1.233a.739.739,0,1,1,.739-.739.74.74,0,0,1-.739.739"/>
      <path class="cls-5" d="M11.034,7.791a.12.12,0,0,1-.086-.036.122.122,0,0,1,0-.173l1.93-1.93a.122.122,0,0,1,.173,0,.124.124,0,0,1,0,.173L11.12,7.755a.12.12,0,0,1-.086.036"/>
      <path class="cls-5" d="M14.977,7a.12.12,0,0,1-.086-.036L13.749,5.825a.124.124,0,0,1,0-.173.122.122,0,0,1,.173,0l1.141,1.141a.122.122,0,0,1,0,.173A.12.12,0,0,1,14.977,7"/>
      <path class="cls-5" d="M12.283,9.65H13.2V8.735h-.915Zm1.037.244H12.16a.122.122,0,0,1-.122-.122V8.612a.122.122,0,0,1,.122-.122h1.16a.122.122,0,0,1,.122.122v1.16a.122.122,0,0,1-.122.122"/>
      <path class="cls-5" d="M15.269,9.58H14.045a.122.122,0,0,1,0-.244h1.224a.122.122,0,0,1,0,.244"/>
      <path class="cls-5" d="M15.736,9.04H14.045a.122.122,0,0,1,0-.244h1.691a.122.122,0,0,1,0,.244"/>
      <path class="cls-5" d="M6.783,3.121A.122.122,0,0,1,6.661,3V2.572a.122.122,0,1,1,.244,0V3a.122.122,0,0,1-.122.122"/>
      <path class="cls-5" d="M6.364,3.54H5.937a.122.122,0,0,1,0-.244h.427a.122.122,0,0,1,0,.244"/>
      <path class="cls-5" d="M6.783,4.386a.122.122,0,0,1-.122-.122V3.837a.122.122,0,0,1,.244,0v.427a.122.122,0,0,1-.122.122"/>
      <path class="cls-5" d="M7.629,3.54H7.2a.122.122,0,0,1,0-.244h.427a.122.122,0,1,1,0,.244"/>
      <path class="cls-1" d="M19.741,25.982H13.055a.119.119,0,0,1-.105-.062L11.066,22.6a.122.122,0,0,1,.106-.183h5.663a1.476,1.476,0,0,0,1.488-1.631v-3.1a.123.123,0,0,1,.124-.122h1.94A.35.35,0,0,0,20.7,17.4a.475.475,0,0,0-.017-.466,14.067,14.067,0,0,0-.91-1.3,7.021,7.021,0,0,1-1.451-2.4V9.418a8.906,8.906,0,1,0-17.811,0v6.516a.122.122,0,1,1-.244,0V9.418a9.15,9.15,0,1,1,18.3,0V13.23a7.707,7.707,0,0,0,1.4,2.257,14.158,14.158,0,0,1,.931,1.327.716.716,0,0,1,.011.707.6.6,0,0,1-.524.284H18.568v2.979a1.718,1.718,0,0,1-1.733,1.875H11.382l1.745,3.08h6.614a.122.122,0,1,1,0,.243"/>
      <path class="cls-6" d="M19.741,25.982H13.055a.119.119,0,0,1-.105-.062L11.066,22.6a.122.122,0,0,1,.106-.183h5.663a1.476,1.476,0,0,0,1.488-1.631v-3.1a.123.123,0,0,1,.124-.122h1.94A.35.35,0,0,0,20.7,17.4a.475.475,0,0,0-.017-.466,14.067,14.067,0,0,0-.91-1.3,7.021,7.021,0,0,1-1.451-2.4V9.418a8.906,8.906,0,1,0-17.811,0v6.516a.122.122,0,1,1-.244,0V9.418a9.15,9.15,0,1,1,18.3,0V13.23a7.707,7.707,0,0,0,1.4,2.257,14.158,14.158,0,0,1,.931,1.327.716.716,0,0,1,.011.707.6.6,0,0,1-.524.284H18.568v2.979a1.718,1.718,0,0,1-1.733,1.875H11.382l1.745,3.08h6.614a.122.122,0,1,1,0,.243Z"/>
      <path class="cls-5" d="M16,11.464a.688.688,0,1,0,.687.688A.688.688,0,0,0,16,11.464m0,1.619a.932.932,0,1,1,.932-.931.932.932,0,0,1-.932.931"/>
      <path class="cls-3" d="M16,11.464a.688.688,0,1,0,.687.688A.688.688,0,0,0,16,11.464Zm0,1.619a.932.932,0,1,1,.932-.931A.932.932,0,0,1,16,13.083Z"/>
    </g>
  </g>
</svg>
