<svg xmlns="http://www.w3.org/2000/svg" viewBox="0 0 228.978 75.671">
  <defs>
    <style>
      .cls-1 {
        fill: #44484d;
      }
    </style>
  </defs>
  <g id="Ebene_2" data-name="Ebene 2">
    <g id="Ebene_1-2" data-name="Ebene 1">
      <path class="cls-1" d="M41.949,24.756a4.717,4.717,0,0,1-1.588,3.664,14.313,14.313,0,0,1-1.618,1.465,15.94,15.94,0,0,1-2.051,1.349,9.274,9.274,0,0,1-2.979,1.216,6.273,6.273,0,0,1-5.34-1.758,7.359,7.359,0,0,1-2.216-4.632,14.4,14.4,0,0,1,.329-3.621,18.381,18.381,0,0,1,.525-2.471,12.986,12.986,0,0,1,1.9-2.95q.428-.375.833-.724t.81-.721a10.161,10.161,0,0,1,1.456-1.027,5.165,5.165,0,0,1,1.871-.861q.948-.1.993.313a2.07,2.07,0,0,1-.412.936,10.858,10.858,0,0,0-5.574,4.43,9.021,9.021,0,0,0-1.347,5.865,6.962,6.962,0,0,0,1.956,4.4,5.416,5.416,0,0,0,4.627,1.438,9.463,9.463,0,0,0,4.019-1.962q2.82-2.017,2.625-3.8-.159-1.458-6.332-.782a.526.526,0,0,0-.19.079c-.08.048-.164.1-.252.157s-.175.109-.263.158a.609.609,0,0,1-.2.08,1.306,1.306,0,0,1-.476-.076,1.369,1.369,0,0,0-.523-.072l-.069-.626a4.093,4.093,0,0,1,.292-.969q1.288.022,3.73-.128,1.208-.084,2.1-.124t1.508-.014a1.731,1.731,0,0,1,1.226.511A1.96,1.96,0,0,1,41.949,24.756Z"/>
      <path class="cls-1" d="M53.632,28.159a4.564,4.564,0,0,1-2.272,1.913,9.877,9.877,0,0,1-3.366,1.118A3.711,3.711,0,0,1,44.635,29.8a5.413,5.413,0,0,1-1.387-3.035,6.03,6.03,0,0,1,.885-3.47,4.013,4.013,0,0,1,3.04-2.395,3.135,3.135,0,0,1,1.963.605q1.131.7,1.2,1.3.112,1.019-1.247,2.081-.3.222-.876.565t-1.409.811a7.8,7.8,0,0,0-1.272.8q.207,2.74,3.33,2.4A10.793,10.793,0,0,0,52.5,28.329a2.269,2.269,0,0,1,.424-.187ZM48.618,23.18a1,1,0,0,0-.288-.707,1.578,1.578,0,0,0-.994-.09,2.583,2.583,0,0,0-1.192.459,1.421,1.421,0,0,0-.67,1.362q.081.739.937.646a3.4,3.4,0,0,0,1.449-.463A1.266,1.266,0,0,0,48.618,23.18Z"/>
      <path class="cls-1" d="M74.259,26.808a3.574,3.574,0,0,1-1.33.895,5.8,5.8,0,0,1-1.781.617,2.3,2.3,0,0,1-2.129-.843,9.918,9.918,0,0,1-1.031-1.924q-.463-1.026-.856-.983-.347.037-1.012,1.235-.471.825-.819,1.391a8.765,8.765,0,0,1-.574.847,3.27,3.27,0,0,1-2.056,1.327,1.26,1.26,0,0,1-1.345-.743l-.276-.813c-.093-.271-.185-.55-.279-.837q-.257-.838-.858-.773-.462.051-1.552,1.855-1.116,1.784-1.717,1.85a.822.822,0,0,1-.234,0,3.626,3.626,0,0,1-1.169-1.7q-.331-1.323-.577-2.7t-.4-2.836q-.307-2.8.94-3.172a7.864,7.864,0,0,1,.709,3.06l.165,1.505q.341,3.1,1.127,3.014t1.763-1.855q.951-1.788,1.552-1.855.717-.078,1.341,2.2.671,2.27,1.48,2.181.855-.093,1.753-1.949.037-.073.39-.921t1.041-2.469q.761-1.817,1.246-1.87.763-.084,1.033,1.737.186,1.268.395,2.111a5.429,5.429,0,0,0,.443,1.262q1.012,1.762,3.58,1.482A3.859,3.859,0,0,0,74.259,26.808Z"/>
      <path class="cls-1" d="M85,24.723a4.56,4.56,0,0,1-2.271,1.913,9.917,9.917,0,0,1-3.366,1.119,3.715,3.715,0,0,1-3.36-1.39,5.415,5.415,0,0,1-1.386-3.034A6.022,6.022,0,0,1,75.5,19.86a4.019,4.019,0,0,1,3.04-2.395,3.144,3.144,0,0,1,1.964.605q1.13.7,1.2,1.3.111,1.018-1.247,2.081-.3.221-.876.564t-1.41.811a7.826,7.826,0,0,0-1.271.8q.207,2.742,3.33,2.4a10.81,10.81,0,0,0,3.645-1.126,2.224,2.224,0,0,1,.424-.187Zm-5.013-4.979a.994.994,0,0,0-.289-.706,1.569,1.569,0,0,0-.994-.09,2.571,2.571,0,0,0-1.191.458,1.425,1.425,0,0,0-.671,1.362q.081.741.938.647a3.4,3.4,0,0,0,1.448-.464A1.269,1.269,0,0,0,79.989,19.744Z"/>
      <path class="cls-1" d="M87.907,10.974a.419.419,0,0,1-.029.262.28.28,0,0,0-.038.191.446.446,0,0,0-.165.1.533.533,0,0,1-.28.113q-.346.037-1.081-.68a2.983,2.983,0,0,1-.732-.906.907.907,0,0,1,.268-.547c.223-.243.389-.371.5-.383q.51-.056,1.077.845A2.906,2.906,0,0,1,87.907,10.974Zm.874,6.863c.028.262.045.593.049.991s0,.863-.024,1.4-.03.995-.026,1.385.019.717.048.98l.044.405q.027.243.093.564a6.99,6.99,0,0,1,.19.893,1.635,1.635,0,0,1-.818,1.777Q87.678,26,87.2,24.362a9.355,9.355,0,0,1-.345-1.65,16.877,16.877,0,0,1,.177-2.879q.315-2.682.916-2.749a.72.72,0,0,1,.51.25A.864.864,0,0,1,88.781,17.837Z"/>
      <path class="cls-1" d="M102.726,23.324q-.1.385-1.081.821a5.156,5.156,0,0,1-1.036.371q-1.157.126-2.53-2.37-.39-.779-.754-1.534t-.73-1.537l-.462.05A11.665,11.665,0,0,0,94.92,21.1a15.372,15.372,0,0,1-1.25,2.045,2.572,2.572,0,0,1-1.659,1.1,3.982,3.982,0,0,1-.719-2.077q.025.231-.037-.336l-.214-1.957a24.81,24.81,0,0,0-.572-3.512,5.25,5.25,0,0,0-.295-.987.982.982,0,0,1,.161-.545q.184-.336.386-.359,1.143-.125,1.434,2.539l.062.567.088.8.084.764.055.51q.2,1.784.842,1.712.9-.1,2.429-2.774,1.573-2.679,1.5-2.672.693-.076,1.129,1.985a29.957,29.957,0,0,0,.977,3.806,2.532,2.532,0,0,0,2.72,1.811A1.636,1.636,0,0,0,102.726,23.324Z"/>
      <path class="cls-1" d="M112.058,22.692q.091.835-1.3,1.574a4.58,4.58,0,0,1-1.593.621l-.948.1a4.787,4.787,0,0,1-3.1-.949q-1.713-1.124-1.838-2.258a1.267,1.267,0,0,1,.312-.994,16.53,16.53,0,0,0,.971,1.6,5.274,5.274,0,0,0,1.661.849,5.178,5.178,0,0,0,1.779.437q1.85-.2,1.792-.735-.047-.417-2.368-2.386-2.321-1.947-2.447-3.1a3.7,3.7,0,0,1,.517-2.117,2.575,2.575,0,0,1,1.961-1.55,3.471,3.471,0,0,1,1.331.183q.968.293,1.078.867a1.428,1.428,0,0,1-.479.232q-.327.105-.83.215a3.107,3.107,0,0,0-1.409.389A1.293,1.293,0,0,0,106.612,17q.092.835,2.744,3.033T112.058,22.692Z"/>
      <path class="cls-1" d="M127.747,21.072a3.915,3.915,0,0,1-1.346.967,2.856,2.856,0,0,1-2.211-.741,9.269,9.269,0,0,1-1.4-1.651q-.639-.913-.8-.895-.324.034-.855,1.17a16.055,16.055,0,0,1-1.221,2.1,3.047,3.047,0,0,1-2.036,1.3q-2.013.22-3.14-2.373a11.189,11.189,0,0,1-.818-3.19,7.4,7.4,0,0,1,.236-2.978,2.653,2.653,0,0,1,2.287-2.218,7.784,7.784,0,0,1,1.664.005q1.331.181,1.405.852.025.232-.351.649-.33.411-.561.437a2.7,2.7,0,0,1-.833-.33,2.506,2.506,0,0,0-.81-.334q-.948.105-1.345,1.834a7.8,7.8,0,0,0-.187,2.574,5.844,5.844,0,0,0,.611,2.157,2.042,2.042,0,0,0,2.135,1.313q1.575-.173,2.234-2.283a12.287,12.287,0,0,0,.417-3.886l-.105-2.24.717-.079a9.317,9.317,0,0,1,.757,1.242q.4.763.893,1.858a12.524,12.524,0,0,0,1.633,2.938A5.119,5.119,0,0,0,127.747,21.072Z"/>
      <path class="cls-1" d="M147.788,18.755a3.582,3.582,0,0,1-1.33.9,5.843,5.843,0,0,1-1.782.617,2.306,2.306,0,0,1-2.129-.844,9.943,9.943,0,0,1-1.03-1.923q-.464-1.028-.857-.984-.346.039-1.011,1.236-.472.825-.82,1.39a8.622,8.622,0,0,1-.574.848,3.269,3.269,0,0,1-2.055,1.327,1.261,1.261,0,0,1-1.346-.743l-.276-.814q-.138-.407-.279-.836-.255-.84-.857-.773-.464.049-1.553,1.855-1.115,1.784-1.717,1.849a.786.786,0,0,1-.234,0,3.636,3.636,0,0,1-1.169-1.7q-.332-1.322-.577-2.7t-.4-2.837q-.306-2.8.94-3.171a7.847,7.847,0,0,1,.71,3.06l.165,1.5q.339,3.1,1.126,3.014t1.763-1.854q.951-1.79,1.553-1.855.717-.078,1.341,2.2.669,2.271,1.479,2.182.856-.094,1.753-1.949.039-.075.391-.922t1.04-2.468q.761-1.818,1.247-1.871.764-.082,1.033,1.737.184,1.268.395,2.111a5.4,5.4,0,0,0,.442,1.263q1.013,1.762,3.58,1.481A3.817,3.817,0,0,0,147.788,18.755Z"/>
      <path class="cls-1" d="M169.909,16.9a.586.586,0,0,1-.163.44.635.635,0,0,1-.412.3q-1.087.119-2.272-1.509-.392-.591-.808-1.178t-.808-1.177l-.439.048A18.7,18.7,0,0,1,163,17.261q-1.709,2.343-3.118,2.5a2.778,2.778,0,0,1-2.91-1.79,7.431,7.431,0,0,1-.815-2.747,5.339,5.339,0,0,1,1.254-3.3q1.5-2.18,3.024-2.347a2.784,2.784,0,0,1,1.612.6q1.033.66,1.092,1.193a.838.838,0,0,1-.154.521c-.12.193-.241.3-.365.309q-.024,0-.825-.683a1.935,1.935,0,0,0-1.45-.615q-1.668.183-2.27,2.382a6.762,6.762,0,0,0-.29,2.7q.279,2.547,2.567,2.3,2.1-.23,3.245-4.105a12.358,12.358,0,0,0,.756-4.631q-.025-.233-.161-.838t-.364-1.636q-.229-1.029-.34-1.509t-.105-.434a14.209,14.209,0,0,1,.016-2.838,9.687,9.687,0,0,1,.211-1.371,3.67,3.67,0,0,1,.33-.915.716.716,0,0,1,.225.128,2.442,2.442,0,0,1,.3.26,2.742,2.742,0,0,1,.269.323,1.9,1.9,0,0,1,.186.307,5.171,5.171,0,0,1,.224.866q.09.506.161,1.155.066.6.159,2.092.058.744.11,1.324t.1,1.02Q166.377,13.937,169.909,16.9Z"/>
      <path class="cls-1" d="M184.629,14.842a3.924,3.924,0,0,1-1.346.968,2.854,2.854,0,0,1-2.212-.742,9.263,9.263,0,0,1-1.4-1.65q-.639-.913-.8-.9-.324.036-.855,1.171a16.153,16.153,0,0,1-1.222,2.1,3.049,3.049,0,0,1-2.035,1.3q-2.013.221-3.141-2.374a11.213,11.213,0,0,1-.817-3.19,7.377,7.377,0,0,1,.236-2.977,2.654,2.654,0,0,1,2.287-2.219,7.841,7.841,0,0,1,1.663,0q1.332.182,1.405.852.025.232-.351.649c-.219.275-.406.42-.561.437a2.7,2.7,0,0,1-.832-.33,2.517,2.517,0,0,0-.81-.333q-.95.1-1.345,1.834a7.8,7.8,0,0,0-.187,2.573,5.817,5.817,0,0,0,.611,2.158,2.04,2.04,0,0,0,2.135,1.312q1.574-.172,2.233-2.282a12.233,12.233,0,0,0,.417-3.886l-.1-2.241.717-.078a9.2,9.2,0,0,1,.756,1.241q.4.765.894,1.858a12.5,12.5,0,0,0,1.633,2.938A5.109,5.109,0,0,0,184.629,14.842Z"/>
      <path class="cls-1" d="M193.97,13.721q.092.835-1.3,1.574a4.58,4.58,0,0,1-1.593.621l-.948.1a4.781,4.781,0,0,1-3.1-.949q-1.713-1.124-1.838-2.257a1.264,1.264,0,0,1,.312-.995,16.445,16.445,0,0,0,.971,1.6,5.278,5.278,0,0,0,1.661.848,5.153,5.153,0,0,0,1.779.437q1.85-.2,1.792-.735-.047-.415-2.368-2.386-2.321-1.947-2.447-3.1a3.7,3.7,0,0,1,.517-2.117,2.574,2.574,0,0,1,1.961-1.549A3.46,3.46,0,0,1,190.7,5q.969.292,1.078.867a1.412,1.412,0,0,1-.478.232q-.327.1-.83.216a3.094,3.094,0,0,0-1.409.389,1.291,1.291,0,0,0-.534,1.325q.091.836,2.744,3.033T193.97,13.721Z"/>
      <path class="cls-1" d="M5.12,70.706a6.833,6.833,0,0,1-.233,1.752q-.085.36-.223.925t-.331,1.312q-1.1,0-1.165-.623a5.9,5.9,0,0,1,.258-1.054A3.429,3.429,0,0,0,3.67,71.84l-.054-.494a.076.076,0,0,1-.03-.047l-.028-.022Q3.387,71.07,2.22,73.4,1.068,75.629.7,75.669a.862.862,0,0,1-.24-.024.942.942,0,0,0-.24-.024l-.107-.063A.552.552,0,0,1,0,75.244,12.8,12.8,0,0,1,.2,73.62a21.9,21.9,0,0,1,.516-2.586L1,69.575q.222-.926.864-1a1.116,1.116,0,0,1,.274,0,.463.463,0,0,0,.131.286.726.726,0,0,1,.189.355,8.309,8.309,0,0,1-.24,1q-.126.44-.2.761c-.052.215-.086.39-.105.526l.03.046.074-.008c.033,0,.105-.1.217-.3q.656-1.074.744-1.183A1.6,1.6,0,0,1,4.1,69.341q.394-.043.709.548A2.141,2.141,0,0,1,5.12,70.706Z"/>
      <path class="cls-1" d="M24.89,50.994q-.3,1.16-.593,2.692t-.629,3.5a5.265,5.265,0,0,1-.314,1.01,3.4,3.4,0,0,0-.309,1.059Q21.766,70.376,18.8,70.7q-1.161.127-2.077-1.624-.342-.838-.682-1.664t-.707-1.662q-.8-1.789-1.734-1.686-.815.089-1.44,1.907-.26.828-.506,1.655t-.506,1.656q-.678,1.8-1.64,1.9-1.26.138-3.868-11.131L5.078,54.91q.6-.918,1.093-.971.346-.038,1.473,6.146,1.189,6.527,1.916,7.224a18.418,18.418,0,0,0,1.921-2.763q1.428-2.258,2.118-2.334,1.359-.149,2.4,1.639A29.829,29.829,0,0,1,17.5,67.216q.725,1.821,1.316,1.757,1.111-.122,1.984-4.246l.443-2.8q.222-1.4.465-2.828.38-2.469.814-4.2a15.854,15.854,0,0,1,.941-2.817A1.87,1.87,0,0,1,24.89,50.994Z"/>
      <path class="cls-1" d="M45.107,56.448a12.313,12.313,0,0,1-1.934,7.894,9.268,9.268,0,0,1-7.04,4.85l-1.754.192q-3.061.335-5.513-2.65a10.391,10.391,0,0,1-2.452-5.513,13.671,13.671,0,0,1,.419-3.925,18.782,18.782,0,0,1,1.878-5.437q1.568-2.8,3.692-3.033a3.169,3.169,0,0,1,1.5.261,2.813,2.813,0,0,1,1.371,1.1l.081.746a.348.348,0,0,0-.152.092.557.557,0,0,1-.3.107q-1.965-.588-2.038-.581Q30.545,50.807,29.28,55a13.6,13.6,0,0,0-.8,5.244q.894,8.162,8.1,7.372a7.028,7.028,0,0,0,5.553-3.837,10.306,10.306,0,0,0,1.314-6.249A10.144,10.144,0,0,0,42,53.209q-1.489-2.415-3.736-2.168a4.288,4.288,0,0,0-.925.226,1.249,1.249,0,0,1,1.217-1.209,5.153,5.153,0,0,1,4.556,2.128A7.833,7.833,0,0,1,45.107,56.448Z"/>
      <path class="cls-1" d="M59.7,47a12.38,12.38,0,0,0-1.58-.052,44.553,44.553,0,0,0-5.685,1.7q-5.448,1.823-5.729,2.679a.956.956,0,0,0-.047.481,5.5,5.5,0,0,0,.136.673,5.783,5.783,0,0,1,.139.7,1.243,1.243,0,0,1-.221.949,16.668,16.668,0,0,0-.972-1.57,7.02,7.02,0,0,1-.7-1.149q-.148-1.359,3.057-2.661a14.547,14.547,0,0,1,3.654-1.1,1.128,1.128,0,0,1,.327.027,1.23,1.23,0,0,0,.377.021q-.1.01.394-.168t1.6-.551a17.045,17.045,0,0,1,3.573-.916,4.035,4.035,0,0,1,1.614.373Zm-.907,9.056q-1.166.378-2.886.98t-4.068,1.433a10.452,10.452,0,0,0-.1,1.612,20.817,20.817,0,0,0,.136,2.162L52.1,64.29l.224,2.051q-.118.539-1.252.663a7.82,7.82,0,0,1-1.45-2.518,2.089,2.089,0,0,1,.028-.428,2.142,2.142,0,0,0,.02-.5l.617-.068q-.054-3.921-.084-4.193a.306.306,0,0,0-.271-.308,2.965,2.965,0,0,0-.491-.034,3.856,3.856,0,0,1-1.81-.1q-1.555-.281-1.631-.973-.024-.222.462-.8t.709-.6q.395-.043.885.554a1.257,1.257,0,0,0,1.179.5q.642-.071.858-3.121.237-3.078.855-3.146.642-.07.737.8.01.1-.01.589t-.047,1.369q-.028.879-.021,1.516t.052,1.032a1.052,1.052,0,0,0,.735.37c.066-.007.347-.059.845-.155s1.219-.238,2.164-.425,1.667-.332,2.163-.437.77-.159.819-.164C58.632,55.719,58.768,55.82,58.793,56.051Z"/>
      <path class="cls-1" d="M79.29,50.939a14.909,14.909,0,0,1-.827,6.371,10.018,10.018,0,0,1-4,5.719,7.3,7.3,0,0,0-.95.679,2.841,2.841,0,0,1-.821.49,9.374,9.374,0,0,0-1,.259c-.277.064-.5.118-.683.163a3.353,3.353,0,0,1-.366.077q-2.84.312-5.275-2.525a19.9,19.9,0,0,1-3.212-5.829A20.588,20.588,0,0,1,60.951,51.9q-.062-.569-.082-1.2t0-1.364q.074-2.06.593-2.117a1.359,1.359,0,0,1,.784.314q.51.319.451.7a8.04,8.04,0,0,0-.072,2.536A18.84,18.84,0,0,0,65.591,58.9q2.8,4.347,5.838,4.015,3.507-.384,5.184-4.7a13.575,13.575,0,0,0,.945-6.435,8.641,8.641,0,0,0-1.023-3.191,11.648,11.648,0,0,0-1.475-2.065q-.766-.843-.758-.768a1.425,1.425,0,0,1,.462-1.027q1.247-.011,2.859,2.39A9.25,9.25,0,0,1,79.29,50.939ZM69.225,44.76q-.717.078-.8-.685a.689.689,0,0,1,.3-.656c.075-.074.178-.164.308-.27s.278-.234.445-.385a.747.747,0,0,1,.382-.166.669.669,0,0,1,.824.681.692.692,0,0,1-.3.656,2.454,2.454,0,0,0-.609.491A.915.915,0,0,1,69.225,44.76Zm-2.182.864a.681.681,0,0,1-.556.411q-.766.084-.844-.633a.778.778,0,0,1,.077-.434l.122-.263a.7.7,0,0,1,.58-.414q.767-.084.845.633a.741.741,0,0,1-.081.409Z"/>
      <path class="cls-1" d="M97.239,60.628a.808.808,0,0,1-.2.535.705.705,0,0,1-.45.337q-.148.017-5.553-3.046-5.408-3.087-5.58-3.068-.4.043-.364,1.692.047,1.57.066,2.432a9.424,9.424,0,0,1-.008,1.065,5.454,5.454,0,0,1-.838,3.07A5.112,5.112,0,0,1,82.6,61.054a14.8,14.8,0,0,1-1.087-3.985,16.755,16.755,0,0,1,.653-4.3A29.046,29.046,0,0,1,84.3,46.452q1.59-3.277,3.343-3.469,1.778-.195,4,1.864A6.243,6.243,0,0,1,93.9,48.379a3.912,3.912,0,0,1-1.287,3.069,15.981,15.981,0,0,1-2.784,2.157q-1.517.968-1.5,1.115.074.668,4.43,2.844Q97.142,59.738,97.239,60.628Zm-5.16-11.774a4.67,4.67,0,0,0-1.342-2.682,3.347,3.347,0,0,0-2.879-1.212q-1.382.151-2.907,2.647-1.422,2.283-1.3,3.371a3.958,3.958,0,0,0,.55.916q.3.443.495.759c.132.211.229.38.293.507l1.061-.117a3.982,3.982,0,0,1,.562,0,3.954,3.954,0,0,0,.537,0,7.725,7.725,0,0,0,3.179-1.074A3.142,3.142,0,0,0,92.079,48.854Zm-8.25,7.436q-.281-2.572-.957-3.024-.115,1.464-.158,2.445a10.5,10.5,0,0,0,.014,1.5,6.085,6.085,0,0,0,.546,2.018,3.406,3.406,0,0,0,.444-.75A5.279,5.279,0,0,0,83.829,56.29Z"/>
      <path class="cls-1" d="M108.021,40.817a17.8,17.8,0,0,1-.79,2.838q-.84,2.619-1.062,2.643-.543.06-.617-.608a10.263,10.263,0,0,1,.508-2.457.071.071,0,0,1-.03-.046l0-.025a8.566,8.566,0,0,0-1.071,1.416,9.464,9.464,0,0,0-1.269,2.337q-.094.285-.836.59l-.617.068-.082-.066a.485.485,0,0,1-.137-.335q2.671-7.341,3.439-7.425.864-.095.94.6a7.889,7.889,0,0,1-.876,1.6,5.008,5.008,0,0,0-.875,1.847q.375-.466.647-.834a7.132,7.132,0,0,0,.441-.661q.057-.156.177-.432t.324-.7q.538-1.01.984-1.058Q107.934,40.026,108.021,40.817Z"/>
      <path class="cls-1" d="M128.861,56.4a4.57,4.57,0,0,1-2.271,1.913,9.891,9.891,0,0,1-3.366,1.118,3.712,3.712,0,0,1-3.36-1.389,5.411,5.411,0,0,1-1.386-3.035,6.021,6.021,0,0,1,.884-3.47,4.013,4.013,0,0,1,3.04-2.4,3.132,3.132,0,0,1,1.964.605q1.129.7,1.2,1.3.111,1.019-1.247,2.081-.3.221-.876.565t-1.41.81a7.826,7.826,0,0,0-1.271.8q.207,2.742,3.33,2.4a10.788,10.788,0,0,0,3.645-1.126,2.3,2.3,0,0,1,.424-.187Zm-5.014-4.979a1,1,0,0,0-.288-.707,1.569,1.569,0,0,0-.994-.09,2.584,2.584,0,0,0-1.191.459,1.421,1.421,0,0,0-.671,1.361q.081.741.937.647a3.394,3.394,0,0,0,1.449-.463A1.266,1.266,0,0,0,123.847,51.42Z"/>
      <path class="cls-1" d="M141.567,55.549q-.1.386-1.081.821a5.156,5.156,0,0,1-1.036.371q-1.156.127-2.53-2.37-.39-.779-.754-1.534t-.73-1.537l-.462.051a11.643,11.643,0,0,0-1.213,1.97,15.35,15.35,0,0,1-1.251,2.045,2.57,2.57,0,0,1-1.658,1.1,3.973,3.973,0,0,1-.719-2.077c.017.154,0,.042-.037-.336l-.214-1.957a24.81,24.81,0,0,0-.572-3.512,5.25,5.25,0,0,0-.3-.987.984.984,0,0,1,.161-.545q.185-.336.386-.359,1.143-.124,1.434,2.539l.062.567.088.8q.048.439.084.764l.055.51q.2,1.784.842,1.712.9-.1,2.428-2.774a30.664,30.664,0,0,0,1.506-2.672q.691-.076,1.128,1.985a30.327,30.327,0,0,0,.977,3.806,2.533,2.533,0,0,0,2.721,1.811A1.621,1.621,0,0,0,141.567,55.549Z"/>
      <path class="cls-1" d="M151.233,47.415a24.546,24.546,0,0,1-2.479.834q-1.536.472-1.665,1c-.009.063-.032.351-.069.862s-.095,1.265-.173,2.258a3,3,0,0,0,0,.316c0,.117.016.252.033.407l.051.463.03.278.023.208a2.916,2.916,0,0,1-.793,2.689l-.509.055q-.3-.2-.321-.363-.036-.324.026-2.007t.193-4.767q-.615-.05-1.232-.123t-1.231-.123q-1.971-.254-2.057-1.04a.693.693,0,0,1,.048-.312,2.449,2.449,0,0,1,.161-.348,1.013,1.013,0,0,1,.249-.3.566.566,0,0,1,.29-.138,3.267,3.267,0,0,1,1.148.416,3.2,3.2,0,0,0,1.682.358q1.114-.121,1.027-.909l-.548-5c-.011-.108-.049-.3-.112-.585s-.151-.643-.263-1.083q-.171-.684-.26-1.165c-.06-.322-.1-.575-.12-.76q-.262-2.406.593-2.5.879-.1,1.021,1.2a3.258,3.258,0,0,1-.007.7q.021.185.274,2.5t.743,6.781c.119.3.267.474.444.518l.417-.046q.717-.078,1.563-.148T151.233,47.415Z"/>
      <path class="cls-1" d="M165.818,46.482a1.912,1.912,0,0,1-.394.677q-.508.687-.607.863-.261.825-.524,1.629t-.524,1.627q-1.078,2.979-2,3.08-.532.059-1.547-1.522-1.019-1.6-1.435-1.557-.832.09-1.534,2.232-.728,2.121-1.537,2.209-1.039.114-2.441-4.56-.522-1.77-.82-2.991a16.04,16.04,0,0,1-.371-1.893.912.912,0,0,1,.208-.668.955.955,0,0,1,.685-.368q.717-.078,1.581,3.529.837,3.588,1.322,3.535.3-.033,1.12-1.531t1.79-1.6q.717-.078,1.8,1.049,1.058,1.105,1.381,1.071.44-.048.855-1.383.8-2.528.8-2.527.552-1.374,1.315-1.457a.931.931,0,0,1,.532.164Q165.8,46.274,165.818,46.482Z"/>
      <path class="cls-1" d="M168.786,38.6a.41.41,0,0,1-.03.262.281.281,0,0,0-.037.192.438.438,0,0,0-.165.1.533.533,0,0,1-.28.113q-.348.037-1.082-.68a2.953,2.953,0,0,1-.731-.906.9.9,0,0,1,.268-.547q.334-.364.5-.383.51-.056,1.077.845A2.934,2.934,0,0,1,168.786,38.6Zm.873,6.863q.043.394.049.991t-.023,1.4c-.021.534-.03,1-.027,1.386s.02.716.048.979l.045.405c.018.162.048.35.093.564a7.179,7.179,0,0,1,.19.894,1.637,1.637,0,0,1-.818,1.776q-.659-.233-1.141-1.867a9.256,9.256,0,0,1-.345-1.649,16.953,16.953,0,0,1,.176-2.88q.315-2.682.917-2.748a.717.717,0,0,1,.51.249A.869.869,0,0,1,169.659,45.458Z"/>
      <path class="cls-1" d="M183.552,50.164a11.042,11.042,0,0,0-1.2.647q-.825.489-2.118,1.286a6.925,6.925,0,0,1-3,1.054,4.679,4.679,0,0,1-3.945-1.184,5.748,5.748,0,0,1-1.64-3.637q-.213-1.944,1.854-3.81a6.723,6.723,0,0,1,3.613-1.847,3.071,3.071,0,0,1,3.253,1.916.449.449,0,0,1-.386.324,6.452,6.452,0,0,0-2.867-.529,4.182,4.182,0,0,0-2.738,1.283,3.512,3.512,0,0,0-.879,2.882,3.764,3.764,0,0,0,1.063,2.225,2.8,2.8,0,0,0,2.4.933q.115-.014,1-.04c.295-.016.527-.03.7-.041s.286-.02.348-.026a13.385,13.385,0,0,0,2.147-.7A10.914,10.914,0,0,1,183.552,50.164Z"/>
      <path class="cls-1" d="M195.019,50.937a1.313,1.313,0,0,1-.8.627q-1.25.137-2.152-1.477a10.249,10.249,0,0,1-1.04-3.078,7.024,7.024,0,0,1-.242-1.78.455.455,0,0,0-.308-.037q-.348.039-2.029,3.086-1.72,3.122-2.5,3.465a2.677,2.677,0,0,1-1.2-2q-.059-.321-.323-1.886t-.768-4.44q-.478-2.877-.726-4.385t-.267-1.694a9.807,9.807,0,0,1-.046-1.167q.007-.681.073-1.579.2-2.646,1.034-2.738a.655.655,0,0,1,.483.24.86.86,0,0,1,.3.494,17.421,17.421,0,0,0-.3,1.767,14.625,14.625,0,0,0-.09,3.456q.117,1.065.962,5.567,1,5.306,1.392,5.66L186.8,49q1.445-2.433,3-4.84T193,39.3a.556.556,0,0,1,.228.374,10.773,10.773,0,0,1-.541,1.043,6.313,6.313,0,0,0-.735,2.049,15.066,15.066,0,0,0,.157,2.725,9.932,9.932,0,0,0,.89,3.208A4.645,4.645,0,0,0,195.019,50.937Z"/>
      <path class="cls-1" d="M205.665,47.987a4.559,4.559,0,0,1-2.272,1.913,9.9,9.9,0,0,1-3.365,1.119,3.714,3.714,0,0,1-3.36-1.389,5.413,5.413,0,0,1-1.387-3.035,6.035,6.035,0,0,1,.885-3.471,4.013,4.013,0,0,1,3.04-2.394,3.132,3.132,0,0,1,1.964.605q1.13.7,1.2,1.3.111,1.018-1.248,2.081-.3.221-.875.565t-1.41.81a7.779,7.779,0,0,0-1.271.8q.206,2.742,3.329,2.4a10.786,10.786,0,0,0,3.646-1.126,2.2,2.2,0,0,1,.424-.187Zm-5.014-4.979a1,1,0,0,0-.288-.706,1.571,1.571,0,0,0-.994-.09,2.554,2.554,0,0,0-1.191.459,1.421,1.421,0,0,0-.671,1.361q.081.741.937.647a3.417,3.417,0,0,0,1.449-.463A1.267,1.267,0,0,0,200.651,43.008Z"/>
      <path class="cls-1" d="M211.971,47.8a.792.792,0,0,1-.658.611q-2.656.291-4.3-4.5a35.731,35.731,0,0,1-1.571-7.727l-.124-1.135c-.007-.2-.015-.35-.025-.442s-.015-.132-.013-.116-.019-.092-.062-.322-.076-.445-.1-.645q-.357-3.267.922-3.406.206-.022.524.34a1.242,1.242,0,0,1,.341.573c.007.061.009.256.007.585s-.009.8-.019,1.409q-.018.892-.022,1.385c0,.328,0,.516,0,.562a42.591,42.591,0,0,0,1.607,7.629q1.545,5.153,3.069,4.985Q211.673,47.649,211.971,47.8Z"/>
      <path class="cls-1" d="M224.14,46.506q-.1.385-1.081.82a5.118,5.118,0,0,1-1.036.372q-1.156.126-2.53-2.37-.39-.779-.754-1.534t-.73-1.537l-.462.05a11.665,11.665,0,0,0-1.213,1.971,15.35,15.35,0,0,1-1.251,2.045,2.57,2.57,0,0,1-1.658,1.1,3.973,3.973,0,0,1-.719-2.077c.017.154,0,.042-.037-.336l-.214-1.957a24.81,24.81,0,0,0-.572-3.512,5.25,5.25,0,0,0-.3-.987.982.982,0,0,1,.161-.545q.185-.336.386-.359,1.143-.124,1.434,2.539l.062.567.088.8.084.764.055.51q.2,1.782.842,1.712.9-.1,2.428-2.774a30.664,30.664,0,0,0,1.506-2.672q.692-.077,1.128,1.985a30.327,30.327,0,0,0,.977,3.806A2.534,2.534,0,0,0,223.46,46.7,1.636,1.636,0,0,0,224.14,46.506Z"/>
      <path class="cls-1" d="M228.763,30.649a34.5,34.5,0,0,1-.013,7.8q-.219,1.641-.427,3.281t-.424,3.3q-.087.269-1.043.748l-.15-1.367c-.006-.061.037-.519.132-1.373q.132-1.374.136-1.984.048-1.059.033-3.026t-.1-4.91a20.646,20.646,0,0,1-.452-2.2q-.2-1.829.725-1.93l.463-.051Q228.566,28.842,228.763,30.649Zm-.784,20.473a1.371,1.371,0,0,1-.893.613,1.27,1.27,0,0,1-.968-.292,1.183,1.183,0,0,1-.485-.791,1.141,1.141,0,0,1,.246-.742,1.031,1.031,0,0,1,.768-.471.865.865,0,0,1,.5.086,1.5,1.5,0,0,1,.409.318,1.611,1.611,0,0,1,.3.46,1.854,1.854,0,0,1,.141.536A.9.9,0,0,1,227.979,51.122Z"/>
    </g>
  </g>
</svg>
