<svg xmlns="http://www.w3.org/2000/svg" viewBox="0 0 24.227 33.126">
  <defs>
    <style>
      .cls-1 {
        fill: #fff;
      }

      .cls-2, .cls-4 {
        fill: none;
      }

      .cls-2 {
        stroke: #fff;
      }

      .cls-3 {
        fill: #3d5e57;
      }

      .cls-4 {
        stroke: #3d5e57;
        stroke-miterlimit: 10;
        stroke-width: 0.344px;
      }
    </style>
  </defs>
  <g id="Ebene_2" data-name="Ebene 2">
    <g id="Ebene_1-2" data-name="Ebene 1">
      <rect class="cls-1" x="8.995" y="0.5" width="6.236" height="7.803"/>
      <rect class="cls-2" x="8.995" y="0.5" width="6.236" height="7.803"/>
      <g>
        <path class="cls-3" d="M12.906,21.652a.214.214,0,0,1-.1-.027.208.208,0,0,1-.077-.284l1.771-3.1H10.132a1.534,1.534,0,0,1-1.551-1.67V14.191H7.17a.6.6,0,0,1-.527-.287.7.7,0,0,1,0-.693,11.838,11.838,0,0,1,.786-1.122,7,7,0,0,0,1.147-1.818V7.909a7.737,7.737,0,1,1,15.474,0V21.444a.208.208,0,1,1-.416,0V7.909A7.321,7.321,0,1,0,9,7.909v2.362a5.4,5.4,0,0,1-1.231,2.067,11.746,11.746,0,0,0-.751,1.07A.29.29,0,0,0,7,13.689a.188.188,0,0,0,.171.086H8.789A.208.208,0,0,1,9,13.983V16.57a1.132,1.132,0,0,0,1.135,1.254h4.724a.208.208,0,0,1,.18.311l-1.949,3.412a.21.21,0,0,1-.181.105"/>
        <path class="cls-4" d="M12.906,21.652a.214.214,0,0,1-.1-.027.208.208,0,0,1-.077-.284l1.771-3.1H10.132a1.534,1.534,0,0,1-1.551-1.67V14.191H7.17a.6.6,0,0,1-.527-.287.7.7,0,0,1,0-.693,11.838,11.838,0,0,1,.786-1.122,7,7,0,0,0,1.147-1.818V7.909a7.737,7.737,0,1,1,15.474,0V21.444a.208.208,0,1,1-.416,0V7.909A7.321,7.321,0,1,0,9,7.909v2.362a5.4,5.4,0,0,1-1.231,2.067,11.746,11.746,0,0,0-.751,1.07A.29.29,0,0,0,7,13.689a.188.188,0,0,0,.171.086H8.789A.208.208,0,0,1,9,13.983V16.57a1.132,1.132,0,0,0,1.135,1.254h4.724a.208.208,0,0,1,.18.311l-1.949,3.412A.21.21,0,0,1,12.906,21.652Z"/>
        <path class="cls-3" d="M18.275,13.7a.208.208,0,0,1-.208-.208A3.918,3.918,0,0,1,19,10.613l.009-.009a3.81,3.81,0,1,0-5.386,0l.009.009a3.914,3.914,0,0,1,.935,2.874.208.208,0,1,1-.416,0,3.418,3.418,0,0,0-.823-2.59l-.009-.009a4.226,4.226,0,1,1,5.994,0l-.009.009a3.418,3.418,0,0,0-.823,2.59.208.208,0,0,1-.208.208"/>
        <path class="cls-3" d="M14.971,8.727a.477.477,0,1,0,0,.954h.476V9.205a.478.478,0,0,0-.476-.478m2.218.954h.477a.477.477,0,1,0-.477-.476ZM16.981,13.7a.208.208,0,0,1-.208-.208V10.1h-.91v3.39a.208.208,0,0,1-.416,0V10.1h-.476a.893.893,0,1,1,.892-.892v.476h.91V9.205a.893.893,0,1,1,.893.892h-.477v3.39a.208.208,0,0,1-.208.208"/>
        <path class="cls-3" d="M18.664,13.7H13.972a.208.208,0,0,1,0-.416h4.692a.208.208,0,0,1,0,.416"/>
        <path class="cls-3" d="M18.664,14.585H13.972a.208.208,0,0,1,0-.416h4.692a.208.208,0,0,1,0,.416"/>
        <path class="cls-3" d="M18.664,15.475H13.972a.208.208,0,1,1,0-.416h4.692a.208.208,0,0,1,0,.416"/>
        <path class="cls-3" d="M18.185,16.365H14.45a.208.208,0,1,1,0-.415h3.735a.208.208,0,1,1,0,.415"/>
        <path class="cls-3" d="M14.361,15.475a.208.208,0,0,1-.208-.208v-1.78a.208.208,0,1,1,.416,0v1.78a.208.208,0,0,1-.208.208"/>
        <path class="cls-3" d="M18.275,15.475a.208.208,0,0,1-.208-.208v-1.78a.208.208,0,0,1,.416,0v1.78a.208.208,0,0,1-.208.208"/>
        <path class="cls-3" d="M2.083,28.69a.192.192,0,0,0-.191.191v3.638a.191.191,0,1,0,.381,0V28.881a.191.191,0,0,0-.19-.191m0,4.436a.607.607,0,0,1-.607-.607V28.881a.607.607,0,1,1,1.213,0v3.638a.607.607,0,0,1-.606.607"/>
        <path class="cls-3" d="M1.684,29.979H.208a.208.208,0,1,1,0-.416H1.684a.208.208,0,1,1,0,.416"/>
        <path class="cls-3" d="M1.684,31.845H.208a.208.208,0,1,1,0-.415H1.684a.208.208,0,1,1,0,.415"/>
        <path class="cls-3" d="M4.367,29.514H2.482a.208.208,0,0,1,0-.416H4.367a.208.208,0,0,1,0,.416"/>
        <path class="cls-3" d="M4.367,32.31H2.482a.208.208,0,0,1,0-.416H4.367a.208.208,0,0,1,0,.416"/>
        <path class="cls-3" d="M4.367,32.31a.208.208,0,0,1,0-.416.339.339,0,0,0,.339-.339v-1.7a.339.339,0,0,0-.339-.339.208.208,0,0,1,0-.416.756.756,0,0,1,.755.755v1.7a.756.756,0,0,1-.755.755"/>
        <path class="cls-3" d="M7.37,31.351a.208.208,0,0,1-.208-.208v-.878a.208.208,0,1,1,.416,0v.878a.208.208,0,0,1-.208.208"/>
        <path class="cls-3" d="M6.534,31.351a.208.208,0,0,1-.208-.208v-.878a.208.208,0,0,1,.416,0v.878a.208.208,0,0,1-.208.208"/>
        <path class="cls-3" d="M5.7,31.351a.208.208,0,0,1-.208-.208v-.878a.208.208,0,0,1,.416,0v.878a.208.208,0,0,1-.208.208"/>
        <path class="cls-3" d="M14.75,30.912H7.37a.208.208,0,1,1,0-.416h7.38a1.361,1.361,0,0,0,1.36-1.36V16.158a.208.208,0,0,1,.416,0V29.136a1.778,1.778,0,0,1-1.776,1.776"/>
        <path class="cls-4" d="M14.75,30.912H7.37a.208.208,0,1,1,0-.416h7.38a1.361,1.361,0,0,0,1.36-1.36V16.158a.208.208,0,0,1,.416,0V29.136A1.778,1.778,0,0,1,14.75,30.912Z"/>
        <path class="cls-3" d="M16.318,3.056a.208.208,0,0,1-.208-.208v-.6a.208.208,0,1,1,.416,0v.6a.208.208,0,0,1-.208.208"/>
        <path class="cls-3" d="M19.9,4.538a.206.206,0,0,1-.147-.06.208.208,0,0,1,0-.294l.425-.424a.208.208,0,0,1,.294.293l-.425.425a.206.206,0,0,1-.147.06"/>
        <path class="cls-3" d="M21.979,8.117h-.6a.208.208,0,0,1,0-.416h.6a.208.208,0,1,1,0,.416"/>
        <path class="cls-3" d="M20.321,12.12a.207.207,0,0,1-.147-.061l-.425-.425a.208.208,0,0,1,.294-.294l.425.425a.208.208,0,0,1-.147.355"/>
        <path class="cls-3" d="M12.739,4.538a.206.206,0,0,1-.147-.06l-.425-.425a.208.208,0,0,1,.294-.293l.425.424a.208.208,0,0,1,0,.294.206.206,0,0,1-.147.06"/>
        <path class="cls-3" d="M11.257,8.117h-.6a.208.208,0,1,1,0-.416h.6a.208.208,0,1,1,0,.416"/>
        <path class="cls-3" d="M12.315,12.12a.208.208,0,0,1-.147-.355l.425-.425a.208.208,0,0,1,.294.294l-.425.425a.207.207,0,0,1-.147.061"/>
      </g>
    </g>
  </g>
</svg>
