<svg xmlns="http://www.w3.org/2000/svg" viewBox="0 0 9.986 18.243">
  <defs>
    <style>
      .cls-1 {
        fill: #3d5e57;
      }
    </style>
  </defs>
  <g id="Ebene_2" data-name="Ebene 2">
    <g id="Ebene_1-2" data-name="Ebene 1">
      <g>
        <path class="cls-1" d="M4.993,18.243a.21.21,0,0,1-.209-.209V7.275a.209.209,0,1,1,.418,0V18.034a.21.21,0,0,1-.209.209"/>
        <path class="cls-1" d="M.418,7.776v.418a.851.851,0,0,0,.851.85H3.19V8.627a.851.851,0,0,0-.85-.851ZM3.4,9.462H1.269A1.27,1.27,0,0,1,0,8.194V7.567a.21.21,0,0,1,.209-.209H2.34A1.271,1.271,0,0,1,3.608,8.627v.626a.21.21,0,0,1-.209.209"/>
        <path class="cls-1" d="M4.993,10.305a.218.218,0,0,1-.1-.024L1.7,8.589A.209.209,0,0,1,1.89,8.22l3.2,1.691a.209.209,0,0,1-.1.394"/>
        <path class="cls-1" d="M6.8,10.682H8.718a.851.851,0,0,0,.85-.85V9.414H7.647a.851.851,0,0,0-.85.851Zm1.921.418H6.588a.209.209,0,0,1-.209-.209v-.626A1.27,1.27,0,0,1,7.647,9h2.13a.208.208,0,0,1,.209.209v.626A1.27,1.27,0,0,1,8.718,11.1"/>
        <path class="cls-1" d="M4.993,11.943a.209.209,0,0,1-.1-.394L8.1,9.858a.209.209,0,0,1,.2.369l-3.2,1.692a.218.218,0,0,1-.1.024"/>
        <path class="cls-1" d="M4.993.418A3.324,3.324,0,1,0,8.317,3.742,3.328,3.328,0,0,0,4.993.418m0,7.066A3.742,3.742,0,1,1,8.735,3.742,3.747,3.747,0,0,1,4.993,7.484"/>
        <path class="cls-1" d="M4.994,3.578A1.107,1.107,0,1,0,3.887,2.471,1.109,1.109,0,0,0,4.994,3.578m2.36,1.839a.21.21,0,0,1-.21-.209A1.108,1.108,0,0,0,6.105,4H3.882A1.109,1.109,0,0,0,2.843,5.208a.209.209,0,0,1-.418,0,1.507,1.507,0,0,1,1.457-1.63h.064a1.524,1.524,0,1,1,2.1,0h.063a1.508,1.508,0,0,1,1.458,1.63.21.21,0,0,1-.209.209"/>
        <path class="cls-1" d="M3.678,2.68a.209.209,0,0,1,0-.418,2.458,2.458,0,0,0,2.029-.911.209.209,0,0,1,.319.271A2.848,2.848,0,0,1,3.678,2.68"/>
      </g>
    </g>
  </g>
</svg>
