<svg xmlns="http://www.w3.org/2000/svg" viewBox="0 0 13.928 25.042">
  <defs>
    <style>
      .cls-1 {
        fill: #3d5e57;
      }
    </style>
  </defs>
  <g id="Ebene_2" data-name="Ebene 2">
    <g id="Ebene_1-2" data-name="Ebene 1">
      <path class="cls-1" d="M12.833,13.883a.767.767,0,0,1-1.534,0V9.118a.548.548,0,0,0-1.1,0V23.194a.753.753,0,0,1-.751.753H7.512v-7.2a.548.548,0,0,0-1.1,0v7.2H4.477a.756.756,0,0,1-.753-.76V9.118a.548.548,0,0,0-1.1,0v4.765a.766.766,0,0,1-1.532,0V9.577C1.1,7.488,2.23,6.291,4.21,6.291H9.719c1.979,0,3.114,1.2,3.114,3.286ZM4.914,3.146A2.05,2.05,0,1,1,6.964,5.2a2.052,2.052,0,0,1-2.05-2.049M9.719,5.2H9.345a3.145,3.145,0,1,0-4.762,0H4.21C1.613,5.2,0,6.874,0,9.577v4.306a1.855,1.855,0,0,0,2.628,1.692v7.619a1.851,1.851,0,0,0,1.849,1.848H9.452A1.851,1.851,0,0,0,11.3,23.187V15.575a1.855,1.855,0,0,0,2.629-1.692V9.577c0-2.7-1.613-4.382-4.209-4.382"/>
    </g>
  </g>
</svg>
