<svg id="Ebene_1" data-name="Ebene 1" xmlns="http://www.w3.org/2000/svg" viewBox="0 0 88.435 70.401">
  <defs>
    <style>
      .cls-1 {
        fill: #44484d;
      }

      .cls-2 {
        fill: #858740;
      }

      .cls-3 {
        fill: none;
        stroke: #858740;
        stroke-miterlimit: 10;
        stroke-width: 0.224px;
      }
    </style>
  </defs>
  <path class="cls-1" d="M75.957,66.044c0,1.09.778,2.49,4.512,2.49,2.179,0,4.824-.934,5.29-2.645s-.373-3.268-2.8-3.268h-5.6a4.258,4.258,0,0,0-1.4,3.423M80,56.709c3.2,0,4.294-1.494,4.294-4.356,0-2.365-.778-3.734-3.921-3.734-3.2,0-4.232,1.493-4.232,4.356,0,2.365.716,3.734,3.859,3.734m-2.179,1.525a2.437,2.437,0,0,0,0,2.365h5.6c4.046,0,5.042,2.8,4.668,4.979-.467,2.8-3.2,4.823-8.09,4.823-3.392,0-6.224-1.463-6.224-4.2A4.4,4.4,0,0,1,76.268,62a2.552,2.552,0,0,1-.778-2.489,2.945,2.945,0,0,1,1.027-1.743c-1.524-.809-2.613-2.178-2.613-4.792,0-4.294,2.271-6.068,6.721-6.068a6.838,6.838,0,0,1,3.516.809l2.676-3.423,1.618,1.8-3.142,2.614a5.541,5.541,0,0,1,1.244,3.641c0,4.294-2.271,6.068-6.721,6.068a9.889,9.889,0,0,1-1.992-.187M64.6,46.907c4.357,0,6.535,2.334,6.535,7.779s-1.867,8.4-7.157,8.4c-4.356,0-6.535-2.334-6.535-7.779s1.867-8.4,7.157-8.4m-.466,14.47c3.734,0,4.823-2.645,4.823-6.691,0-3.578-.778-6.067-4.512-6.067s-4.823,2.645-4.823,6.69c0,3.578.778,6.068,4.512,6.068M53.553,40.684,51.375,41V62.777h2.178ZM38.928,53.815a18.654,18.654,0,0,1,3.952.467h.093V52.819c0-2.209-.84-3.018-3.33-3.018a13.7,13.7,0,0,0-4.512.778l-.466-2.738a14.432,14.432,0,0,1,5.445-.934c3.423,0,6.473,1,6.473,5.2v8.059H48.7v2.116a8.386,8.386,0,0,1-3.548.809c-1.151,0-2.085-.529-2.178-1.4h-.156a7.888,7.888,0,0,1-4.512,1.4c-2.645,0-4.885-1.4-4.885-4.605s2.085-4.668,5.508-4.668m4.045,2.894H39.021c-1.556,0-1.992.716-1.992,1.743,0,1.4.9,1.742,2.085,1.742a13.529,13.529,0,0,0,3.859-.622ZM26.823,43.235a2.132,2.132,0,1,0,2.147-2.147,2.145,2.145,0,0,0-2.147,2.147m3.952,3.983H27.134V62.777h3.641ZM7.157,49.8c2.147,0,2.614,1.151,2.614,3.018v9.958h3.61V51.793a6.2,6.2,0,0,0-.094-1.09,8.492,8.492,0,0,1,3.672-.9c2.085,0,2.676.809,2.676,3.018v9.958h3.61V51.793c0-3.3-2.116-4.886-5.01-4.886a9.285,9.285,0,0,0-5.726,1.774,5,5,0,0,0-4.2-1.774A8.037,8.037,0,0,0,3.765,48.37H3.61V47.218H0V62.777H3.61V50.61A8.91,8.91,0,0,1,7.157,49.8"/>
  <path class="cls-2" d="M27.217,26.915a7.133,7.133,0,0,1-1.863-.32,6.244,6.244,0,0,1-1.7-.831,4.679,4.679,0,0,1-.978-.928,6.334,6.334,0,0,1-1.022-1.892,6.678,6.678,0,0,1-.367-2.148,5.275,5.275,0,0,1,.172-1.365,4.117,4.117,0,0,1,.363-.916,3.44,3.44,0,0,1,.946-1.1,3.823,3.823,0,0,1,1.485-.667,2.827,2.827,0,0,1,.612-.067,2.669,2.669,0,0,1,.937.166,2.057,2.057,0,0,1,.771.5,2,2,0,0,1,.405.646,2.079,2.079,0,0,1,.144.751,1.708,1.708,0,0,1-.152.719,1.453,1.453,0,0,1-.47.57,1.6,1.6,0,0,1-.487.236,1.938,1.938,0,0,1-.552.077,2.662,2.662,0,0,1-1.168-.289,2.433,2.433,0,0,1-.894-.737,6.456,6.456,0,0,1-.94-1.934,7.5,7.5,0,0,1-.3-2.133,9.382,9.382,0,0,1,.6-3.238,9.9,9.9,0,0,1,2.8-4.074A7.6,7.6,0,0,1,27.6,6.684,6.361,6.361,0,0,1,29.918,6.2h.052a3.173,3.173,0,0,1,1.366.3,2.414,2.414,0,0,1,.562.371,1.955,1.955,0,0,1,.411.512,1.559,1.559,0,0,1,.194.737,1.185,1.185,0,0,1-.051.35.921.921,0,0,1-.153.3,1.059,1.059,0,0,1-.376.3,1.54,1.54,0,0,1-.5.141,1.648,1.648,0,0,1-.2.011,1.919,1.919,0,0,1-.857-.207,1.858,1.858,0,0,1-.673-.566,2.2,2.2,0,0,1-.316-.6,1.916,1.916,0,0,1-.1-.6,2.3,2.3,0,0,1,.115-.7,4.14,4.14,0,0,1,.682-1.234A9.843,9.843,0,0,1,31.8,3.633a16.48,16.48,0,0,1,1.732-1.186A11.294,11.294,0,0,1,39.286.862a10.7,10.7,0,0,1,5.164,1.31,3.312,3.312,0,0,1,.923.74,2.51,2.51,0,0,1,.321.475,2.039,2.039,0,0,1,.187.528,1.779,1.779,0,0,1,.036.357,2.055,2.055,0,0,1-.3,1.047,1.945,1.945,0,0,1-.784.743,1.924,1.924,0,0,1-.86.2,2.134,2.134,0,0,1-.819-.164,1.939,1.939,0,0,1-.676-.469,2.474,2.474,0,0,1-.447-.66,1.418,1.418,0,0,1-.051-1.06,2.316,2.316,0,0,1,.484-.783,5.385,5.385,0,0,1,1.289-1.005,8.411,8.411,0,0,1,1.434-.66A14.416,14.416,0,0,1,49.881.6a9.832,9.832,0,0,1,3.73.7,8.3,8.3,0,0,1,1.5.834,10.484,10.484,0,0,1,2.274,2.091,5.757,5.757,0,0,1,.756,1.235A3.1,3.1,0,0,1,58.419,6.7a2.23,2.23,0,0,1-.2.93,2.832,2.832,0,0,1-.664.894,2.056,2.056,0,0,1-.686.42,2.224,2.224,0,0,1-.775.139,2.156,2.156,0,0,1-.679-.109,1.833,1.833,0,0,1-.442-.216,1.507,1.507,0,0,1-.48-.521,1.564,1.564,0,0,1-.183-.76,2.105,2.105,0,0,1,.459-1.312,2.706,2.706,0,0,1,.833-.712,6.76,6.76,0,0,1,1.69-.646,7.8,7.8,0,0,1,1.794-.2,9.945,9.945,0,0,1,3.019.494,11.637,11.637,0,0,1,2.751,1.3,8.9,8.9,0,0,1,3.074,3.424A9.821,9.821,0,0,1,69,14.3q0,.507-.051,1.016a3.463,3.463,0,0,1-.3,1.086A3.6,3.6,0,0,1,67.6,17.734a2.7,2.7,0,0,1-.7.393,2.178,2.178,0,0,1-.761.141,2.1,2.1,0,0,1-.588-.085,2.486,2.486,0,0,1-.608-.275,2.082,2.082,0,0,1-.737-.783,2.155,2.155,0,0,1-.255-1.021,2.187,2.187,0,0,1,.267-1.046,2.906,2.906,0,0,1,.455-.633,2.285,2.285,0,0,1,.826-.556,2.644,2.644,0,0,1,.96-.17,3.815,3.815,0,0,1,.94.125,5.546,5.546,0,0,1,1.392.583,6.067,6.067,0,0,1,1.172.889,10.72,10.72,0,0,1,2.414,3.674,11.8,11.8,0,0,1,.832,4.348,11.389,11.389,0,0,1-.058,1.154,6.435,6.435,0,0,1-.209,1.11,4.445,4.445,0,0,1-.721,1.5,2.988,2.988,0,0,1-.563.566,2.722,2.722,0,0,1-.717.39,3.939,3.939,0,0,1-1.345.232,4.809,4.809,0,0,1-1.139-.143,7.494,7.494,0,0,1-1.666-.641,13.985,13.985,0,0,1-1.543-.938c-2.535-1.746-5.027-3.767-7.7-5.43a25.708,25.708,0,0,0-4.182-2.145,16.792,16.792,0,0,0-4.63-1.123c-.489-.044-.981-.067-1.473-.067a15.628,15.628,0,0,0-4.505.654,13.544,13.544,0,0,0-4.072,2,6.99,6.99,0,0,0-1.164,1.037,4.153,4.153,0,0,0-.463.638,3.3,3.3,0,0,0-.319.731,2.928,2.928,0,0,0-.118.825,3.3,3.3,0,0,0,.189,1.082,4.011,4.011,0,0,0,.872,1.415,4.075,4.075,0,0,0,1.37.96,5.107,5.107,0,0,0,1.983.381,7.606,7.606,0,0,0,3.035-.69,8.26,8.26,0,0,0,1.737-1.022,5.813,5.813,0,0,0,1.368-1.488,6.255,6.255,0,0,0,.631-1.378,14.791,14.791,0,0,0,.482-2.171,19.4,19.4,0,0,1,.427-2.118,10.9,10.9,0,0,1,2.775-4.792A8.692,8.692,0,0,1,53.7,12.257a8.1,8.1,0,0,1,2.686-.8,6.736,6.736,0,0,1,.777-.046,4.828,4.828,0,0,1,1.1.117,3.394,3.394,0,0,1,.994.4,2.618,2.618,0,0,1,.866.857,2.319,2.319,0,0,1,.251.546,1.944,1.944,0,0,1,.089.572,1.759,1.759,0,0,1-.045.389,1.843,1.843,0,0,1-.374.755,2.46,2.46,0,0,1-.481.449,3.817,3.817,0,0,1-.948.486,5.385,5.385,0,0,1-1.066.261,9.545,9.545,0,0,1-1.336.093,12.166,12.166,0,0,1-4.674-1.014,20.236,20.236,0,0,1-4.259-2.486c-.579-.432-1.147-.89-1.731-1.334a18.471,18.471,0,0,0-1.824-1.25,8.7,8.7,0,0,0-1.89-.835,6.94,6.94,0,0,0-2-.3,6.51,6.51,0,0,0-1.985.311,9.836,9.836,0,0,0-3.89,2.391,10,10,0,0,0-2.444,3.857,4.759,4.759,0,0,0-.278,1.5,2.734,2.734,0,0,0,.1.748,2.116,2.116,0,0,0,.34.69,2.477,2.477,0,0,0,.513.5,2.9,2.9,0,0,0,.958.45,4.142,4.142,0,0,0,1.085.135,6.267,6.267,0,0,0,2.2-.428,6.012,6.012,0,0,0,.963-.467,4.153,4.153,0,0,0,.768-.584,2.67,2.67,0,0,0,.551-.787,2.158,2.158,0,0,0,.2-.888,1.67,1.67,0,0,0-.074-.5,1.45,1.45,0,0,0-.415-.647A1.846,1.846,0,0,0,37.646,15a3,3,0,0,0-.777-.1,3.2,3.2,0,0,0-.879.127,4.583,4.583,0,0,0-1.4.712,9.946,9.946,0,0,0-1.758,1.716c-.518.625-.966,1.259-1.332,1.766a12.235,12.235,0,0,0-1.474,2.652,8.172,8.172,0,0,0-.6,2.978,6.444,6.444,0,0,0,.2,1.587,5.832,5.832,0,0,0,2.736,3.65,7.577,7.577,0,0,0,2.652.943,10.858,10.858,0,0,0,1.775.138,17.457,17.457,0,0,0,2.019-.13,28.87,28.87,0,0,0,3.178-.641,13.852,13.852,0,0,1,3.116-.444c.14,0,.28,0,.42.011a32.068,32.068,0,0,1,3.472.309,9.422,9.422,0,0,1,3.169,1.055c1.145.65,2.3,1.391,3.512,1.985a12.189,12.189,0,0,0,1.867.749,7.809,7.809,0,0,0,1.989.339c.07,0,.139,0,.209,0a5.379,5.379,0,0,0,1.5-.2,3.926,3.926,0,0,0,1.355-.689,3.548,3.548,0,0,0,1.036-1.383,4.342,4.342,0,0,0,.339-1.7,4.471,4.471,0,0,0-.357-1.761,5.434,5.434,0,0,0-1.571-2.04,7.236,7.236,0,0,0-2.269-1.243,3.947,3.947,0,0,0-1.277-.2,10.474,10.474,0,0,0-1.966.249,13.482,13.482,0,0,1-1.885.284c-.143.007-.291.009-.444.009-.356,0-.734-.015-1.123-.031s-.787-.031-1.185-.031a7.128,7.128,0,0,0-2.021.236,3.5,3.5,0,0,0-.9.406,2.91,2.91,0,0,0-.746.694,4.3,4.3,0,0,0-.661,1.254,4.207,4.207,0,0,0-.2,1.308,5.491,5.491,0,0,0,.351,1.865,9.308,9.308,0,0,0,1.477,2.554,12.333,12.333,0,0,0,1.972,1.973c.592.468,1.2.9,1.794,1.351a15.1,15.1,0,0,1,1.671,1.427,6.27,6.27,0,0,1,1.434,2.221,7.285,7.285,0,0,1,.431,2.567q0,.478-.048.977a5.638,5.638,0,0,1-.473,1.66.245.245,0,1,0,.45.2,6.174,6.174,0,0,0,.512-1.809c.032-.346.049-.687.049-1.023a7.76,7.76,0,0,0-.462-2.738,6.756,6.756,0,0,0-1.544-2.395,15.694,15.694,0,0,0-1.724-1.473c-.6-.454-1.208-.887-1.786-1.344a11.711,11.711,0,0,1-2.448-2.661,8.035,8.035,0,0,1-.844-1.649,4.972,4.972,0,0,1-.321-1.7,3.687,3.687,0,0,1,.18-1.156,3.774,3.774,0,0,1,.586-1.111,2.384,2.384,0,0,1,.621-.577,3.34,3.34,0,0,1,1.209-.453,7.974,7.974,0,0,1,1.444-.111c.385,0,.777.016,1.166.031s.772.032,1.142.032c.159,0,.314,0,.467-.01a13.956,13.956,0,0,0,1.955-.293,10.094,10.094,0,0,1,1.873-.239,3.487,3.487,0,0,1,1.12.168,6.757,6.757,0,0,1,2.114,1.158,4.964,4.964,0,0,1,1.433,1.855,3.986,3.986,0,0,1,.317,1.567,3.848,3.848,0,0,1-.3,1.506,3.041,3.041,0,0,1-.891,1.193,3.427,3.427,0,0,1-1.186.6,4.894,4.894,0,0,1-1.363.184q-.1,0-.192,0a7.362,7.362,0,0,1-1.866-.319,13.807,13.807,0,0,1-2.67-1.178c-.874-.481-1.736-1.018-2.607-1.513a9.9,9.9,0,0,0-3.331-1.112,32.436,32.436,0,0,0-3.525-.315c-.15-.008-.3-.011-.447-.011a14.313,14.313,0,0,0-3.226.456,28.622,28.622,0,0,1-3.124.632,17.123,17.123,0,0,1-1.963.127,10.386,10.386,0,0,1-1.7-.132,6.742,6.742,0,0,1-3.173-1.363,5.326,5.326,0,0,1-1.12-1.245,5.45,5.45,0,0,1-.7-1.621,5.933,5.933,0,0,1-.18-1.467,7.645,7.645,0,0,1,.569-2.8A11.694,11.694,0,0,1,31.9,19.506c.28-.388.6-.843.963-1.3a11.167,11.167,0,0,1,1.845-1.938,4.723,4.723,0,0,1,1.055-.637,2.855,2.855,0,0,1,1.107-.238,2.562,2.562,0,0,1,.651.086,1.56,1.56,0,0,1,.426.18,1,1,0,0,1,.366.391,1.1,1.1,0,0,1,.115.5,1.663,1.663,0,0,1-.158.685,2.154,2.154,0,0,1-.449.64,3.657,3.657,0,0,1-.677.514,5.815,5.815,0,0,1-1.377.594,5.53,5.53,0,0,1-1.531.231A3.4,3.4,0,0,1,32.991,19a2.275,2.275,0,0,1-.509-.278,1.971,1.971,0,0,1-.411-.4,1.593,1.593,0,0,1-.26-.529,2.22,2.22,0,0,1-.08-.613,4.3,4.3,0,0,1,.253-1.346,9.5,9.5,0,0,1,2.324-3.666A9.34,9.34,0,0,1,38,9.891,6.031,6.031,0,0,1,39.838,9.6a6.431,6.431,0,0,1,1.857.28,8.258,8.258,0,0,1,1.783.788,17.9,17.9,0,0,1,1.775,1.218c.577.438,1.146.9,1.735,1.336a20.75,20.75,0,0,0,4.363,2.546,12.659,12.659,0,0,0,4.863,1.051,10.071,10.071,0,0,0,1.4-.1,6.039,6.039,0,0,0,1.036-.241,4.216,4.216,0,0,0,1.4-.757,2.709,2.709,0,0,0,.522-.588,2.3,2.3,0,0,0,.316-.74,2.186,2.186,0,0,0,.057-.5,2.406,2.406,0,0,0-.111-.716,2.9,2.9,0,0,0-.513-.959,3.109,3.109,0,0,0-.818-.72,3.888,3.888,0,0,0-1.138-.453,5.352,5.352,0,0,0-1.21-.13,7.223,7.223,0,0,0-.834.05,8.577,8.577,0,0,0-2.847.846A9.509,9.509,0,0,0,50.19,14.58,11.733,11.733,0,0,0,48.243,18.5c-.27.953-.385,1.941-.564,2.889a11.022,11.022,0,0,1-.339,1.382,5.707,5.707,0,0,1-.581,1.269,5.318,5.318,0,0,1-1.253,1.362,7.793,7.793,0,0,1-1.634.961,7.155,7.155,0,0,1-2.837.648,4.578,4.578,0,0,1-1.792-.344,3.637,3.637,0,0,1-1.52-1.226,3.42,3.42,0,0,1-.45-.858,2.789,2.789,0,0,1-.161-.92,2.4,2.4,0,0,1,.1-.686,2.78,2.78,0,0,1,.271-.623,4.032,4.032,0,0,1,.654-.823,7.365,7.365,0,0,1,.839-.7A13.059,13.059,0,0,1,42.9,18.9a15.126,15.126,0,0,1,4.364-.632q.715,0,1.429.065a16.278,16.278,0,0,1,4.495,1.09,29.936,29.936,0,0,1,6.057,3.4c1.933,1.341,3.81,2.805,5.727,4.126a13.072,13.072,0,0,0,2.172,1.243,7.393,7.393,0,0,0,1.2.409,5.343,5.343,0,0,0,1.254.156,4.439,4.439,0,0,0,1.511-.261,3.189,3.189,0,0,0,1.087-.661,4.2,4.2,0,0,0,1.02-1.533,6.531,6.531,0,0,0,.425-1.78,11.809,11.809,0,0,0,.061-1.2,12.276,12.276,0,0,0-.868-4.53,11.193,11.193,0,0,0-2.525-3.841,6.591,6.591,0,0,0-1.756-1.221,5.72,5.72,0,0,0-1.031-.377,4.284,4.284,0,0,0-1.061-.141,3.3,3.3,0,0,0-.768.088,2.77,2.77,0,0,0-1.061.509,3.211,3.211,0,0,0-.843,1.018,2.672,2.672,0,0,0-.013,2.534,2.571,2.571,0,0,0,.911.968,2.969,2.969,0,0,0,.728.328,2.56,2.56,0,0,0,.726.105,2.719,2.719,0,0,0,1.222-.3,3.739,3.739,0,0,0,1.411-1.28,4.055,4.055,0,0,0,.667-1.81,10.569,10.569,0,0,0,.054-1.066,10.314,10.314,0,0,0-1.125-4.7,9.4,9.4,0,0,0-3.245-3.612,12.133,12.133,0,0,0-2.867-1.36,10.421,10.421,0,0,0-3.169-.518,7.656,7.656,0,0,0-3.72.911,3.178,3.178,0,0,0-.986.842,2.607,2.607,0,0,0-.561,1.611,2.081,2.081,0,0,0,.194.9,1.935,1.935,0,0,0,.365.522,2.191,2.191,0,0,0,.782.507,2.628,2.628,0,0,0,.934.169,2.714,2.714,0,0,0,.946-.169,2.558,2.558,0,0,0,.849-.521,3.3,3.3,0,0,0,.776-1.051A2.722,2.722,0,0,0,58.91,6.7a3.336,3.336,0,0,0-.149-.96,5.429,5.429,0,0,0-.83-1.6,10.314,10.314,0,0,0-2.017-2.024,11.371,11.371,0,0,0-1.1-.752A7.566,7.566,0,0,0,53.8.85,10.311,10.311,0,0,0,49.881.112,14.892,14.892,0,0,0,45.029,1a8.885,8.885,0,0,0-1.147.5A7.766,7.766,0,0,0,43,2.019a4.718,4.718,0,0,0-1.1,1.03,2.6,2.6,0,0,0-.349.625,1.911,1.911,0,0,0,.039,1.488,2.909,2.909,0,0,0,.535.8,2.4,2.4,0,0,0,.848.59,2.625,2.625,0,0,0,1.008.2,2.4,2.4,0,0,0,1.08-.249,2.436,2.436,0,0,0,.985-.929,2.548,2.548,0,0,0,.367-1.3,2.259,2.259,0,0,0-.046-.455,2.532,2.532,0,0,0-.232-.654,3.136,3.136,0,0,0-.619-.818,3.868,3.868,0,0,0-.825-.6,11.187,11.187,0,0,0-5.4-1.371,11.784,11.784,0,0,0-6.009,1.653A15.528,15.528,0,0,0,30.5,4.115,7.2,7.2,0,0,0,29.3,5.582a3.981,3.981,0,0,0-.369.808,2.8,2.8,0,0,0-.138.848A2.4,2.4,0,0,0,28.916,8a2.712,2.712,0,0,0,.385.739,2.354,2.354,0,0,0,.849.716,2.413,2.413,0,0,0,1.078.26,2.181,2.181,0,0,0,.255-.015,2,2,0,0,0,.656-.188,1.556,1.556,0,0,0,.547-.437,1.445,1.445,0,0,0,.235-.456,1.664,1.664,0,0,0,.072-.494,2.035,2.035,0,0,0-.255-.974,2.43,2.43,0,0,0-.513-.64,3.048,3.048,0,0,0-1.054-.6,3.759,3.759,0,0,0-1.2-.2h-.06a7.01,7.01,0,0,0-3.265.886,9.513,9.513,0,0,0-3.6,3.653,10.248,10.248,0,0,0-1.376,5,7.971,7.971,0,0,0,.32,2.272A6.926,6.926,0,0,0,23,19.6a2.928,2.928,0,0,0,1.074.891,3.138,3.138,0,0,0,1.387.34,2.436,2.436,0,0,0,.69-.1,2.086,2.086,0,0,0,.636-.31,1.927,1.927,0,0,0,.628-.761,2.195,2.195,0,0,0,.2-.925,2.564,2.564,0,0,0-.177-.93,2.472,2.472,0,0,0-.507-.8,2.542,2.542,0,0,0-.952-.622,3.156,3.156,0,0,0-1.111-.2,3.247,3.247,0,0,0-.719.08,4.388,4.388,0,0,0-1.517.641,3.9,3.9,0,0,0-.829.761,4.325,4.325,0,0,0-.764,1.456,5.692,5.692,0,0,0-.24,1.67,7.276,7.276,0,0,0,.688,3.035,6.619,6.619,0,0,0,.809,1.311,5.162,5.162,0,0,0,1.081,1.025,6.749,6.749,0,0,0,1.833.9,7.688,7.688,0,0,0,1.991.342.245.245,0,1,0,.02-.49"/>
  <path class="cls-3" d="M27.217,26.915a7.133,7.133,0,0,1-1.863-.32,6.244,6.244,0,0,1-1.7-.831,4.679,4.679,0,0,1-.978-.928,6.334,6.334,0,0,1-1.022-1.892,6.678,6.678,0,0,1-.367-2.148,5.275,5.275,0,0,1,.172-1.365,4.117,4.117,0,0,1,.363-.916,3.44,3.44,0,0,1,.946-1.1,3.823,3.823,0,0,1,1.485-.667,2.827,2.827,0,0,1,.612-.067,2.669,2.669,0,0,1,.937.166,2.057,2.057,0,0,1,.771.5,2,2,0,0,1,.405.646,2.079,2.079,0,0,1,.144.751,1.708,1.708,0,0,1-.152.719,1.453,1.453,0,0,1-.47.57,1.6,1.6,0,0,1-.487.236,1.938,1.938,0,0,1-.552.077,2.662,2.662,0,0,1-1.168-.289,2.433,2.433,0,0,1-.894-.737,6.456,6.456,0,0,1-.94-1.934,7.5,7.5,0,0,1-.3-2.133,9.382,9.382,0,0,1,.6-3.238,9.9,9.9,0,0,1,2.8-4.074A7.6,7.6,0,0,1,27.6,6.684,6.361,6.361,0,0,1,29.918,6.2h.052a3.173,3.173,0,0,1,1.366.3,2.414,2.414,0,0,1,.562.371,1.955,1.955,0,0,1,.411.512,1.559,1.559,0,0,1,.194.737,1.185,1.185,0,0,1-.051.35.921.921,0,0,1-.153.3,1.059,1.059,0,0,1-.376.3,1.54,1.54,0,0,1-.5.141,1.648,1.648,0,0,1-.2.011,1.919,1.919,0,0,1-.857-.207,1.858,1.858,0,0,1-.673-.566,2.2,2.2,0,0,1-.316-.6,1.916,1.916,0,0,1-.1-.6,2.3,2.3,0,0,1,.115-.7,4.14,4.14,0,0,1,.682-1.234A9.843,9.843,0,0,1,31.8,3.633a16.48,16.48,0,0,1,1.732-1.186A11.294,11.294,0,0,1,39.286.862a10.7,10.7,0,0,1,5.164,1.31,3.312,3.312,0,0,1,.923.74,2.51,2.51,0,0,1,.321.475,2.039,2.039,0,0,1,.187.528,1.779,1.779,0,0,1,.036.357,2.055,2.055,0,0,1-.3,1.047,1.945,1.945,0,0,1-.784.743,1.924,1.924,0,0,1-.86.2,2.134,2.134,0,0,1-.819-.164,1.939,1.939,0,0,1-.676-.469,2.474,2.474,0,0,1-.447-.66,1.418,1.418,0,0,1-.051-1.06,2.316,2.316,0,0,1,.484-.783,5.385,5.385,0,0,1,1.289-1.005,8.411,8.411,0,0,1,1.434-.66A14.416,14.416,0,0,1,49.881.6a9.832,9.832,0,0,1,3.73.7,8.3,8.3,0,0,1,1.5.834,10.484,10.484,0,0,1,2.274,2.091,5.757,5.757,0,0,1,.756,1.235A3.1,3.1,0,0,1,58.419,6.7a2.23,2.23,0,0,1-.2.93,2.832,2.832,0,0,1-.664.894,2.056,2.056,0,0,1-.686.42,2.224,2.224,0,0,1-.775.139,2.156,2.156,0,0,1-.679-.109,1.833,1.833,0,0,1-.442-.216,1.507,1.507,0,0,1-.48-.521,1.564,1.564,0,0,1-.183-.76,2.105,2.105,0,0,1,.459-1.312,2.706,2.706,0,0,1,.833-.712,6.76,6.76,0,0,1,1.69-.646,7.8,7.8,0,0,1,1.794-.2,9.945,9.945,0,0,1,3.019.494,11.637,11.637,0,0,1,2.751,1.3,8.9,8.9,0,0,1,3.074,3.424A9.821,9.821,0,0,1,69,14.3q0,.507-.051,1.016a3.463,3.463,0,0,1-.3,1.086A3.6,3.6,0,0,1,67.6,17.734a2.7,2.7,0,0,1-.7.393,2.178,2.178,0,0,1-.761.141,2.1,2.1,0,0,1-.588-.085,2.486,2.486,0,0,1-.608-.275,2.082,2.082,0,0,1-.737-.783,2.155,2.155,0,0,1-.255-1.021,2.187,2.187,0,0,1,.267-1.046,2.906,2.906,0,0,1,.455-.633,2.285,2.285,0,0,1,.826-.556,2.644,2.644,0,0,1,.96-.17,3.815,3.815,0,0,1,.94.125,5.546,5.546,0,0,1,1.392.583,6.067,6.067,0,0,1,1.172.889,10.72,10.72,0,0,1,2.414,3.674,11.8,11.8,0,0,1,.832,4.348,11.389,11.389,0,0,1-.058,1.154,6.435,6.435,0,0,1-.209,1.11,4.445,4.445,0,0,1-.721,1.5,2.988,2.988,0,0,1-.563.566,2.722,2.722,0,0,1-.717.39,3.939,3.939,0,0,1-1.345.232,4.809,4.809,0,0,1-1.139-.143,7.494,7.494,0,0,1-1.666-.641,13.985,13.985,0,0,1-1.543-.938c-2.535-1.746-5.027-3.767-7.7-5.43a25.708,25.708,0,0,0-4.182-2.145,16.792,16.792,0,0,0-4.63-1.123c-.489-.044-.981-.067-1.473-.067a15.628,15.628,0,0,0-4.505.654,13.544,13.544,0,0,0-4.072,2,6.99,6.99,0,0,0-1.164,1.037,4.153,4.153,0,0,0-.463.638,3.3,3.3,0,0,0-.319.731,2.928,2.928,0,0,0-.118.825,3.3,3.3,0,0,0,.189,1.082,4.011,4.011,0,0,0,.872,1.415,4.075,4.075,0,0,0,1.37.96,5.107,5.107,0,0,0,1.983.381,7.606,7.606,0,0,0,3.035-.69,8.26,8.26,0,0,0,1.737-1.022,5.813,5.813,0,0,0,1.368-1.488,6.255,6.255,0,0,0,.631-1.378,14.791,14.791,0,0,0,.482-2.171,19.4,19.4,0,0,1,.427-2.118,10.9,10.9,0,0,1,2.775-4.792A8.692,8.692,0,0,1,53.7,12.257a8.1,8.1,0,0,1,2.686-.8,6.736,6.736,0,0,1,.777-.046,4.828,4.828,0,0,1,1.1.117,3.394,3.394,0,0,1,.994.4,2.618,2.618,0,0,1,.866.857,2.319,2.319,0,0,1,.251.546,1.944,1.944,0,0,1,.089.572,1.759,1.759,0,0,1-.045.389,1.843,1.843,0,0,1-.374.755,2.46,2.46,0,0,1-.481.449,3.817,3.817,0,0,1-.948.486,5.385,5.385,0,0,1-1.066.261,9.545,9.545,0,0,1-1.336.093,12.166,12.166,0,0,1-4.674-1.014,20.236,20.236,0,0,1-4.259-2.486c-.579-.432-1.147-.89-1.731-1.334a18.471,18.471,0,0,0-1.824-1.25,8.7,8.7,0,0,0-1.89-.835,6.94,6.94,0,0,0-2-.3,6.51,6.51,0,0,0-1.985.311,9.836,9.836,0,0,0-3.89,2.391,10,10,0,0,0-2.444,3.857,4.759,4.759,0,0,0-.278,1.5,2.734,2.734,0,0,0,.1.748,2.116,2.116,0,0,0,.34.69,2.477,2.477,0,0,0,.513.5,2.9,2.9,0,0,0,.958.45,4.142,4.142,0,0,0,1.085.135,6.267,6.267,0,0,0,2.2-.428,6.012,6.012,0,0,0,.963-.467,4.153,4.153,0,0,0,.768-.584,2.67,2.67,0,0,0,.551-.787,2.158,2.158,0,0,0,.2-.888,1.67,1.67,0,0,0-.074-.5,1.45,1.45,0,0,0-.415-.647A1.846,1.846,0,0,0,37.646,15a3,3,0,0,0-.777-.1,3.2,3.2,0,0,0-.879.127,4.583,4.583,0,0,0-1.4.712,9.946,9.946,0,0,0-1.758,1.716c-.518.625-.966,1.259-1.332,1.766a12.235,12.235,0,0,0-1.474,2.652,8.172,8.172,0,0,0-.6,2.978,6.444,6.444,0,0,0,.2,1.587,5.832,5.832,0,0,0,2.736,3.65,7.577,7.577,0,0,0,2.652.943,10.858,10.858,0,0,0,1.775.138,17.457,17.457,0,0,0,2.019-.13,28.87,28.87,0,0,0,3.178-.641,13.852,13.852,0,0,1,3.116-.444c.14,0,.28,0,.42.011a32.068,32.068,0,0,1,3.472.309,9.422,9.422,0,0,1,3.169,1.055c1.145.65,2.3,1.391,3.512,1.985a12.189,12.189,0,0,0,1.867.749,7.809,7.809,0,0,0,1.989.339c.07,0,.139,0,.209,0a5.379,5.379,0,0,0,1.5-.2,3.926,3.926,0,0,0,1.355-.689,3.548,3.548,0,0,0,1.036-1.383,4.342,4.342,0,0,0,.339-1.7,4.471,4.471,0,0,0-.357-1.761,5.434,5.434,0,0,0-1.571-2.04,7.236,7.236,0,0,0-2.269-1.243,3.947,3.947,0,0,0-1.277-.2,10.474,10.474,0,0,0-1.966.249,13.482,13.482,0,0,1-1.885.284c-.143.007-.291.009-.444.009-.356,0-.734-.015-1.123-.031s-.787-.031-1.185-.031a7.128,7.128,0,0,0-2.021.236,3.5,3.5,0,0,0-.9.406,2.91,2.91,0,0,0-.746.694,4.3,4.3,0,0,0-.661,1.254,4.207,4.207,0,0,0-.2,1.308,5.491,5.491,0,0,0,.351,1.865,9.308,9.308,0,0,0,1.477,2.554,12.333,12.333,0,0,0,1.972,1.973c.592.468,1.2.9,1.794,1.351a15.1,15.1,0,0,1,1.671,1.427,6.27,6.27,0,0,1,1.434,2.221,7.285,7.285,0,0,1,.431,2.567q0,.478-.048.977a5.638,5.638,0,0,1-.473,1.66.245.245,0,1,0,.45.2,6.174,6.174,0,0,0,.512-1.809c.032-.346.049-.687.049-1.023a7.76,7.76,0,0,0-.462-2.738,6.756,6.756,0,0,0-1.544-2.395,15.694,15.694,0,0,0-1.724-1.473c-.6-.454-1.208-.887-1.786-1.344a11.711,11.711,0,0,1-2.448-2.661,8.035,8.035,0,0,1-.844-1.649,4.972,4.972,0,0,1-.321-1.7,3.687,3.687,0,0,1,.18-1.156,3.774,3.774,0,0,1,.586-1.111,2.384,2.384,0,0,1,.621-.577,3.34,3.34,0,0,1,1.209-.453,7.974,7.974,0,0,1,1.444-.111c.385,0,.777.016,1.166.031s.772.032,1.142.032c.159,0,.314,0,.467-.01a13.956,13.956,0,0,0,1.955-.293,10.094,10.094,0,0,1,1.873-.239,3.487,3.487,0,0,1,1.12.168,6.757,6.757,0,0,1,2.114,1.158,4.964,4.964,0,0,1,1.433,1.855,3.986,3.986,0,0,1,.317,1.567,3.848,3.848,0,0,1-.3,1.506,3.041,3.041,0,0,1-.891,1.193,3.427,3.427,0,0,1-1.186.6,4.894,4.894,0,0,1-1.363.184q-.1,0-.192,0a7.362,7.362,0,0,1-1.866-.319,13.807,13.807,0,0,1-2.67-1.178c-.874-.481-1.736-1.018-2.607-1.513a9.9,9.9,0,0,0-3.331-1.112,32.436,32.436,0,0,0-3.525-.315c-.15-.008-.3-.011-.447-.011a14.313,14.313,0,0,0-3.226.456,28.622,28.622,0,0,1-3.124.632,17.123,17.123,0,0,1-1.963.127,10.386,10.386,0,0,1-1.7-.132,6.742,6.742,0,0,1-3.173-1.363,5.326,5.326,0,0,1-1.12-1.245,5.45,5.45,0,0,1-.7-1.621,5.933,5.933,0,0,1-.18-1.467,7.645,7.645,0,0,1,.569-2.8A11.694,11.694,0,0,1,31.9,19.506c.28-.388.6-.843.963-1.3a11.167,11.167,0,0,1,1.845-1.938,4.723,4.723,0,0,1,1.055-.637,2.855,2.855,0,0,1,1.107-.238,2.562,2.562,0,0,1,.651.086,1.56,1.56,0,0,1,.426.18,1,1,0,0,1,.366.391,1.1,1.1,0,0,1,.115.5,1.663,1.663,0,0,1-.158.685,2.154,2.154,0,0,1-.449.64,3.657,3.657,0,0,1-.677.514,5.815,5.815,0,0,1-1.377.594,5.53,5.53,0,0,1-1.531.231A3.4,3.4,0,0,1,32.991,19a2.275,2.275,0,0,1-.509-.278,1.971,1.971,0,0,1-.411-.4,1.593,1.593,0,0,1-.26-.529,2.22,2.22,0,0,1-.08-.613,4.3,4.3,0,0,1,.253-1.346,9.5,9.5,0,0,1,2.324-3.666A9.34,9.34,0,0,1,38,9.891,6.031,6.031,0,0,1,39.838,9.6a6.431,6.431,0,0,1,1.857.28,8.258,8.258,0,0,1,1.783.788,17.9,17.9,0,0,1,1.775,1.218c.577.438,1.146.9,1.735,1.336a20.75,20.75,0,0,0,4.363,2.546,12.659,12.659,0,0,0,4.863,1.051,10.071,10.071,0,0,0,1.4-.1,6.039,6.039,0,0,0,1.036-.241,4.216,4.216,0,0,0,1.4-.757,2.709,2.709,0,0,0,.522-.588,2.3,2.3,0,0,0,.316-.74,2.186,2.186,0,0,0,.057-.5,2.406,2.406,0,0,0-.111-.716,2.9,2.9,0,0,0-.513-.959,3.109,3.109,0,0,0-.818-.72,3.888,3.888,0,0,0-1.138-.453,5.352,5.352,0,0,0-1.21-.13,7.223,7.223,0,0,0-.834.05,8.577,8.577,0,0,0-2.847.846A9.509,9.509,0,0,0,50.19,14.58,11.733,11.733,0,0,0,48.243,18.5c-.27.953-.385,1.941-.564,2.889a11.022,11.022,0,0,1-.339,1.382,5.707,5.707,0,0,1-.581,1.269,5.318,5.318,0,0,1-1.253,1.362,7.793,7.793,0,0,1-1.634.961,7.155,7.155,0,0,1-2.837.648,4.578,4.578,0,0,1-1.792-.344,3.637,3.637,0,0,1-1.52-1.226,3.42,3.42,0,0,1-.45-.858,2.789,2.789,0,0,1-.161-.92,2.4,2.4,0,0,1,.1-.686,2.78,2.78,0,0,1,.271-.623,4.032,4.032,0,0,1,.654-.823,7.365,7.365,0,0,1,.839-.7A13.059,13.059,0,0,1,42.9,18.9a15.126,15.126,0,0,1,4.364-.632q.715,0,1.429.065a16.278,16.278,0,0,1,4.495,1.09,29.936,29.936,0,0,1,6.057,3.4c1.933,1.341,3.81,2.805,5.727,4.126a13.072,13.072,0,0,0,2.172,1.243,7.393,7.393,0,0,0,1.2.409,5.343,5.343,0,0,0,1.254.156,4.439,4.439,0,0,0,1.511-.261,3.189,3.189,0,0,0,1.087-.661,4.2,4.2,0,0,0,1.02-1.533,6.531,6.531,0,0,0,.425-1.78,11.809,11.809,0,0,0,.061-1.2,12.276,12.276,0,0,0-.868-4.53,11.193,11.193,0,0,0-2.525-3.841,6.591,6.591,0,0,0-1.756-1.221,5.72,5.72,0,0,0-1.031-.377,4.284,4.284,0,0,0-1.061-.141,3.3,3.3,0,0,0-.768.088,2.77,2.77,0,0,0-1.061.509,3.211,3.211,0,0,0-.843,1.018,2.672,2.672,0,0,0-.013,2.534,2.571,2.571,0,0,0,.911.968,2.969,2.969,0,0,0,.728.328,2.56,2.56,0,0,0,.726.105,2.719,2.719,0,0,0,1.222-.3,3.739,3.739,0,0,0,1.411-1.28,4.055,4.055,0,0,0,.667-1.81,10.569,10.569,0,0,0,.054-1.066,10.314,10.314,0,0,0-1.125-4.7,9.4,9.4,0,0,0-3.245-3.612,12.133,12.133,0,0,0-2.867-1.36,10.421,10.421,0,0,0-3.169-.518,7.656,7.656,0,0,0-3.72.911,3.178,3.178,0,0,0-.986.842,2.607,2.607,0,0,0-.561,1.611,2.081,2.081,0,0,0,.194.9,1.935,1.935,0,0,0,.365.522,2.191,2.191,0,0,0,.782.507,2.628,2.628,0,0,0,.934.169,2.714,2.714,0,0,0,.946-.169,2.558,2.558,0,0,0,.849-.521,3.3,3.3,0,0,0,.776-1.051A2.722,2.722,0,0,0,58.91,6.7a3.336,3.336,0,0,0-.149-.96,5.429,5.429,0,0,0-.83-1.6,10.314,10.314,0,0,0-2.017-2.024,11.371,11.371,0,0,0-1.1-.752A7.566,7.566,0,0,0,53.8.85,10.311,10.311,0,0,0,49.881.112,14.892,14.892,0,0,0,45.029,1a8.885,8.885,0,0,0-1.147.5A7.766,7.766,0,0,0,43,2.019a4.718,4.718,0,0,0-1.1,1.03,2.6,2.6,0,0,0-.349.625,1.911,1.911,0,0,0,.039,1.488,2.909,2.909,0,0,0,.535.8,2.4,2.4,0,0,0,.848.59,2.625,2.625,0,0,0,1.008.2,2.4,2.4,0,0,0,1.08-.249,2.436,2.436,0,0,0,.985-.929,2.548,2.548,0,0,0,.367-1.3,2.259,2.259,0,0,0-.046-.455,2.532,2.532,0,0,0-.232-.654,3.136,3.136,0,0,0-.619-.818,3.868,3.868,0,0,0-.825-.6,11.187,11.187,0,0,0-5.4-1.371,11.784,11.784,0,0,0-6.009,1.653A15.528,15.528,0,0,0,30.5,4.115,7.2,7.2,0,0,0,29.3,5.582a3.981,3.981,0,0,0-.369.808,2.8,2.8,0,0,0-.138.848A2.4,2.4,0,0,0,28.916,8a2.712,2.712,0,0,0,.385.739,2.354,2.354,0,0,0,.849.716,2.413,2.413,0,0,0,1.078.26,2.181,2.181,0,0,0,.255-.015,2,2,0,0,0,.656-.188,1.556,1.556,0,0,0,.547-.437,1.445,1.445,0,0,0,.235-.456,1.664,1.664,0,0,0,.072-.494,2.035,2.035,0,0,0-.255-.974,2.43,2.43,0,0,0-.513-.64,3.048,3.048,0,0,0-1.054-.6,3.759,3.759,0,0,0-1.2-.2h-.06a7.01,7.01,0,0,0-3.265.886,9.513,9.513,0,0,0-3.6,3.653,10.248,10.248,0,0,0-1.376,5,7.971,7.971,0,0,0,.32,2.272A6.926,6.926,0,0,0,23,19.6a2.928,2.928,0,0,0,1.074.891,3.138,3.138,0,0,0,1.387.34,2.436,2.436,0,0,0,.69-.1,2.086,2.086,0,0,0,.636-.31,1.927,1.927,0,0,0,.628-.761,2.195,2.195,0,0,0,.2-.925,2.564,2.564,0,0,0-.177-.93,2.472,2.472,0,0,0-.507-.8,2.542,2.542,0,0,0-.952-.622,3.156,3.156,0,0,0-1.111-.2,3.247,3.247,0,0,0-.719.08,4.388,4.388,0,0,0-1.517.641,3.9,3.9,0,0,0-.829.761,4.325,4.325,0,0,0-.764,1.456,5.692,5.692,0,0,0-.24,1.67,7.276,7.276,0,0,0,.688,3.035,6.619,6.619,0,0,0,.809,1.311,5.162,5.162,0,0,0,1.081,1.025,6.749,6.749,0,0,0,1.833.9,7.688,7.688,0,0,0,1.991.342.245.245,0,1,0,.02-.49Z"/>
</svg>
