<svg xmlns="http://www.w3.org/2000/svg" viewBox="0 0 25.532 19.736">
  <defs>
    <style>
      .cls-1 {
        fill: #3d5e57;
      }
    </style>
  </defs>
  <g id="Ebene_2" data-name="Ebene 2">
    <g id="Ebene_1-2" data-name="Ebene 1">
      <g>
        <path class="cls-1" d="M7.546,13.173a.451.451,0,0,1-.9,0v-2.8a.322.322,0,0,0-.644,0v8.278a.442.442,0,0,1-.442.442H4.417V14.855a.322.322,0,0,0-.644,0v4.236H2.632a.443.443,0,0,1-.442-.446V10.371a.323.323,0,0,0-.645,0v2.8a.451.451,0,0,1-.9,0V10.641A1.715,1.715,0,0,1,2.475,8.708h3.24a1.715,1.715,0,0,1,1.831,1.933ZM2.889,6.859A1.206,1.206,0,1,1,4.1,8.064a1.207,1.207,0,0,1-1.206-1.2M5.715,8.064H5.5a1.85,1.85,0,1,0-2.8,0h-.22A2.345,2.345,0,0,0,0,10.641v2.532a1.1,1.1,0,0,0,1.094,1.1,1.082,1.082,0,0,0,.451-.1v4.481a1.089,1.089,0,0,0,1.087,1.087H5.558a1.089,1.089,0,0,0,1.086-1.091V14.168a1.082,1.082,0,0,0,.451.1,1.1,1.1,0,0,0,1.095-1.1V10.641A2.345,2.345,0,0,0,5.715,8.064"/>
        <path class="cls-1" d="M24.887,13.173a.451.451,0,0,1-.9,0v-2.8a.322.322,0,0,0-.644,0v8.278a.443.443,0,0,1-.443.442h-1.14V14.855a.323.323,0,0,0-.645,0v4.236H19.973a.443.443,0,0,1-.442-.446V10.371a.322.322,0,0,0-.644,0v2.8a.451.451,0,0,1-.9,0V10.641a1.715,1.715,0,0,1,1.831-1.933h3.24a1.715,1.715,0,0,1,1.831,1.933ZM20.231,6.859a1.206,1.206,0,1,1,1.206,1.205,1.207,1.207,0,0,1-1.206-1.2m2.825,1.205h-.22a1.849,1.849,0,1,0-2.8,0h-.22a2.345,2.345,0,0,0-2.475,2.577v2.532a1.1,1.1,0,0,0,1.095,1.1,1.082,1.082,0,0,0,.451-.1v4.481a1.088,1.088,0,0,0,1.086,1.087H22.9a1.09,1.09,0,0,0,1.087-1.091V14.168a1.082,1.082,0,0,0,.451.1,1.1,1.1,0,0,0,1.095-1.1V10.641a2.345,2.345,0,0,0-2.476-2.577"/>
        <path class="cls-1" d="M16.173,8.164a.451.451,0,0,1-.9,0v-2.8a.322.322,0,1,0-.644,0V13.64a.443.443,0,0,1-.443.442h-1.14V9.846a.323.323,0,0,0-.645,0v4.236H11.259a.443.443,0,0,1-.442-.446V5.362a.322.322,0,1,0-.644,0v2.8a.451.451,0,0,1-.9,0V5.632A1.715,1.715,0,0,1,11.1,3.7h3.24a1.715,1.715,0,0,1,1.831,1.933ZM11.517,1.85a1.206,1.206,0,1,1,1.206,1.205,1.207,1.207,0,0,1-1.206-1.2m2.825,1.205h-.22a1.849,1.849,0,1,0-2.8,0H11.1A2.345,2.345,0,0,0,8.627,5.632V8.164a1.1,1.1,0,0,0,1.095,1.1,1.082,1.082,0,0,0,.451-.1V13.64a1.088,1.088,0,0,0,1.086,1.087h2.926a1.09,1.09,0,0,0,1.087-1.091V9.159a1.082,1.082,0,0,0,.451.1,1.1,1.1,0,0,0,1.1-1.1V5.632a2.345,2.345,0,0,0-2.476-2.577"/>
      </g>
    </g>
  </g>
</svg>
