<svg xmlns="http://www.w3.org/2000/svg" viewBox="0 0 19.968 22.351">
  <defs>
    <style>
      .cls-1 {
        fill: #3d5e57;
      }
    </style>
  </defs>
  <g id="Ebene_2" data-name="Ebene 2">
    <g id="Ebene_1-2" data-name="Ebene 1">
      <g>
        <path class="cls-1" d="M9.984,22.351a.418.418,0,0,1-.418-.418V.418a.418.418,0,0,1,.836,0V21.933a.418.418,0,0,1-.418.418"/>
        <path class="cls-1" d="M.836,1.421v.835a1.7,1.7,0,0,0,1.7,1.7H6.378V3.122a1.7,1.7,0,0,0-1.7-1.7ZM6.8,4.792H2.536A2.539,2.539,0,0,1,0,2.256V1A.418.418,0,0,1,.418.586h4.26A2.539,2.539,0,0,1,7.214,3.122V4.374a.418.418,0,0,1-.418.418"/>
        <path class="cls-1" d="M9.984,6.477a.415.415,0,0,1-.2-.049l-6.4-3.382a.418.418,0,0,1,.391-.739l6.4,3.383a.418.418,0,0,1-.2.787"/>
        <path class="cls-1" d="M13.59,7.232h3.842a1.7,1.7,0,0,0,1.7-1.7V4.7H15.291a1.7,1.7,0,0,0-1.7,1.7Zm3.842.836h-4.26a.418.418,0,0,1-.418-.418V6.4a2.54,2.54,0,0,1,2.537-2.536H19.55a.418.418,0,0,1,.418.418V5.532a2.539,2.539,0,0,1-2.536,2.536"/>
        <path class="cls-1" d="M13.59,16.888h3.842a1.7,1.7,0,0,0,1.7-1.7v-.834H15.291a1.7,1.7,0,0,0-1.7,1.7Zm3.842.836h-4.26a.418.418,0,0,1-.418-.418V16.054a2.54,2.54,0,0,1,2.537-2.536H19.55a.418.418,0,0,1,.418.418v1.252a2.539,2.539,0,0,1-2.536,2.536"/>
        <path class="cls-1" d="M6.509,11.365H3.228A1.453,1.453,0,0,1,1.776,9.913V9.2h3.28a1.454,1.454,0,0,1,1.453,1.452Zm-3.281.714H6.865a.357.357,0,0,0,.357-.357V10.653A2.168,2.168,0,0,0,5.056,8.487H1.419a.357.357,0,0,0-.357.357V9.913a2.169,2.169,0,0,0,2.166,2.166"/>
        <path class="cls-1" d="M9.984,9.753a.418.418,0,0,1-.2-.787l6.4-3.383a.418.418,0,0,1,.391.739L10.179,9.7a.415.415,0,0,1-.2.049"/>
        <path class="cls-1" d="M9.984,19.409a.418.418,0,0,1-.2-.787l6.4-3.383a.418.418,0,0,1,.391.739l-6.4,3.382a.415.415,0,0,1-.2.049"/>
        <path class="cls-1" d="M9.588,13.518a.357.357,0,0,0,.167-.672L4.29,9.957a.357.357,0,1,0-.334.631l5.465,2.889a.361.361,0,0,0,.167.041"/>
      </g>
    </g>
  </g>
</svg>
