<svg xmlns="http://www.w3.org/2000/svg" viewBox="0 0 25.332 25.169">
  <defs>
    <style>
      .cls-1 {
        fill: #3d5e57;
      }
    </style>
  </defs>
  <g id="Ebene_2" data-name="Ebene 2">
    <g id="Ebene_1-2" data-name="Ebene 1">
      <path class="cls-1" d="M1.76,21.362a.386.386,0,0,1-.273-.659l6.527-6.528a.386.386,0,0,1,.546.546L2.033,21.249a.385.385,0,0,1-.273.113"/>
      <path class="cls-1" d="M4.356,23.958a.386.386,0,0,1-.273-.659l6.527-6.528a.386.386,0,0,1,.546.546L4.629,23.845a.385.385,0,0,1-.273.113"/>
      <path class="cls-1" d="M12.644,22.263a.386.386,0,0,1-.273-.659c2.431-2.432,2.052-3.892,1.555-4.779a.386.386,0,0,1,.674-.377c.813,1.45.56,2.992-.777,4.69a5.983,5.983,0,0,0,2.742-2.316,5.019,5.019,0,0,0,.823-3.777.386.386,0,1,1,.747-.2,5.726,5.726,0,0,1-.921,4.391,6.665,6.665,0,0,1-4.5,3.016Z"/>
      <path class="cls-1" d="M3.455,13.074a.386.386,0,0,1-.38-.451,6.662,6.662,0,0,1,3.016-4.5,5.724,5.724,0,0,1,4.39-.921.386.386,0,0,1-.2.747,5.013,5.013,0,0,0-3.776.823,5.972,5.972,0,0,0-2.316,2.742c1.7-1.337,3.24-1.59,4.69-.777a.386.386,0,1,1-.378.673c-.887-.5-2.347-.876-4.778,1.556a.386.386,0,0,1-.273.113"/>
      <path class="cls-1" d="M8.947,11.731,13.6,16.385c.668-.11,3.268-.712,6.257-3.7,3.215-3.215,4.66-8.22,4.7-11.91-3.691.041-8.7,1.485-11.911,4.7-2.988,2.988-3.591,5.586-3.7,6.256m4.516,5.448a.385.385,0,0,1-.273-.113L8.266,12.142a.39.39,0,0,1-.112-.3c.01-.131.268-3.234,3.948-6.913C15.588,1.442,21.064-.059,24.95,0a.387.387,0,0,1,.381.38c.06,3.883-1.44,9.362-4.927,12.848-3.68,3.68-6.783,3.939-6.914,3.948Z"/>
      <path class="cls-1" d="M15.725,6.393a2.273,2.273,0,1,0,1.607-.665A2.257,2.257,0,0,0,15.725,6.393Zm1.607,4.649a3.042,3.042,0,1,1,2.152-.89,3.038,3.038,0,0,1-2.152.89"/>
      <path class="cls-1" d="M8.141,13.755l3.436,3.436.869-.869L9.01,12.885Zm3.436,4.368a.385.385,0,0,1-.273-.113L7.322,14.028a.384.384,0,0,1,0-.546l1.415-1.416a.387.387,0,0,1,.546,0l3.982,3.983a.386.386,0,0,1,0,.546L11.85,18.01a.385.385,0,0,1-.273.113"/>
      <path class="cls-1" d="M.505,25.169a.509.509,0,0,1-.357-.146.494.494,0,0,1,0-.7l8.536-8.424a.511.511,0,0,1,.714,0,.494.494,0,0,1,0,.705L.862,25.023a.509.509,0,0,1-.357.146"/>
    </g>
  </g>
</svg>
