<svg xmlns="http://www.w3.org/2000/svg" viewBox="0 0 30.733 21.098">
  <defs>
    <style>
      .cls-1 {
        fill: #fff;
      }

      .cls-2, .cls-3 {
        fill: none;
        stroke: #3d5e57;
        stroke-width: 1.064px;
      }

      .cls-3 {
        stroke-linecap: square;
      }
    </style>
  </defs>
  <g id="Ebene_2" data-name="Ebene 2">
    <g id="Ebene_1-2" data-name="Ebene 1">
      <g>
        <path class="cls-1" d="M12.24,14.219c4.787-.534,8.44-3.374,8.44-6.8,0-3.8-4.51-6.888-10.074-6.888S.532,3.616.532,7.42c0,2.892,3.3,5.093,6.9,6.389.989.985,5.11,5.039,5.11,5.039Z"/>
        <path class="cls-2" d="M12.24,14.219c4.787-.534,8.44-3.374,8.44-6.8,0-3.8-4.51-6.888-10.074-6.888S.532,3.616.532,7.42c0,2.892,3.3,5.093,6.9,6.389.989.985,5.11,5.039,5.11,5.039Z"/>
      </g>
      <path class="cls-1" d="M22,15.793a10.72,10.72,0,0,0,1.628-.076c3.941-.484,6.874-3.01,6.55-5.642S26.4,5.7,22.456,6.184s-6.873,3.01-6.55,5.643a4.422,4.422,0,0,0,3.026,3.35c-.206.848-.834,4.395-.834,4.395Z"/>
      <path class="cls-3" d="M22,15.793a10.72,10.72,0,0,0,1.628-.076c3.941-.484,6.874-3.01,6.55-5.642S26.4,5.7,22.456,6.184s-6.873,3.01-6.55,5.643a4.422,4.422,0,0,0,3.026,3.35c-.206.848-.834,4.395-.834,4.395Z"/>
    </g>
  </g>
</svg>
