<svg xmlns="http://www.w3.org/2000/svg" viewBox="0 0 331.459 262.698">
  <defs>
    <style>
      .cls-1 {
        fill: #858740;
      }

      .cls-2 {
        fill: #89115d;
      }

      .cls-3 {
        fill: #44484d;
      }

      .cls-4 {
        fill: #cbcccc;
      }

      .cls-5 {
        fill: #989698;
      }

      .cls-6 {
        fill: #fff;
      }

      .cls-10, .cls-12, .cls-7, .cls-9 {
        fill: none;
      }

      .cls-7, .cls-9 {
        stroke: #fff;
      }

      .cls-7 {
        stroke-width: 0.896px;
      }

      .cls-8 {
        fill: #3d5e57;
      }

      .cls-9 {
        stroke-width: 0.997px;
      }

      .cls-10, .cls-12 {
        stroke: #89115d;
        stroke-miterlimit: 10;
      }

      .cls-10 {
        stroke-width: 0.267px;
      }

      .cls-11 {
        fill: #c6c8c8;
      }

      .cls-12 {
        stroke-width: 0.534px;
      }
    </style>
  </defs>
  <g id="Ebene_2" data-name="Ebene 2">
    <g id="Ebene_1-2" data-name="Ebene 1">
      <g>
        <g>
          <path class="cls-1" d="M84.95,84.372v7.371H83.64V84.372Z"/>
          <path class="cls-1" d="M92.771,84.372v7.371h-1.4l-3.245-5.028v5.028h-1.31V84.372H88.2l3.267,5.072V84.372Z"/>
          <path class="cls-1" d="M94.64,84.372h2.465c2.519,0,3.565,1.529,3.565,3.685,0,2.443-1.376,3.686-3.785,3.686H94.64Zm1.31,6.337H96.8c1.584,0,2.541-.638,2.541-2.652,0-1.925-.836-2.64-2.486-2.64h-.9Z"/>
          <path class="cls-1" d="M103.529,84.372v7.371h-1.31V84.372Z"/>
          <path class="cls-1" d="M107.345,91.776l-2.717-7.4h1.43l1.9,5.512,1.936-5.512h1.419l-2.816,7.4Z"/>
          <path class="cls-1" d="M113.737,84.372v7.371h-1.31V84.372Z"/>
          <path class="cls-1" d="M115.606,84.372h2.465c2.519,0,3.565,1.529,3.565,3.685,0,2.443-1.376,3.686-3.785,3.686h-2.245Zm1.31,6.337h.847c1.584,0,2.541-.638,2.541-2.652,0-1.925-.836-2.64-2.486-2.64h-.9Z"/>
          <path class="cls-1" d="M123.075,88.992v-4.62h1.32v4.445c0,1.386.473,1.936,1.661,1.936,1.123,0,1.651-.561,1.651-1.936V84.372h1.32v4.62a2.625,2.625,0,0,1-2.971,2.861C124.076,91.853,123.075,90.786,123.075,88.992Z"/>
          <path class="cls-1" d="M130.687,88.992v-4.62h1.32v4.445c0,1.386.473,1.936,1.661,1.936,1.122,0,1.651-.561,1.651-1.936V84.372h1.32v4.62a2.625,2.625,0,0,1-2.971,2.861C131.688,91.853,130.687,90.786,130.687,88.992Z"/>
          <path class="cls-1" d="M142.656,91.743h-.892l-1.9-4.962-.33,4.962h-1.3l.5-7.371h1.529l1.969,5.181,1.937-5.181h1.529l.5,7.371h-1.3l-.33-4.962Z"/>
        </g>
        <g>
          <path class="cls-2" d="M131.557,171.723c2.014,0,3.257,1.1,3.257,3.631s-1.122,3.961-3.531,3.961c-2.014,0-3.213-1.156-3.213-3.686S129.126,171.723,131.557,171.723Zm-.165,6.48c1.518,0,2.091-.869,2.091-2.849,0-1.76-.517-2.509-1.981-2.509-1.507,0-2.1.837-2.1,2.784C129.4,177.378,129.929,178.2,131.392,178.2Z"/>
          <path class="cls-2" d="M141.457,174.033a2.046,2.046,0,0,1-1.749,2.113l2.079,3.058h-1.639l-1.859-2.915h-.616V179.2h-1.309v-7.371h2.574C140.665,171.833,141.457,172.615,141.457,174.033Zm-2.695,1.145c.88,0,1.4-.33,1.4-1.145,0-.913-.572-1.078-1.518-1.078h-.968v2.223Z"/>
          <path class="cls-2" d="M148.762,175.9v2.805a5.309,5.309,0,0,1-2.509.606c-2.376,0-3.41-1.728-3.41-3.741,0-2.113,1.056-3.851,3.543-3.851a6.241,6.241,0,0,1,2.277.386l-.286,1.066a4.827,4.827,0,0,0-1.794-.33c-1.65,0-2.409.969-2.409,2.729,0,1.628.649,2.629,2.365,2.629a4.006,4.006,0,0,0,.913-.121V175.9Z"/>
          <path class="cls-2" d="M153.755,171.8l2.619,7.4h-1.43l-.617-1.936h-2.6l-.616,1.936H149.7l2.629-7.4Zm-.726,1.563-.935,2.882h1.87Z"/>
          <path class="cls-2" d="M163.425,171.833V179.2h-1.4l-3.245-5.027V179.2h-1.31v-7.371h1.376l3.268,5.072v-5.072Z"/>
          <path class="cls-2" d="M166.6,171.833V179.2h-1.309v-7.371Z"/>
          <path class="cls-2" d="M168.439,177.774a6.09,6.09,0,0,0,2.123.429c.815,0,1.266-.384,1.266-.979,0-.66-.539-.957-1.354-1.221-1.264-.407-2.288-.814-2.288-2.222,0-1.365,1.21-2.058,2.641-2.058a5.891,5.891,0,0,1,2.067.386l-.285,1.122a4.953,4.953,0,0,0-1.782-.386c-.737,0-1.276.286-1.276.892,0,.649.681.913,1.473,1.155,1.331.407,2.156,1.056,2.156,2.223a2.264,2.264,0,0,1-2.541,2.2,5.974,5.974,0,0,1-2.5-.5Z"/>
          <path class="cls-2" d="M178.01,171.8l2.618,7.4H179.2l-.616-1.936h-2.6l-.616,1.936H173.95l2.63-7.4Zm-.726,1.563-.936,2.882h1.871Z"/>
          <path class="cls-2" d="M183.641,172.945V179.2h-1.309v-6.259h-2.2v-1.112h5.7v1.112Z"/>
          <path class="cls-2" d="M188.316,171.833V179.2h-1.308v-7.371Z"/>
          <path class="cls-2" d="M193.333,171.723c2.013,0,3.257,1.1,3.257,3.631s-1.123,3.961-3.533,3.961c-2.012,0-3.212-1.156-3.212-3.686S190.9,171.723,193.333,171.723Zm-.165,6.48c1.518,0,2.09-.869,2.09-2.849,0-1.76-.517-2.509-1.98-2.509-1.508,0-2.1.837-2.1,2.784C191.177,177.378,191.705,178.2,193.168,178.2Z"/>
          <path class="cls-2" d="M204.091,171.833V179.2h-1.4l-3.246-5.027V179.2h-1.309v-7.371h1.375l3.268,5.072v-5.072Z"/>
        </g>
        <g>
          <path class="cls-3" d="M206.577,85.483v6.26h-1.31v-6.26h-2.2V84.372h5.7v1.111Z"/>
          <path class="cls-3" d="M211.252,87.387h2.607V88.5h-2.607v2.146h3.3v1.1h-4.61V84.372h4.566v1.111h-3.257Z"/>
          <path class="cls-3" d="M219.491,84.339l2.618,7.4h-1.43l-.616-1.936h-2.6l-.617,1.936h-1.419l2.63-7.4Zm-.726,1.562-.935,2.882h1.87Z"/>
          <path class="cls-3" d="M227.467,91.743h-.892l-1.9-4.962-.33,4.962h-1.3l.495-7.371h1.529l1.969,5.181,1.936-5.181h1.53l.5,7.371h-1.3l-.33-4.962Z"/>
          <path class="cls-3" d="M232.679,90.313a6.1,6.1,0,0,0,2.124.429c.814,0,1.265-.385,1.265-.98,0-.659-.539-.957-1.353-1.221-1.265-.406-2.288-.814-2.288-2.222,0-1.364,1.21-2.057,2.64-2.057a5.921,5.921,0,0,1,2.068.385l-.286,1.122a4.967,4.967,0,0,0-1.782-.385c-.737,0-1.276.286-1.276.891,0,.649.681.913,1.473,1.155,1.331.407,2.157,1.057,2.157,2.223a2.263,2.263,0,0,1-2.541,2.2,5.967,5.967,0,0,1-2.5-.495Z"/>
        </g>
        <g>
          <path class="cls-4" d="M171.76,7.792c0,.014-2.586,0-7.5.228s-12.161.71-21.4,2.047a214.282,214.282,0,0,0-33.1,7.511A195.216,195.216,0,0,0,68.777,35.671c-14.25,8.452-28.889,19.714-41.141,34.834A113.355,113.355,0,0,0,11.949,96a94.3,94.3,0,0,0-7.806,30.555,96.42,96.42,0,0,0,3.2,32.937,106.471,106.471,0,0,0,14.575,31.344,130.747,130.747,0,0,0,24.162,26.633,160.756,160.756,0,0,0,31.068,20.4,196.034,196.034,0,0,0,70.463,19.759,212.282,212.282,0,0,0,68.214-4.777A181.915,181.915,0,0,0,272.8,228.77c16.325-10.613,29.532-23.534,38.874-37.206a105.474,105.474,0,0,0,17.137-40.949,98.628,98.628,0,0,0,.225-33.712,101.908,101.908,0,0,0-5.753-20.653c-1.818-4.57-3.013-6.87-2.991-6.879-.022.01,1.234,2.275,3.17,6.806a101.233,101.233,0,0,1,6.265,20.6,98.9,98.9,0,0,1,.485,34.073,106.571,106.571,0,0,1-16.676,41.964c-9.284,14.091-22.552,27.474-39.043,38.512a183.262,183.262,0,0,1-57.775,25.2,213.488,213.488,0,0,1-69.491,5.378,197.784,197.784,0,0,1-72.109-20.035,163.358,163.358,0,0,1-31.91-21.014,133.951,133.951,0,0,1-24.863-27.629A109.922,109.922,0,0,1,3.405,160.559,99.726,99.726,0,0,1,.369,126.24,97.344,97.344,0,0,1,8.8,94.6,115.82,115.82,0,0,1,25.262,68.561C38.019,53.246,53.08,42.048,67.651,33.73a194.437,194.437,0,0,1,41.7-17.511,211.466,211.466,0,0,1,33.418-6.847,214.777,214.777,0,0,1,21.485-1.545c4.923-.106,7.508-.021,7.508-.035"/>
          <path class="cls-1" d="M168.2,80.184c-.01,0-.451-1.1-1.481-3.115a54.979,54.979,0,0,0-5.262-8.327,54.7,54.7,0,0,0-29.35-19.577A53.371,53.371,0,0,0,66.93,86.37a53.039,53.039,0,0,0,49.906,67.169,53.912,53.912,0,0,0,53.407-41.195,54.65,54.65,0,0,0,1.48-15.4,55.6,55.6,0,0,0-1.322-9.762c-.507-2.2-.875-3.338-.865-3.34-.01,0,.423,1.112,1.051,3.293a54.555,54.555,0,0,1,1.044,25.51,55.577,55.577,0,0,1-26.422,37.03A56.366,56.366,0,1,1,107.237,45.437,55.256,55.256,0,0,1,151.274,56.8a54.384,54.384,0,0,1,10.754,11.533,53.823,53.823,0,0,1,4.868,8.656c.923,2.073,1.3,3.2,1.308,3.2"/>
          <path class="cls-1" d="M123.383,127.018a6.178,6.178,0,1,1-6.178-6.178,6.178,6.178,0,0,1,6.178,6.178"/>
          <path class="cls-1" d="M113.821,112.455a6.178,6.178,0,1,1-6.178-6.178,6.178,6.178,0,0,1,6.178,6.178"/>
          <path class="cls-1" d="M132.944,112.455a6.178,6.178,0,1,1-6.178-6.178,6.178,6.178,0,0,1,6.178,6.178"/>
          <path class="cls-3" d="M169.381,122.072c.007,0,.463,1.1,1.5,3.1a55.613,55.613,0,0,0,5.309,8.284,54.743,54.743,0,0,0,11.077,10.763,53.71,53.71,0,0,0,67.3-3.091A53.058,53.058,0,0,0,193.8,54.95a53.866,53.866,0,0,0-26.545,34.585,54.643,54.643,0,0,0-.233,25.121c.5,2.2.869,3.334.859,3.336.011,0-.423-1.111-1.047-3.289a53.836,53.836,0,0,1-1.812-9.751,55.182,55.182,0,0,1,8.769-35.117,55.913,55.913,0,0,1,46.875-25.2A56.367,56.367,0,0,1,230.453,156.5a55.572,55.572,0,0,1-25.459-1.482,54.689,54.689,0,0,1-34.285-29.758c-.932-2.065-1.32-3.189-1.328-3.185"/>
          <path class="cls-3" d="M224.462,115.029a6.178,6.178,0,1,1,0-8.738,6.178,6.178,0,0,1,0,8.738"/>
          <path class="cls-3" d="M236.84,127.407a6.178,6.178,0,1,1,0-8.738,6.178,6.178,0,0,1,0,8.738"/>
          <path class="cls-3" d="M211.981,127.51a6.178,6.178,0,1,1,0-8.738,6.177,6.177,0,0,1,0,8.738"/>
          <path class="cls-3" d="M224.358,139.888a6.178,6.178,0,1,1,0-8.738,6.177,6.177,0,0,1,0,8.738"/>
        </g>
        <path class="cls-3" d="M220.41,134.684V123.458h11.226Zm-.735-11.226v11.226l-11.227-11.226Zm-11.19-.736,11.19-11.189v11.189Zm23.176,0H220.41V111.471Zm1.414.374-12.482-12.482-.468-.468-.052-.052-12.95,12.95.034.033-.065.065,12.95,12.949.052-.051.468-.469L232.536,123.6l.019.019Z"/>
        <g>
          <path class="cls-2" d="M210.5,152.5c-.01.008-.671-.977-2.082-2.729a55.387,55.387,0,0,0-6.814-7.042,54.294,54.294,0,0,0-32.526-13.18A53.343,53.343,0,0,0,112.7,178.6a53.008,53.008,0,0,0,31.464,52.614,53.5,53.5,0,0,0,69.891-26.483,54.621,54.621,0,0,0,.786-44.232c-.878-2.071-1.433-3.119-1.425-3.122-.009,0,.608,1.015,1.6,3.042a53.78,53.78,0,0,1,3.488,9.244,54.415,54.415,0,0,1,1.943,15.565A55.734,55.734,0,0,1,174.7,238.771a56.359,56.359,0,0,1-30.617-107.965,55.481,55.481,0,0,1,45.2,2.322,54.4,54.4,0,0,1,19.282,16.53c1.317,1.832,1.92,2.852,1.929,2.846"/>
          <path class="cls-2" d="M154.369,214.006a3.742,3.742,0,1,1-3.742-3.743,3.741,3.741,0,0,1,3.742,3.743"/>
          <path class="cls-2" d="M163.873,214.006a3.742,3.742,0,1,1-3.743-3.743,3.742,3.742,0,0,1,3.743,3.743"/>
          <path class="cls-2" d="M173.377,214.006a3.743,3.743,0,1,1-3.743-3.743,3.742,3.742,0,0,1,3.743,3.743"/>
          <path class="cls-2" d="M182.881,214.006a3.742,3.742,0,1,1-3.744-3.743,3.742,3.742,0,0,1,3.744,3.743"/>
          <path class="cls-2" d="M158.795,206.521a3.742,3.742,0,1,1-3.743-3.742,3.743,3.743,0,0,1,3.743,3.742"/>
          <path class="cls-2" d="M168.3,206.521a3.743,3.743,0,1,1-3.742-3.742,3.743,3.743,0,0,1,3.742,3.742"/>
          <path class="cls-2" d="M177.8,206.521a3.743,3.743,0,1,1-3.742-3.742,3.743,3.743,0,0,1,3.742,3.742"/>
          <path class="cls-2" d="M163.221,199.037a3.742,3.742,0,1,1-3.742-3.742,3.743,3.743,0,0,1,3.742,3.742"/>
          <path class="cls-2" d="M172.725,199.037a3.742,3.742,0,1,1-3.744-3.742,3.743,3.743,0,0,1,3.744,3.742"/>
          <path class="cls-2" d="M167.646,191.553a3.742,3.742,0,1,1-3.742-3.743,3.742,3.742,0,0,1,3.742,3.743"/>
        </g>
        <path class="cls-5" d="M185.3,6.723a7.2,7.2,0,0,0,2.411.862c.952.137,1.545-.237,1.645-.931.112-.771-.468-1.211-1.376-1.657-1.411-.691-2.538-1.34-2.3-2.987.231-1.6,1.764-2.2,3.436-1.958a6.977,6.977,0,0,1,2.354.8l-.525,1.264a5.861,5.861,0,0,0-2.019-.752c-.863-.125-1.541.118-1.643.825-.11.76.643,1.184,1.528,1.6,1.488.7,2.342,1.6,2.145,2.965-.232,1.595-1.633,2.39-3.345,2.142a7.065,7.065,0,0,1-2.837-1Z"/>
        <path class="cls-5" d="M194.5,1.028l1.2,4.156L198.314,1.7l1.653.289-3.788,4.892-.56,3.189L194.084,9.8l.558-3.189L192.769.724Z"/>
        <path class="cls-5" d="M199.824,9.129a7.2,7.2,0,0,0,2.347,1.026c.94.2,1.557-.128,1.706-.814.165-.763-.385-1.241-1.259-1.749-1.359-.787-2.439-1.513-2.087-3.138.341-1.576,1.912-2.074,3.564-1.717a6.989,6.989,0,0,1,2.292.962l-.611,1.225a5.872,5.872,0,0,0-1.962-.891c-.851-.184-1.545.012-1.7.71-.162.75.559,1.226,1.414,1.7,1.436.8,2.226,1.759,1.935,3.106-.341,1.575-1.8,2.271-3.486,1.906a7.084,7.084,0,0,1-2.761-1.2Z"/>
        <path class="cls-5" d="M211.523,5.946l-1.779,7.18-1.5-.371,1.779-7.181L207.5,4.949l.315-1.274,6.537,1.619-.315,1.274Z"/>
        <path class="cls-5" d="M216.3,9.537l2.966.83-.353,1.265-2.967-.83-.683,2.442,3.755,1.051-.35,1.251-5.246-1.468,2.346-8.387,5.2,1.453-.354,1.264L216.9,7.371Z"/>
        <path class="cls-5" d="M225.152,17.629l-1-.334-.272-6.274-2.23,5.437-1.455-.487L223.513,7.9l1.713.572.266,6.546L229.6,9.933l1.715.573-2.209,8.446-1.455-.486,1.49-5.684Z"/>
        <path class="cls-5" d="M235.3,11.98l-3.011,8.174-1.452-.536,3.011-8.173Z"/>
        <path class="cls-5" d="M234.78,19.277a7.214,7.214,0,0,0,2.138,1.409c.892.36,1.556.138,1.819-.515.292-.722-.168-1.287-.943-1.935-1.207-1.006-2.15-1.9-1.527-3.447.6-1.5,2.236-1.719,3.8-1.089a7.056,7.056,0,0,1,2.1,1.336l-.81,1.1a5.852,5.852,0,0,0-1.783-1.209c-.808-.326-1.524-.251-1.792.412-.287.711.344,1.3,1.1,1.918,1.28,1.034,1.9,2.11,1.381,3.388-.6,1.5-2.153,1.935-3.756,1.289a7.04,7.04,0,0,1-2.519-1.647Z"/>
        <path class="cls-5" d="M249.173,19.5a5.266,5.266,0,0,0-1.69-1.189c-1.789-.808-2.911-.06-3.766,1.837-.792,1.754-.746,3.072,1.115,3.912a5.6,5.6,0,0,0,2.314.4l-.25,1.186a6.306,6.306,0,0,1-2.913-.53c-2.476-1.119-2.679-3.45-1.7-5.618,1.027-2.275,2.845-3.708,5.522-2.5A6.974,6.974,0,0,1,250,18.486Z"/>
        <path class="cls-5" d="M251.736,22.9l3.475,1.743,1.6-3.184,1.382.7-3.907,7.785L252.9,29.24l1.7-3.381-3.473-1.744-1.7,3.381-1.384-.694,3.908-7.785,1.383.694Z"/>
        <path class="cls-5" d="M259.94,27.136l2.695,1.5L262,29.78l-2.694-1.5L258.072,30.5l3.41,1.893-.632,1.138-4.762-2.645,4.229-7.615,4.717,2.619-.638,1.148-3.363-1.868Z"/>
        <path class="cls-5" d="M263.22,32.959a7.2,7.2,0,0,0,1.895,1.722c.826.494,1.518.377,1.877-.226.4-.669.033-1.3-.633-2.059-1.037-1.18-1.828-2.213-.974-3.641.827-1.385,2.475-1.353,3.925-.486a7.008,7.008,0,0,1,1.866,1.644l-.971.965a5.848,5.848,0,0,0-1.575-1.471c-.747-.447-1.468-.484-1.834.13-.394.659.137,1.339.8,2.066,1.1,1.22,1.547,2.378.84,3.56-.827,1.385-2.426,1.58-3.912.693a7.058,7.058,0,0,1-2.232-2.017Z"/>
        <path class="cls-5" d="M280.057,37.357a5.233,5.233,0,0,0-1.449-1.472c-1.616-1.113-2.854-.577-4.034,1.137-1.092,1.585-1.28,2.889.4,4.048a5.624,5.624,0,0,0,2.2.808L276.723,43a6.3,6.3,0,0,1-2.771-1.04c-2.237-1.541-2.023-3.872-.673-5.831,1.415-2.055,3.458-3.142,5.877-1.476a6.977,6.977,0,0,1,1.895,1.856Z"/>
        <path class="cls-5" d="M285.926,39.576c1.9,1.434,2.287,3.358.484,5.743s-3.879,2.935-6.151,1.218c-1.9-1.434-2.206-3.377-.4-5.763S283.633,37.844,285.926,39.576Zm-4.772,5.992c1.432,1.081,2.59.67,4-1.2,1.254-1.659,1.3-2.733-.081-3.775-1.42-1.073-2.576-.708-3.964,1.128C279.865,43.371,279.775,44.526,281.154,45.568Z"/>
        <path class="cls-5" d="M293.254,45.605l-3.3,8.675-1.289-1.094.925-2.216-2.341-1.984-2.034,1.275-1.281-1.084,8.03-4.665Zm-1.849.853-3.046,1.884,1.687,1.428Z"/>
        <path class="cls-5" d="M299.671,53.572a5.233,5.233,0,0,0-1.22-1.667c-1.437-1.337-2.739-.986-4.156.536-1.311,1.409-1.688,2.673-.194,4.064a5.6,5.6,0,0,0,2.065,1.121l-.616,1.043a6.281,6.281,0,0,1-2.591-1.434c-1.989-1.85-1.437-4.123.183-5.865,1.7-1.827,3.881-2.606,6.032-.6a6.945,6.945,0,0,1,1.6,2.114Z"/>
        <path class="cls-5" d="M301,57.673l2.717,2.779,2.547-2.49,1.082,1.106-6.229,6.09-1.081-1.106,2.7-2.645-2.717-2.779-2.705,2.644-1.082-1.1,6.228-6.09,1.083,1.105Z"/>
        <path class="cls-5" d="M309.993,62.08l-6.515,5.782L302.451,66.7l6.515-5.781Z"/>
        <path class="cls-5" d="M316.023,69.27,309.3,74.8l-1.049-1.273,2.15-6.737-4.588,3.775-.983-1.194,6.725-5.535,1.034,1.254-2.174,6.79,4.627-3.808Z"/>
        <path class="cls-5" d="M317.538,79.523l-2.689,1.939a6.282,6.282,0,0,1-2.314-1.985c-1.643-2.278-.7-4.462,1.227-5.855,2.025-1.461,4.419-1.65,6.139.734a7.387,7.387,0,0,1,1.2,2.448l-1.22.464a5.7,5.7,0,0,0-.923-1.946c-1.141-1.582-2.594-1.641-4.281-.424-1.56,1.126-2.071,2.44-.885,4.086a4.718,4.718,0,0,0,.748.791l2.088-1.506Z"/>
        <rect class="cls-6" x="112.518" y="50.039" width="5.588" height="6.992"/>
        <rect class="cls-7" x="112.518" y="50.039" width="5.588" height="6.992"/>
        <g>
          <path class="cls-1" d="M115.312,82.554a.337.337,0,0,1-.337-.336V64.893a.337.337,0,1,1,.673,0V82.218a.336.336,0,0,1-.336.336"/>
          <path class="cls-1" d="M107.944,65.7v.672a1.371,1.371,0,0,0,1.37,1.369h3.094v-.672a1.371,1.371,0,0,0-1.37-1.369Zm4.8,2.714h-3.43a2.045,2.045,0,0,1-2.043-2.042V65.363a.336.336,0,0,1,.337-.336h3.43a2.044,2.044,0,0,1,2.042,2.042v1.009a.336.336,0,0,1-.336.336"/>
          <path class="cls-1" d="M115.311,69.771a.341.341,0,0,1-.157-.039L110,67.008a.336.336,0,0,1,.314-.595l5.155,2.724a.337.337,0,0,1-.158.634"/>
          <path class="cls-1" d="M118.215,70.379h3.094a1.37,1.37,0,0,0,1.369-1.369v-.672h-3.093a1.371,1.371,0,0,0-1.37,1.369Zm3.094.673h-3.43a.337.337,0,0,1-.337-.336V69.707a2.044,2.044,0,0,1,2.043-2.042h3.43a.336.336,0,0,1,.336.336V69.01a2.044,2.044,0,0,1-2.042,2.042"/>
          <path class="cls-1" d="M115.312,72.409a.337.337,0,0,1-.158-.634l5.155-2.724a.336.336,0,0,1,.314.595l-5.154,2.724a.341.341,0,0,1-.157.039"/>
          <path class="cls-1" d="M115.312,53.851a5.353,5.353,0,1,0,5.352,5.353,5.358,5.358,0,0,0-5.352-5.353m0,11.378a6.026,6.026,0,1,1,6.025-6.025,6.032,6.032,0,0,1-6.025,6.025"/>
          <path class="cls-1" d="M115.312,58.94a1.782,1.782,0,1,0-1.782-1.783,1.785,1.785,0,0,0,1.782,1.783m3.8,2.961a.336.336,0,0,1-.336-.336,1.785,1.785,0,0,0-1.675-1.952h-3.579a1.785,1.785,0,0,0-1.674,1.952.337.337,0,0,1-.673,0,2.426,2.426,0,0,1,2.347-2.625h.1a2.455,2.455,0,1,1,3.374,0h.1a2.426,2.426,0,0,1,2.347,2.625.336.336,0,0,1-.336.336"/>
          <path class="cls-1" d="M113.193,57.493a.337.337,0,1,1,0-.673,3.964,3.964,0,0,0,3.267-1.466.337.337,0,1,1,.513.436,4.587,4.587,0,0,1-3.78,1.7"/>
          <path class="cls-8" d="M214.814,69.941a.563.563,0,0,1-1.126,0v-3.5a.4.4,0,0,0-.8,0V76.776a.553.553,0,0,1-.552.553h-1.425V72.041a.4.4,0,1,0-.8,0v5.288H208.68a.555.555,0,0,1-.553-.558V66.443a.4.4,0,1,0-.8,0v3.5a.563.563,0,0,1-1.126,0V66.779a2.141,2.141,0,0,1,2.286-2.412h4.045a2.141,2.141,0,0,1,2.286,2.412ZM209,62.058a1.5,1.5,0,1,1,1.5,1.505,1.506,1.506,0,0,1-1.5-1.505m3.527,1.505h-.275a2.309,2.309,0,1,0-3.495,0h-.275a2.927,2.927,0,0,0-3.09,3.216v3.162a1.362,1.362,0,0,0,1.93,1.242v5.593a1.359,1.359,0,0,0,1.357,1.357h3.652a1.359,1.359,0,0,0,1.356-1.362V71.183a1.362,1.362,0,0,0,1.93-1.242V66.779a2.927,2.927,0,0,0-3.09-3.216"/>
          <path class="cls-8" d="M236.461,69.941a.563.563,0,0,1-1.125,0v-3.5a.4.4,0,1,0-.8,0V76.776a.554.554,0,0,1-.553.553h-1.423V72.041a.4.4,0,1,0-.805,0v5.288h-1.425a.554.554,0,0,1-.551-.558V66.443a.4.4,0,1,0-.8,0v3.5a.563.563,0,0,1-1.126,0V66.779a2.141,2.141,0,0,1,2.286-2.412h4.044a2.141,2.141,0,0,1,2.286,2.412Zm-5.813-7.883a1.5,1.5,0,1,1,1.5,1.505,1.506,1.506,0,0,1-1.5-1.505m3.527,1.505H233.9a2.309,2.309,0,1,0-3.5,0h-.274a2.927,2.927,0,0,0-3.091,3.216v3.162a1.363,1.363,0,0,0,1.931,1.242v5.593a1.358,1.358,0,0,0,1.355,1.357h3.653a1.36,1.36,0,0,0,1.357-1.362V71.183a1.361,1.361,0,0,0,1.929-1.242V66.779a2.927,2.927,0,0,0-3.09-3.216"/>
          <path class="cls-8" d="M225.584,63.688a.563.563,0,0,1-1.125,0v-3.5a.4.4,0,1,0-.8,0V70.523a.554.554,0,0,1-.553.553h-1.423V65.788a.4.4,0,1,0-.805,0v5.288h-1.425a.554.554,0,0,1-.551-.558V60.19a.4.4,0,0,0-.8,0v3.5a.563.563,0,0,1-1.126,0V60.526a2.141,2.141,0,0,1,2.286-2.412H223.3a2.141,2.141,0,0,1,2.286,2.412Zm-5.813-7.883a1.505,1.505,0,1,1,1.505,1.505,1.506,1.506,0,0,1-1.505-1.505M223.3,57.31h-.274a2.309,2.309,0,1,0-3.5,0h-.274a2.927,2.927,0,0,0-3.091,3.216v3.162a1.363,1.363,0,0,0,1.931,1.242v5.593a1.358,1.358,0,0,0,1.355,1.357H223.1a1.36,1.36,0,0,0,1.357-1.362V64.93a1.361,1.361,0,0,0,1.929-1.242V60.526a2.927,2.927,0,0,0-3.09-3.216"/>
        </g>
        <rect class="cls-6" x="164.368" y="144.909" width="6.219" height="7.782"/>
        <rect class="cls-9" x="164.368" y="144.909" width="6.219" height="7.782"/>
        <g>
          <path class="cls-6" d="M166.208,144.342a1.339,1.339,0,0,0-1.211.768,1.34,1.34,0,0,0-2.278.736,1.327,1.327,0,0,0-.542-.116,1.341,1.341,0,0,0-1.341,1.342c0,.016,0,.031,0,.047a1.339,1.339,0,0,0-1.19,1.939,1.007,1.007,0,0,0-.393,1.567,1.189,1.189,0,0,0-.544,1.829,4.11,4.11,0,0,0,2.579,1.661c1.445.314,2.12.892,2.12,1.879v2.289h2.24v-.895h-.038a3.186,3.186,0,0,1,.038-.49v-2.469a1.168,1.168,0,0,1,1.2-1.205h4.376c.932,0,2.513-1.213,2.513-2.047a.857.857,0,0,0-.429-.814.993.993,0,0,0,.073-.374,1.009,1.009,0,0,0-.62-.931,1.337,1.337,0,0,0-1.19-1.939c0-.016,0-.031,0-.047a1.341,1.341,0,0,0-1.341-1.342,1.327,1.327,0,0,0-.542.116,1.34,1.34,0,0,0-2.278-.736,1.339,1.339,0,0,0-1.211-.768"/>
          <path class="cls-10" d="M166.208,144.342a1.339,1.339,0,0,0-1.211.768,1.34,1.34,0,0,0-2.278.736,1.327,1.327,0,0,0-.542-.116,1.341,1.341,0,0,0-1.341,1.342c0,.016,0,.031,0,.047a1.339,1.339,0,0,0-1.19,1.939,1.007,1.007,0,0,0-.393,1.567,1.189,1.189,0,0,0-.544,1.829,4.11,4.11,0,0,0,2.579,1.661c1.445.314,2.12.892,2.12,1.879v2.289h2.24v-.895h-.038a3.186,3.186,0,0,1,.038-.49v-2.469a1.168,1.168,0,0,1,1.2-1.205h4.376c.932,0,2.513-1.213,2.513-2.047a.857.857,0,0,0-.429-.814.993.993,0,0,0,.073-.374,1.009,1.009,0,0,0-.62-.931,1.337,1.337,0,0,0-1.19-1.939c0-.016,0-.031,0-.047a1.341,1.341,0,0,0-1.341-1.342,1.327,1.327,0,0,0-.542.116,1.34,1.34,0,0,0-2.278-.736,1.339,1.339,0,0,0-1.211-.768"/>
          <path class="cls-11" d="M165.651,156.9a3.186,3.186,0,0,0-.039.49h.039v-.49"/>
          <path class="cls-8" d="M163.209,149.831a.983.983,0,1,0,.983.983.983.983,0,0,0-.983-.983m0,2.209a1.226,1.226,0,1,1,1.226-1.226,1.227,1.227,0,0,1-1.226,1.226"/>
          <path class="cls-8" d="M163.015,153.438h.389c.017-.235.091-.717.418-.808a1.936,1.936,0,0,0,.239-.1c.295-.167.689.121.867.276l.275-.275c-.154-.178-.442-.571-.277-.866a1.824,1.824,0,0,0,.1-.241c.091-.326.573-.4.808-.417v-.389c-.235-.017-.717-.091-.808-.417a1.824,1.824,0,0,0-.1-.241c-.165-.3.123-.688.277-.866l-.275-.275c-.178.155-.572.444-.868.276a1.818,1.818,0,0,0-.237-.1c-.328-.09-.4-.573-.419-.809h-.389c-.017.235-.091.718-.418.808a2.245,2.245,0,0,0-.238.1c-.3.169-.689-.12-.868-.275l-.275.275c.155.179.444.573.275.868a2.032,2.032,0,0,0-.1.237c-.09.328-.573.4-.809.419v.389c.236.017.719.091.808.419a2.05,2.05,0,0,0,.1.24c.165.295-.123.687-.277.865l.275.275c.179-.155.573-.443.868-.276a1.973,1.973,0,0,0,.237.1c.328.089.4.572.419.808m.506.244H162.9a.122.122,0,0,1-.122-.122c0-.255-.078-.652-.246-.7l-.008,0a2.144,2.144,0,0,1-.271-.112l-.011-.006c-.149-.088-.486.138-.666.318a.126.126,0,0,1-.173,0l-.44-.44a.122.122,0,0,1,0-.173c.18-.18.406-.516.318-.666l-.007-.014a2.34,2.34,0,0,1-.111-.267l0-.009c-.044-.168-.441-.246-.7-.246a.123.123,0,0,1-.122-.122V150.5a.122.122,0,0,1,.122-.122c.255,0,.652-.078.7-.246l0-.008a2.2,2.2,0,0,1,.114-.274l0-.008c.088-.15-.138-.486-.318-.666a.121.121,0,0,1,0-.172l.44-.441a.122.122,0,0,1,.173,0c.18.18.516.406.666.318l.008,0a2.193,2.193,0,0,1,.27-.112l.012,0c.168-.044.246-.441.246-.7a.122.122,0,0,1,.122-.122h.623a.122.122,0,0,1,.122.122c0,.255.078.652.246.7l.008,0a2.144,2.144,0,0,1,.271.112l.011.006c.15.088.486-.138.666-.318a.122.122,0,0,1,.173,0l.44.441a.121.121,0,0,1,0,.172c-.18.18-.406.517-.318.666l.007.014a2.156,2.156,0,0,1,.109.262l0,.014c.044.168.441.246.7.246a.122.122,0,0,1,.122.122v.623a.122.122,0,0,1-.122.122c-.255,0-.652.078-.7.246l0,.014a2.156,2.156,0,0,1-.109.262l-.007.014c-.088.149.138.486.318.666a.122.122,0,0,1,0,.173l-.44.44a.122.122,0,0,1-.173,0c-.18-.18-.516-.406-.666-.318l-.012.006a2.2,2.2,0,0,1-.265.11l-.013,0c-.168.044-.246.441-.246.7a.122.122,0,0,1-.122.122"/>
          <path class="cls-8" d="M166.719,146.114a1.191,1.191,0,1,0,1.191,1.191,1.192,1.192,0,0,0-1.191-1.191m0,2.626a1.435,1.435,0,1,1,1.435-1.435,1.437,1.437,0,0,1-1.435,1.435"/>
          <path class="cls-8" d="M166.719,146.873a.432.432,0,1,0,.432.432.433.433,0,0,0-.432-.432m0,1.108a.676.676,0,1,1,.676-.676.676.676,0,0,1-.676.676"/>
          <path class="cls-8" d="M166.719,146.114a.122.122,0,0,1-.122-.122v-.218a.122.122,0,1,1,.244,0v.218a.122.122,0,0,1-.122.122"/>
          <path class="cls-8" d="M165.791,146.5a.122.122,0,0,1-.087-.036l-.154-.154a.122.122,0,0,1,.172-.172l.155.154a.123.123,0,0,1,0,.172.125.125,0,0,1-.086.036"/>
          <path class="cls-8" d="M165.406,147.427h-.218a.122.122,0,0,1,0-.244h.218a.122.122,0,0,1,0,.244"/>
          <path class="cls-8" d="M165.636,148.509a.122.122,0,0,1-.086-.208l.154-.154a.122.122,0,0,1,.172.172l-.154.154a.121.121,0,0,1-.086.036"/>
          <path class="cls-8" d="M166.719,148.958a.122.122,0,0,1-.122-.122v-.218a.122.122,0,0,1,.244,0v.218a.122.122,0,0,1-.122.122"/>
          <path class="cls-8" d="M167.8,148.509a.121.121,0,0,1-.086-.036l-.154-.154a.122.122,0,0,1,.172-.172l.154.154a.122.122,0,0,1-.086.208"/>
          <path class="cls-8" d="M168.25,147.427h-.218a.122.122,0,0,1,0-.244h.218a.122.122,0,0,1,0,.244"/>
          <path class="cls-8" d="M167.647,146.5a.122.122,0,0,1-.086-.208l.154-.154a.122.122,0,0,1,.172.172l-.154.154a.121.121,0,0,1-.086.036"/>
          <path class="cls-8" d="M166.216,146.214a.122.122,0,0,1-.113-.075l-.083-.2a.122.122,0,0,1,.225-.093l.084.2a.123.123,0,0,1-.066.16.131.131,0,0,1-.047.009"/>
          <path class="cls-8" d="M165.506,146.925a.131.131,0,0,1-.047-.009l-.2-.084a.122.122,0,0,1,.093-.225l.2.084a.122.122,0,0,1-.047.234"/>
          <path class="cls-8" d="M165.3,148.013a.122.122,0,0,1-.047-.234l.2-.084a.122.122,0,1,1,.093.225l-.2.084a.131.131,0,0,1-.047.009"/>
          <path class="cls-8" d="M166.133,148.841a.131.131,0,0,1-.047-.009.123.123,0,0,1-.066-.16l.084-.2a.122.122,0,0,1,.225.093l-.083.2a.122.122,0,0,1-.113.075"/>
          <path class="cls-8" d="M167.305,148.841a.122.122,0,0,1-.113-.075l-.083-.2a.122.122,0,0,1,.225-.093l.084.2a.123.123,0,0,1-.066.16.131.131,0,0,1-.047.009"/>
          <path class="cls-8" d="M168.133,148.013a.131.131,0,0,1-.047-.009l-.2-.084a.122.122,0,0,1,.093-.225l.2.084a.122.122,0,0,1-.047.234"/>
          <path class="cls-8" d="M167.932,146.925a.122.122,0,0,1-.047-.234l.2-.084a.122.122,0,1,1,.094.225l-.2.084a.131.131,0,0,1-.047.009"/>
          <path class="cls-8" d="M167.221,146.214a.131.131,0,0,1-.047-.009.123.123,0,0,1-.066-.16l.084-.2a.122.122,0,1,1,.225.093l-.083.2a.122.122,0,0,1-.113.075"/>
          <path class="cls-8" d="M167.442,150.586a.493.493,0,1,0,.493.493.493.493,0,0,0-.493-.493m0,1.23a.737.737,0,1,1,.737-.737.738.738,0,0,1-.737.737"/>
          <path class="cls-8" d="M170.236,147.792a.493.493,0,1,0,.493.493.493.493,0,0,0-.493-.493m0,1.23a.737.737,0,1,1,.737-.737.738.738,0,0,1-.737.737"/>
          <path class="cls-8" d="M172.244,149.8a.493.493,0,1,0,.493.493.493.493,0,0,0-.493-.493m0,1.23a.737.737,0,1,1,.737-.737.738.738,0,0,1-.737.737"/>
          <path class="cls-8" d="M167.876,150.766a.122.122,0,0,1-.086-.208l1.925-1.925a.122.122,0,0,1,.172.172l-1.925,1.925a.121.121,0,0,1-.086.036"/>
          <path class="cls-8" d="M171.809,149.98a.121.121,0,0,1-.086-.036l-1.138-1.138a.122.122,0,1,1,.172-.172l1.138,1.138a.122.122,0,0,1-.086.208"/>
          <path class="cls-8" d="M169.122,152.619h.913v-.913h-.913Zm1.034.244H169a.122.122,0,0,1-.122-.122v-1.156a.122.122,0,0,1,.122-.122h1.156a.122.122,0,0,1,.122.122v1.156a.122.122,0,0,1-.122.122"/>
          <path class="cls-8" d="M172.1,152.55h-1.221a.122.122,0,0,1,0-.244H172.1a.122.122,0,1,1,0,.244"/>
          <path class="cls-8" d="M172.565,152.012h-1.686a.122.122,0,1,1,0-.244h1.686a.122.122,0,1,1,0,.244"/>
          <path class="cls-8" d="M163.637,146.11a.122.122,0,0,1-.122-.122v-.425a.122.122,0,0,1,.244,0v.425a.122.122,0,0,1-.122.122"/>
          <path class="cls-8" d="M163.22,146.528h-.425a.122.122,0,1,1,0-.244h.425a.122.122,0,1,1,0,.244"/>
          <path class="cls-8" d="M163.637,147.371a.122.122,0,0,1-.122-.122v-.425a.122.122,0,1,1,.244,0v.425a.122.122,0,0,1-.122.122"/>
          <path class="cls-8" d="M164.48,146.528h-.426a.122.122,0,0,1,0-.244h.426a.122.122,0,0,1,0,.244"/>
          <path class="cls-6" d="M176.559,168.908h-6.667a.124.124,0,0,1-.106-.062l-1.878-3.314a.122.122,0,0,1,.106-.182h5.649a1.471,1.471,0,0,0,1.483-1.626V160.63a.122.122,0,0,1,.122-.121H177.2a.35.35,0,0,0,.313-.164.475.475,0,0,0-.017-.465,14.218,14.218,0,0,0-.908-1.293,7.013,7.013,0,0,1-1.446-2.395v-3.8a8.881,8.881,0,0,0-17.762,0v6.5a.122.122,0,1,1-.244,0v-6.5a9.125,9.125,0,0,1,18.25,0v3.8a7.691,7.691,0,0,0,1.4,2.249,14.246,14.246,0,0,1,.928,1.324.712.712,0,0,1,.01.705.589.589,0,0,1-.521.282H175.39v2.972a1.714,1.714,0,0,1-1.727,1.87h-5.44l1.74,3.07h6.6a.122.122,0,1,1,0,.244"/>
          <path class="cls-12" d="M176.559,168.908h-6.667a.124.124,0,0,1-.106-.062l-1.878-3.314a.122.122,0,0,1,.106-.182h5.649a1.471,1.471,0,0,0,1.483-1.626V160.63a.122.122,0,0,1,.122-.121H177.2a.35.35,0,0,0,.313-.164.475.475,0,0,0-.017-.465,14.218,14.218,0,0,0-.908-1.293,7.013,7.013,0,0,1-1.446-2.395v-3.8a8.881,8.881,0,0,0-17.762,0v6.5a.122.122,0,1,1-.244,0v-6.5a9.125,9.125,0,0,1,18.25,0v3.8a7.691,7.691,0,0,0,1.4,2.249,14.246,14.246,0,0,1,.928,1.324.712.712,0,0,1,.01.705.589.589,0,0,1-.521.282H175.39v2.972a1.714,1.714,0,0,1-1.727,1.87h-5.44l1.74,3.07h6.6a.122.122,0,1,1,0,.244Z"/>
          <path class="cls-2" d="M172.826,154.43a.685.685,0,1,0,.685.685.685.685,0,0,0-.685-.685m0,1.614a.929.929,0,1,1,.929-.929.93.93,0,0,1-.929.929"/>
          <path class="cls-10" d="M172.826,154.43a.685.685,0,1,0,.685.685A.685.685,0,0,0,172.826,154.43Zm0,1.614a.929.929,0,1,1,.929-.929A.93.93,0,0,1,172.826,156.044Z"/>
        </g>
      </g>
    </g>
  </g>
</svg>
